SplineFontDB: 3.0
FontName: OrthoventionalUpright
FullName: Orthoventional Upright
FamilyName: Orthoventional
Weight: Medium
Copyright: Created by James,,, with FontForge 2.0 (http://fontforge.sf.net)
UComments: "2011-7-31: Created." 
Version: 001.000
ItalicAngle: 0
UnderlinePosition: -409
UnderlineWidth: 102
Ascent: 1638
Descent: 410
LayerCount: 2
Layer: 0 0 "Back"  1
Layer: 1 0 "Fore"  0
NeedsXUIDChange: 1
XUID: [1021 701 1124907257 10849020]
FSType: 0
OS2Version: 0
OS2_WeightWidthSlopeOnly: 0
OS2_UseTypoMetrics: 1
CreationTime: 1312139137
ModificationTime: 1320000720
OS2TypoAscent: 0
OS2TypoAOffset: 1
OS2TypoDescent: 0
OS2TypoDOffset: 1
OS2TypoLinegap: 184
OS2WinAscent: 0
OS2WinAOffset: 1
OS2WinDescent: 0
OS2WinDOffset: 1
HheadAscent: 0
HheadAOffset: 1
HheadDescent: 0
HheadDOffset: 1
Lookup: 258 0 0 "'kern' Horizontal Kerning in Latin lookup 0"  {"'kern' Horizontal Kerning in Latin lookup 0-1" [150,15,0] } ['kern' ('DFLT' <'dflt' > 'latn' <'dflt' > ) ]
MarkAttachClasses: 1
DEI: 91125

StartChar: I
Encoding: 73 73 0
Width: 636
VWidth: 0
Flags: W
HStem: 0 21G<179.5 459.5> 1256 20G<177.5 458.5>
VStem: 205 227<102.638 1173.36>
LayerCount: 2
Back
SplineSet
2252.8 471.04 m 17
 2480.13 471.04 l 9
 2480.13 159.744 l 26
 2480.13 104.292 2574.34 94.208 2574.34 53.248 c 0
 2574.34 28.6719 2535.42 0 2480.13 0 c 2
 2254.85 0 l 2
 2199.55 -0.501953 2158.59 26.624 2158.59 53.248 c 0
 2158.59 94.208 2252.8 104.292 2252.8 159.744 c 26
 2252.8 471.04 l 17
432.128 804.868 m 17
 204.8 804.868 l 9
 204.8 1116.16 l 26
 204.8 1171.62 110.592 1181.7 110.592 1222.66 c 0
 110.592 1247.24 149.504 1275.91 204.8 1275.91 c 2
 430.08 1275.91 l 2
 485.374 1276.41 526.336 1249.28 526.336 1222.66 c 0
 526.336 1181.7 432.128 1171.62 432.128 1116.16 c 26
 432.128 804.868 l 17
204.8 471.04 m 17
 432.128 471.04 l 9
 432.128 159.744 l 26
 432.128 104.292 526.336 94.208 526.336 53.248 c 0
 526.336 28.6719 487.424 0 432.128 0 c 2
 206.848 0 l 2
 151.554 -0.501953 110.592 26.624 110.592 53.248 c 0
 110.592 94.208 204.8 104.292 204.8 159.744 c 26
 204.8 471.04 l 17
204.8 1275.9 m 25
 432.128 1275.9 l 25
 432.128 63.4883 l 25
 204.8 63.4883 l 25
 204.8 1275.9 l 25
432.128 804.868 m 17
 204.8 804.868 l 9
 204.8 1116.16 l 26
 204.8 1171.62 110.592 1181.7 110.592 1222.66 c 0
 110.592 1247.24 149.504 1275.91 204.8 1275.91 c 2
 430.08 1275.91 l 2
 485.374 1276.41 526.336 1249.28 526.336 1222.66 c 0
 526.336 1181.7 432.128 1171.62 432.128 1116.16 c 26
 432.128 804.868 l 17
204.8 471.04 m 17
 432.128 471.04 l 9
 432.128 159.744 l 26
 432.128 104.292 526.336 94.208 526.336 53.248 c 0
 526.336 28.6719 487.424 0 432.128 0 c 2
 206.848 0 l 2
 151.554 -0.501953 110.592 26.624 110.592 53.248 c 0
 110.592 94.208 204.8 104.292 204.8 159.744 c 26
 204.8 471.04 l 17
204.8 1275.9 m 25
 432.128 1275.9 l 25
 432.128 63.4883 l 25
 204.8 63.4883 l 25
 204.8 1275.9 l 25
EndSplineSet
Fore
SplineSet
205 160 m 2
 205 1116 l 2
 205 1171 111 1182 111 1223 c 3
 111 1248 150 1276 205 1276 c 2
 432 1276 l 2
 485 1276 526 1250 526 1223 c 3
 526 1182 432 1171 432 1116 c 2
 432 160 l 2
 432 105 526 94 526 53 c 3
 526 28 487 0 432 0 c 2
 207 0 l 2
 152 0 111 26 111 53 c 3
 111 94 205 105 205 160 c 2
EndSplineSet
Validated: 1
EndChar

StartChar: i
Encoding: 105 105 1
Width: 567
VWidth: 0
Flags: W
HStem: 0 21G<178.5 398.5> 1116 189<210.036 367.964>
VStem: 205 166<102.638 654.3 1125.43 1295.38>
LayerCount: 2
Back
SplineSet
194.56 1210.37 m 0
 194.56 1262.37 236.766 1304.58 288.768 1304.58 c 0
 340.771 1304.58 382.976 1262.37 382.976 1210.37 c 0
 382.976 1158.37 340.771 1116.16 288.768 1116.16 c 0
 236.766 1116.16 194.56 1158.37 194.56 1210.37 c 0
370.729 471.044 m 17
 204.8 471.04 l 9
 204.8 602.112 l 26
 204.8 655.215 110.592 659.456 110.592 700.416 c 0
 110.592 755.182 344.353 860.058 361.804 860.058 c 0
 382.841 860.058 389.438 846.797 389.438 828.535 c 0
 389.438 797.784 370.729 752.855 370.729 733.188 c 10
 370.729 471.044 l 17
204.8 471.04 m 17
 370.729 471.044 l 9
 370.729 159.748 l 26
 370.729 104.296 464.937 94.2119 464.937 53.252 c 0
 464.937 28.6758 426.025 0.00390625 370.729 0.00390625 c 2
 206.848 0 l 2
 151.552 -0.00195312 110.592 26.624 110.592 53.248 c 0
 110.592 94.208 204.8 104.292 204.8 159.744 c 26
 204.8 471.04 l 17
204.8 0.00390625 m 1
 204.8 517.895 l 1
 370.729 517.895 l 1
 370.729 0.00390625 l 1
 204.8 0.00390625 l 1
EndSplineSet
Fore
SplineSet
195 1210 m 0
 195 1261 238 1305 289 1305 c 0
 340 1305 383 1261 383 1210 c 0
 383 1159 340 1116 289 1116 c 0
 238 1116 195 1159 195 1210 c 0
205 160 m 2
 205 602 l 2
 205 655 111 659 111 700 c 0
 111 755 344 860 362 860 c 0
 382 860 389 847 389 829 c 0
 389 798 371 753 371 733 c 2
 371 160 l 2
 371 105 465 94 465 53 c 0
 465 28 426 0 371 0 c 2
 205 0 l 2
 152 0 111 26 111 53 c 0
 111 94 205 105 205 160 c 2
EndSplineSet
Validated: 1
EndChar

StartChar: l
Encoding: 108 108 2
Width: 567
VWidth: 0
Flags: W
HStem: 0 21G<178.5 398.5> 1399 20G<353 372>
VStem: 205 166<102.638 1213.78>
LayerCount: 2
Fore
SplineSet
205 160 m 2
 205 1161 l 2
 205 1214 111 1219 111 1260 c 0
 111 1315 344 1419 362 1419 c 0
 382 1419 389 1407 389 1389 c 0
 389 1358 371 1312 371 1292 c 2
 371 160 l 2
 371 105 465 94 465 53 c 0
 465 28 426 0 371 0 c 2
 205 0 l 2
 152 0 111 26 111 53 c 0
 111 94 205 105 205 160 c 2
EndSplineSet
Validated: 1
EndChar

StartChar: N
Encoding: 78 78 3
Width: 1372
VWidth: 0
Flags: W
HStem: -31 21G<1145.5 1159> 1256 20G<285.5 506 1088.5 1185.5>
VStem: 313 43<90.7564 1159> 1116 43<444 1191.24>
LayerCount: 2
Fore
SplineSet
356 1159 m 25
 356 123 l 2
 356 68 471 78 471 37 c 3
 471 12 411 6 356 6 c 2
 313 6 l 2
 260 6 199 10 199 37 c 3
 199 78 313 68 313 123 c 2
 313 1159 l 2
 313 1214 199 1204 199 1245 c 3
 199 1270 258 1276 313 1276 c 2
 459 1276 l 2
 553 1276 565 1276 643 1159 c 2
 1116 444 l 1
 1116 1159 l 2
 1116 1214 1001 1204 1001 1245 c 3
 1001 1270 1061 1276 1116 1276 c 2
 1159 1276 l 2
 1212 1276 1274 1272 1274 1245 c 3
 1274 1204 1159 1214 1159 1159 c 2
 1159 -31 l 9
 356 1159 l 25
EndSplineSet
Validated: 1
EndChar

StartChar: O
Encoding: 79 79 5
Width: 1447
VWidth: 0
Flags: W
HStem: -31 31<613.518 804.984> 1276 31<610.543 803.951>
VStem: 117 250<386.653 893.504> 1059 250<388.656 882>
LayerCount: 2
Fore
SplineSet
709 1307 m 8
 1059 1305 1309 987 1309 635 c 0
 1309 283 1059 -31 709 -31 c 27
 361 -31 117 289 117 641 c 0
 117 991 359 1307 705 1307 c 0
 709 1307 l 8
709 0 m 27
 992 0 1059 301 1059 635 c 0
 1059 969 992 1274 707 1276 c 16
 705 1276 l 0
 426 1276 367 973 367 641 c 0
 367 307 426 0 709 0 c 27
EndSplineSet
Validated: 1
EndChar

StartChar: L
Encoding: 76 76 6
Width: 1075
VWidth: 0
Flags: W
HStem: 0 37<432 717.873> 1256 20G<177.5 458.5>
VStem: 205 227<102.638 1173.36>
LayerCount: 2
Fore
SplineSet
950 0 m 9
 207 0 l 2
 152 0 111 26 111 53 c 3
 111 94 205 105 205 160 c 2
 205 1116 l 2
 205 1171 111 1182 111 1223 c 3
 111 1248 150 1276 205 1276 c 2
 432 1276 l 2
 485 1276 526 1250 526 1223 c 3
 526 1182 432 1171 432 1116 c 2
 432 37 l 9
 614 37 l 26
 749 37 839 121 913 217 c 0
 954 270 979 324 1024 324 c 0
 1053 324 1061 302 1061 279 c 3
 1061 222 1007 86 950 0 c 9
EndSplineSet
Validated: 1
EndChar

StartChar: P
Encoding: 80 80 7
Width: 1183
VWidth: 0
Flags: W
HStem: 0 21G<179.5 459.5> 420 31<477.125 594.121> 1245 31<525.185 687.788>
VStem: 205 227<102.638 1173.28> 868 250<662.624 1072.62>
LayerCount: 2
Fore
SplineSet
614 1245 m 27
 526 1245 432 1204 432 1116 c 2
 432 160 l 2
 432 105 526 94 526 53 c 3
 526 28 487 0 432 0 c 2
 207 0 l 2
 152 0 111 26 111 53 c 3
 111 94 205 105 205 160 c 2
 205 1116 l 2
 205 1171 111 1182 111 1223 c 3
 111 1248 150 1276 205 1276 c 2
 643 1276 l 2
 903 1276 1118 1194 1118 846 c 1
 1118 494 754 420 492 420 c 3
 488 420 477 426 477 434 c 27
 477 442 484 451 492 451 c 27
 699 451 868 616 868 823 c 27
 868 1016 807 1245 614 1245 c 27
EndSplineSet
Validated: 1
EndChar

StartChar: E
Encoding: 69 69 8
Width: 1165
VWidth: 0
Flags: W
HStem: 0 37<432 717.873> 664 43<432 650.977> 1241 37<432 656.873>
VStem: 205 227<102.638 664 707 1175.36>
LayerCount: 2
Fore
SplineSet
205 160 m 2
 205 1118 l 2
 205 1173 111 1184 111 1225 c 0
 111 1252 152 1278 207 1278 c 2
 889 1278 l 1
 946 1192 999 1056 999 999 c 0
 999 976 992 954 963 954 c 0
 918 954 893 1008 852 1061 c 0
 778 1157 688 1241 553 1241 c 2
 432 1241 l 1
 432 707 l 1
 623 707 l 2
 678 707 668 862 709 862 c 0
 734 862 739 762 739 707 c 2
 739 664 l 2
 739 611 736 508 709 508 c 0
 668 508 678 664 623 664 c 2
 432 664 l 1
 432 37 l 1
 614 37 l 2
 749 37 839 121 913 217 c 0
 954 270 979 324 1024 324 c 0
 1053 324 1061 302 1061 279 c 0
 1061 222 1007 86 950 0 c 1
 207 0 l 2
 152 0 111 26 111 53 c 0
 111 94 205 105 205 160 c 2
EndSplineSet
Validated: 1
EndChar

StartChar: Q
Encoding: 81 81 9
Width: 1447
VWidth: 0
Flags: W
HStem: -229 139<969.289 1206.42> -37 37<601.178 755.168> 1276 31<612.494 803.951>
VStem: 117 250<387.45 893.934> 1059 250<388.255 882>
LayerCount: 2
Fore
SplineSet
709 1307 m 2
 1059 1305 1309 987 1309 635 c 0
 1309 332 1122 56 848 -14 c 1
 897 -26 940 -43 983 -61 c 0
 1020 -75 1059 -90 1100 -90 c 0
 1172 -90 1229 -43 1241 20 c 1
 1319 -201 l 1
 1266 -219 1210 -229 1155 -229 c 0
 1014 -229 930 -165 844 -106 c 0
 795 -71 744 -37 670 -37 c 0
 582 -37 512 -96 512 -184 c 0
 512 -200 514 -217 520 -233 c 1
 414 -106 l 1
 469 -67 526 -36 592 -18 c 1
 305 43 117 330 117 641 c 0
 117 991 361 1307 707 1307 c 2
 709 1307 l 2
707 0 m 0
 715 0 723 0 731 0 c 0
 995 16 1059 309 1059 635 c 0
 1059 969 992 1274 707 1276 c 1
 702 1276 l 2
 423 1276 367 975 367 641 c 0
 367 307 424 2 707 0 c 0
EndSplineSet
Validated: 1
EndChar

StartChar: M
Encoding: 77 77 10
Width: 1626
VWidth: 0
Flags: W
HStem: 0 21G<1191.5 1471.5> 1256 20G<175.5 422 1192.05 1453.5>
VStem: 182 43<90.7564 830.243> 203 43<451.757 1159> 1200 227<314.982 1148.37> 1217 227<104.038 966.189>
LayerCount: 2
Fore
SplineSet
1200 1149 m 1xc8
 737 -33 l 1
 246 1159 l 1xd8
 225 123 l 2
 225 68 340 78 340 37 c 0
 340 12 280 6 225 6 c 2
 182 6 l 2
 129 6 68 10 68 37 c 0
 68 78 182 68 182 123 c 2xe0
 203 1159 l 2
 203.016949153 1159.47457627 203.02535191 1159.94434071 203.02535191 1160.40936573 c 0
 203.02535191 1214.81729388 88 1204.34745763 88 1245 c 0
 88 1270 148 1276 203 1276 c 2
 348 1276 l 2
 362 1276 377 1276 389 1276 c 0
 455 1276 485 1268 532 1159 c 2
 852 401 l 1
 1200 1276 l 1
 1427 1276 l 2
 1480 1276 1522 1250 1522 1223 c 0
 1522 1182 1427 1171 1427 1116 c 2xd8
 1444 160 l 2
 1444 105 1538 94 1538 53 c 0
 1538 28 1499 0 1444 0 c 2
 1219 0 l 2
 1164 0 1122 26 1122 53 c 0
 1122 94 1217 105 1217 160 c 2xc4
 1200 1149 l 1xc8
EndSplineSet
Validated: 1
EndChar

StartChar: A
Encoding: 65 65 11
Width: 1247
VWidth: 0
Flags: W
HStem: 0 21G<816.5 1049.5> 442 43<279 674> 1256 20G<394.5 637.5>
VStem: 782 334<30.8333 152>
LayerCount: 2
Back
SplineSet
690.764 442.368 m 10
 690.764 442.368 684.62 485.376 629.324 485.376 c 2
 -32.7676 485.376 l 9
 -32.7676 442.368 l 17
 690.764 442.368 l 10
2525.18 823.458 m 1
 2525.18 1157.87 l 2
2568.19 1157.87 m 2
 2568.19 823.458 l 1
2525.18 823.458 m 1
 2525.18 1157.87 l 2
 2525.18 1213.17 2410.5 1202.93 2410.5 1243.89 c 3
 2410.5 1268.46 2469.89 1274.61 2525.18 1274.61 c 2
 2568.19 1274.61 l 2
 2621.44 1274.61 2682.88 1270.51 2682.88 1243.89 c 3
 2682.88 1202.93 2568.19 1213.17 2568.19 1157.87 c 2
 2568.19 823.458 l 1
667.648 159.744 m 2
 688.792 108.484 573.44 94.208 573.44 53.248 c 0
 573.44 26.624 675.84 0 731.136 0 c 2
 956.416 0 l 2
 1011.71 0 1050.62 28.6719 1050.62 53.248 c 0
 1050.62 94.208 977.888 108.618 956.416 159.744 c 2
 548.864 1158.49 l 2
 496.343 1288.89 442.368 1275.21 348.16 1275.21 c 2
 202.752 1275.21 l 2
 147.456 1275.21 88.0645 1269.08 88.0645 1244.51 c 0
 88.0645 1203.55 222.247 1210.4 202.752 1158.49 c 2
 -186.368 122.3 l 2
 -186.368 66.8555 -301.056 77.2441 -301.056 36.2842 c 0
 -301.056 9.98828 -240.628 5.58008 -186.368 5.58008 c 2
 -143.36 5.58008 l 2
 -88.0645 5.58008 -28.6719 11.708 -28.6719 36.2842 c 0
 -28.6719 77.2441 -143.36 66.8496 -143.36 122.3 c 2
 245.76 1158.49 l 1
 667.648 159.744 l 2
EndSplineSet
Fore
SplineSet
780 160 m 2
 692 442 l 1
 262 442 l 1
 168 123 l 2
 168 119 166 117 166 115 c 0
 166 72 283 76 283 37 c 0
 283 12 223 6 168 6 c 2
 125 6 l 2
 72 6 10 10 10 37 c 0
 10 78 105 72 125 123 c 2
 422 1159 l 2
 422 1161 424 1165 424 1167 c 0
 424 1212 307 1206 307 1245 c 0
 307 1270 367 1276 422 1276 c 2
 557 1276 l 2
 577 1276 596 1276 610 1276 c 0
 665 1276 688 1265 721 1159 c 2
 1022 160 l 2
 1042 109 1116 94 1116 53 c 0
 1116 28 1077 0 1022 0 c 2
 844 0 l 2
 789 0 686 26 686 53 c 0
 686 92 782 105 782 150 c 0
 782 154 782 156 780 160 c 2
674 485 m 1
 465 1159 l 1
 279 485 l 1
 674 485 l 1
EndSplineSet
Validated: 1
EndChar

StartChar: a
Encoding: 97 97 12
Width: 944
VWidth: 0
Flags: W
HStem: -27 64<298.43 512.626> -25 99<745.757 849.76> 471 45<416.314 576.93> 819 37<408.116 528.802>
VStem: 115.93 166<109.907 359.328> 576.93 166<77.6279 469 508 755.455> 854.93 29<89.4841 102.313>
LayerCount: 2
Back
SplineSet
418.595 851.82 m 4
 457.046 851.82 492.796 848.255 525.841 841.12 c 132
 558.889 833.984 587.426 821.799 611.457 804.557 c 132
 635.492 787.316 654.269 763.981 667.785 734.554 c 132
 681.307 705.124 688.064 668.117 688.064 623.53 c 6
 688.064 57.2637 l 5
 793.508 34.9678 l 5
 793.508 -5.16016 l 5
 560.99 -5.16016 l 5
 543.867 78.666 l 5
 534.854 69.748 522.687 59.3438 507.365 47.4541 c 132
 492.044 35.5635 473.567 24.418 451.94 14.0117 c 132
 430.308 3.61035 405.224 -5.16016 376.687 -12.2939 c 132
 348.147 -19.4277 316.455 -22.9941 281.604 -22.9941 c 4
 240.749 -22.9941 206.353 -16.7539 178.412 -4.26758 c 132
 150.474 8.21777 128.094 25.6055 111.271 47.9004 c 132
 94.4502 70.1943 82.4316 96.6484 75.2197 127.266 c 132
 68.0117 157.884 64.4082 191.028 64.4082 226.697 c 4
 64.4082 263.557 68.9121 295.512 77.9258 322.562 c 132
 86.9404 349.612 99.5557 372.351 115.778 390.781 c 132
 132.002 409.211 151.078 424.223 173.006 435.816 c 132
 194.936 447.408 218.669 456.475 244.201 463.012 c 132
 269.74 469.553 296.775 474.012 325.316 476.39 c 132
 353.854 478.768 382.544 480.254 411.382 480.85 c 6
 538.458 484.416 l 5
 538.458 615.504 l 6
 538.458 640.473 536.356 663.214 532.15 683.723 c 132
 527.943 704.233 520.884 721.92 510.97 736.784 c 132
 501.058 751.646 487.688 763.238 470.866 771.562 c 132
 454.042 779.885 433.015 784.048 407.777 784.048 c 4
 378.938 784.048 349.801 780.182 320.36 772.454 c 132
 290.918 764.724 265.083 754.618 242.854 742.134 c 5
 212.21 637.799 l 5
 161.74 637.799 l 5
 161.74 820.609 l 5
 200.794 828.933 241.199 836.217 282.958 842.457 c 132
 324.715 848.697 369.928 851.82 418.595 851.82 c 4
538.458 421.992 m 5
 420.395 418.427 l 6
 384.946 417.237 354.306 413.819 328.471 408.171 c 132
 302.635 402.522 281.303 392.861 264.482 379.186 c 132
 247.66 365.517 235.043 346.788 226.63 323.009 c 132
 218.219 299.225 214.012 268.906 214.012 232.049 c 4
 214.012 127.414 256.973 75.0977 342.891 75.0977 c 4
 383.748 75.0977 419.043 79.7061 448.784 88.9219 c 132
 478.525 98.1338 508.416 109.878 538.458 124.144 c 5
 538.458 421.992 l 5
694.088 189.236 m 0
 693.047 169.636 692.311 149.718 696.949 130.646 c 0
 701.588 111.576 712.2 93.4023 728.679 82.7402 c 0
 736.496 77.6797 745.477 74.3838 754.735 73.3936 c 0
 763.996 72.4023 773.507 73.7324 782.103 77.3203 c 0
 790.696 80.9082 798.339 86.75 804.032 94.1221 c 0
 809.722 101.494 813.441 110.376 814.694 119.604 c 1
 843.366 86.8359 l 1
 839.426 64.8984 829.893 43.9922 815.926 26.624 c 0
 801.958 9.25391 783.59 -4.53027 763.044 -13.1719 c 0
 742.5 -21.8145 719.839 -25.2979 697.629 -23.4678 c 0
 675.416 -21.6396 653.707 -14.5303 634.471 -3.27637 c 0
 611.791 9.99219 592.624 28.9316 578.001 50.7637 c 0
 563.374 72.5938 553.216 97.2344 546.572 122.658 c 0
 533.285 173.504 533.772 226.794 534.118 279.348 c 2
 536.166 590.644 l 2
 536.287 609.229 537.099 627.798 538.215 646.349 c 0
 539.832 673.208 540.973 700.429 535.492 726.77 c 0
 530.01 753.113 517.441 778.474 497.255 796.263 c 0
 483.119 808.719 465.486 817.232 446.88 820.186 c 0
 428.271 823.141 408.873 820.509 391.565 813.059 c 0
 374.262 805.607 359.155 793.473 347.218 778.897 c 0
 335.282 764.322 326.472 747.403 319.488 729.907 c 0
 309 703.634 302.465 675.862 291.063 649.97 c 0
 285.366 637.024 278.403 624.561 269.494 613.577 c 0
 260.581 602.589 249.682 593.123 237.158 586.547 c 0
 215.609 575.23 189.106 573.282 166.568 582.472 c 0
 144.032 591.663 126.392 611.51 118.752 634.62 c 0
 111.11 657.728 113.112 683.432 121.92 706.122 c 0
 130.728 728.812 145.928 748.654 163.84 765.133 c 0
 196.2 794.904 236.679 814.627 278.247 828.965 c 0
 319.815 843.305 363.264 852.328 407.143 855.184 c 0
 472.359 859.431 540.104 848.738 595.757 814.478 c 0
 623.583 797.348 647.952 774.451 666.024 747.228 c 0
 684.098 720.003 695.712 688.572 700.007 656.18 c 0
 701.896 641.938 702.165 627.536 702.055 613.171 c 2
 700.007 344.883 l 2
 699.609 292.956 696.84 241.091 694.088 189.236 c 0
  Spiro
    694.088 189.235 c
    728.678 82.7392 o
    814.694 119.603 v
    843.366 86.8352 v
    634.47 -3.2768 o
    534.118 279.347 [
    536.166 590.643 ]
    538.214 646.349 o
    497.254 796.262 o
    319.488 729.907 o
    237.158 586.547 o
    163.84 765.133 o
    407.142 855.185 o
    700.006 656.179 o
    702.054 613.171 [
    700.006 344.883 ]
    0 0 z
  EndSpiro
579.175 572.211 m 1
 573.03 527.155 l 1
 512.889 541.672 447.627 533.308 392.807 504.627 c 0
 341.504 477.788 299.651 433.899 273.396 382.294 c 0
 247.143 330.688 235.76 271.161 243.712 213.812 c 0
 249.315 173.394 265.055 133.982 291.427 102.846 c 0
 317.801 71.71 354.863 49.8877 394.854 41.7803 c 0
 426.531 35.3564 459.506 37.0596 491.11 43.8281 c 0
 530.254 52.21 567.712 67.9297 601.819 88.8838 c 1
 605.799 62.2598 l 1
 586.629 54.1943 567.513 46.002 548.454 37.6836 c 0
 506.82 19.5137 465.224 0.776367 421.479 -11.4678 c 0
 379.757 -23.1475 335.969 -28.7344 292.907 -23.9199 c 0
 249.85 -19.1064 207.807 -3.72754 172.794 21.7959 c 0
 137.782 47.3184 110.14 82.8223 93.9863 123.024 c 0
 77.832 163.229 73.1836 207.807 79.4619 250.675 c 0
 88.8857 315.009 122.54 374.434 168.218 420.713 c 0
 213.894 466.987 270.961 501.045 331.366 525.107 c 0
 409.924 556.398 494.619 571.611 579.175 572.211 c 1
  Spiro
    579.174 572.211 v
    573.03 527.155 v
    392.806 504.627 o
    243.712 213.811 o
    394.854 41.7792 o
    491.11 43.8272 o
    601.821 88.8832 v
    605.798 62.2592 v
    548.454 37.6832 c
    421.478 -11.4688 o
    79.4624 250.675 o
    331.366 525.107 o
    0 0 z
  EndSpiro
2699.26 1005.57 m 0
  Spiro
    2699.26 1005.57 {
    0 0 z
  EndSpiro
EndSplineSet
Fore
SplineSet
733.93 180 m 4xbe
 733.93 127 756.93 74 801.93 74 c 4
 830.93 74 850.93 92 854.93 119 c 5
 883.93 86 l 5
 871.93 23 814.93 -25 748.93 -25 c 4x7e
 691.93 -25 642.93 14 617.93 51 c 5
 543.93 20 465.93 -27 367.93 -27 c 7
 228.93 -27 115.93 70 115.93 211 c 7
 115.93 404 303.93 516 496.93 516 c 7
 525.93 516 553.93 514 576.93 508 c 5
 576.93 616 l 6
 576.93 714 565.93 819 473.93 819 c 7
 315.93 819 338.93 590 236.93 590 c 7
 191.93 590 154.93 617 154.93 666 c 7
 154.93 783 342.93 856 473.93 856 c 7
 624.670003588 856 742.954843287 771.419875925 742.954843287 615.914348925 c 4
 742.954843287 614.614518745 742.9465789 613.309733112 742.93 612 c 6
 742.93 344 l 6
 742.93 289 733.93 235 733.93 180 c 4xbe
576.93 469 m 5
 566.93 469 553.93 471 543.93 471 c 7
 389.93 471 281.93 400 281.93 250 c 7
 281.93 133 354.93 37 475.93 37 c 7xbe
 524.93 37 569.93 52 606.93 70 c 5
 577.93 123 576.93 203 576.93 279 c 6
 576.93 469 l 5
EndSplineSet
Validated: 1
EndChar

StartChar: b
Encoding: 98 98 13
Width: 1021
VWidth: 0
Flags: W
HStem: -2 55<385.099 578.523> 717 143<545.881 689.102> 1399 20G<353 372>
VStem: 111 260<64.7433 99.872 1216.21 1311.33> 205 166<102.638 627.292 633 1213.78> 723 180<183.135 683.607>
LayerCount: 2
Back
SplineSet
350.208 491.52 m 0
 380.565 550.769 405.594 612.637 436.224 671.744 c 0
 454.05 706.143 474.37 739.481 499.786 768.723 c 0
 525.201 797.967 555.909 823.007 591.098 839.215 c 0
 626.289 855.421 665.889 862.443 704.338 857.672 c 0
 742.785 852.897 779.581 836.264 808.96 811.008 c 0
 844.21 780.704 868.266 738.834 882.317 694.523 c 0
 896.371 650.213 901.316 603.505 903.168 557.056 c 0
 907.941 437.285 906.123 314.464 868.352 200.704 c 0
 853.101 154.77 829.581 110.968 795.482 76.6201 c 0
 761.383 42.2725 716.919 18.7988 669.696 8.19238 c 0
 623.53 -2.17676 575.664 -1.82227 528.384 0 c 0
 496.47 1.22949 464.521 3.21289 432.98 8.24023 c 0
 401.44 13.2676 370.168 21.7822 342.016 36.8643 c 0
 304.064 57.1953 272.81 90.2061 256.065 129.871 c 0
 239.319 169.536 237.068 214.377 244.996 256.696 c 0
 252.924 299.014 270.25 338.997 289.706 377.405 c 0
 309.162 415.813 330.574 453.202 350.208 491.52 c 0
  Spiro
    350.208 491.52 o
    436.224 671.744 o
    808.96 811.008 o
    903.168 557.056 o
    868.352 200.704 o
    669.696 8.192 o
    528.384 0 o
    342.016 36.864 o
    0 0 z
  EndSpiro
358.4 393.216 m 0
 333.718 341.571 311.413 286.929 310.669 229.693 c 0
 310.299 201.076 315.599 172.203 327.797 146.312 c 0
 339.994 120.422 359.153 97.7812 382.976 81.9199 c 0
 405.752 66.7559 432.523 57.875 459.778 55.4668 c 0
 487.033 53.0586 514.697 56.9365 540.672 65.5361 c 0
 581.008 78.8887 617.4 103.439 645.943 134.912 c 0
 674.486 166.385 694.864 204.913 706.561 245.76 c 0
 720.906 295.86 722.598 348.627 722.799 400.74 c 0
 722.999 452.854 723.994 505.035 720.896 557.056 c 0
 718.971 589.363 714.373 622.203 699.992 651.196 c 0
 692.802 665.692 683.137 679.045 671.029 689.778 c 0
 658.922 700.515 644.373 708.538 628.736 712.704 c 0
 602.299 719.747 573.432 715.159 549.262 702.341 c 0
 525.093 689.522 505.5 669.34 489.472 647.168 c 0
 461.546 608.534 442.344 564.419 421.641 521.48 c 0
 400.937 478.542 378.956 436.227 358.4 393.216 c 0
  Spiro
    358.4 393.216 o
    382.976 81.92 o
    540.672 65.536 o
    706.56 245.76 o
    720.896 557.056 o
    628.736 712.704 o
    489.472 647.168 o
    0 0 z
  EndSpiro
204.8 159.744 m 2
 204.8 1161.22 l 2
 204.8 1214.32 110.592 1218.56 110.592 1259.52 c 0
 110.592 1314.29 344.353 1419.16 361.804 1419.16 c 0
 382.841 1419.16 389.438 1405.9 389.438 1387.64 c 0
 389.438 1356.89 370.729 1311.96 370.729 1292.29 c 2
 370.729 159.744 l 2
 370.729 104.292 464.937 94.208 464.937 53.248 c 0
 464.937 28.6719 426.025 0.00390625 370.729 0.00390625 c 2
 204.8 0.0166016 l 2
 150.544 0.663086 110.592 26.9541 110.592 53.248 c 0
 110.592 94.208 204.8 104.292 204.8 159.744 c 2
  Spiro
    204.8 159.744 [
    204.8 1161.22 ]
    180.418 1201.17 o
    134.974 1227.66 o
    110.592 1259.52 o
    171.737 1325.18 o
    289.03 1390 o
    361.804 1419.16 o
    378.307 1415.06 o
    386.953 1403.91 o
    389.437 1387.64 o
    384.596 1353.66 o
    375.57 1318.89 o
    370.729 1292.29 [
    370.729 159.744 ]
    395.11 116.624 o
    440.556 86.7111 o
    464.937 53.248 o
    452.825 28.545 o
    419.686 8.3312 o
    370.729 0.00399999 [
    204.8 0.0161942 ]
    156.304 8.24662 o
    122.936 27.9282 o
    110.592 53.248 o
    134.974 86.7111 o
    180.418 116.624 o
    0 0 z
  EndSpiro
EndSplineSet
Fore
SplineSet
205 160 m 2xec
 205 1161 l 2xec
 205 1214 111 1219 111 1260 c 0
 111 1315 344 1419 362 1419 c 0
 382 1419 389 1407 389 1389 c 0
 389 1358 371 1312 371 1292 c 2xf4
 371 633 l 1
 439 719.900024414 473 785 592 840 c 0
 621 854 651 860 680 860 c 0
 729 860 774 842 809 811 c 0
 872 756 899 666 903 557 c 0
 903 534 903 510 903 485 c 0
 903 327 881 162 795 76 c 0
 740 19 657 -2 557 -2 c 2
 205 -2 l 2xec
 152 -2 111 26 111 53 c 0xf4
 111 94 205 105 205 160 c 2xec
371 568 m 1
 371 90 l 1xf4
 400 67 436 53 477 53 c 0
 598 53 680 150 707 246 c 0
 721 295 723 346 723 399 c 0
 723 428 723 458 723 489 c 3
 723 595 713 717 602 717 c 0
 551 717 517 711.900024414 483 685.900390625 c 0
 416.420335279 634.987246491 421 634.900390625 371 568 c 1
EndSplineSet
Validated: 1
EndChar

StartChar: C
Encoding: 67 67 14
Width: 1447
VWidth: 0
Flags: W
HStem: -31 31<613.518 862.15> 1276 29<617.879 858.205>
VStem: 117 250<386.653 897.244> 1100 168<916.23 1073.38>
LayerCount: 2
Fore
SplineSet
709 0 m 23
 1035 0 1022 143 1098 295 c 4
 1129 354 1184 401 1229 401 c 4
 1258 401 1266 379 1266 356 c 4
 1266 299 1243 154 1155 78 c 4
 1063 -2 887 -31 709 -31 c 31
 361 -31 117 289 117 641 c 4
 117 979 332 1305 668 1305 c 31
 863 1305 1065 1276 1157 1196 c 4
 1245 1120 1268 975 1268 918 c 4
 1268 895 1260 872 1231 872 c 4
 1186 872 1129 918 1100 979 c 4
 1004 1180 1014 1276 688 1276 c 7
 479 1276 367 969 367 641 c 4
 367 307 426 0 709 0 c 23
EndSplineSet
Validated: 1
EndChar

StartChar: h
Encoding: 104 104 15
Width: 1021
VWidth: 0
Flags: W
HStem: 0 21G<179.5 398.5 711.5 930.5> 717 143<550.246 684.986> 1399 20G<353 372>
VStem: 205 166<102.638 513.338 532 1213.78> 737 166<102.638 660.785>
LayerCount: 2
Fore
SplineSet
903 451 m 2
 903 160 l 2
 903 105 997 94 997 53 c 0
 997 28 958 0 903 0 c 2
 739 0 l 2
 684 0 643 26 643 53 c 0
 643 94 737 105 737 160 c 2
 737 451 l 2
 737 557 713 717 602 717 c 0
 551 717 512 678 489 647 c 0
 440 579 408 494 371 418 c 1
 371 160 l 2
 371 105 465 94 465 53 c 0
 465 28 426 0 371 0 c 2
 207 0 l 2
 152 0 111 26 111 53 c 0
 111 94 205 105 205 160 c 2
 205 1161 l 2
 205 1214 111 1219 111 1260 c 0
 111 1315 344 1419 362 1419 c 0
 382 1419 389 1407 389 1389 c 0
 389 1358 371 1312 371 1292 c 2
 371 532 l 1
 426 649 473 785 592 840 c 0
 621 854 651 860 680 860 c 0
 729 860 774 842 809 811 c 0
 872 756 899 666 903 557 c 0
 903 534 903 476 903 451 c 2
EndSplineSet
Validated: 1
EndChar

StartChar: e
Encoding: 101 101 16
Width: 1026
VWidth: 0
Flags: W
HStem: -29 68<449.012 783.429> 446 31<311 621.408> 823 31<466.386 602.669>
VStem: 129 180<177.163 446 477 638.444> 723 174<531.343 732.912>
LayerCount: 2
Back
SplineSet
235.52 497.664 m 29
 233.472 466.944 l 29
 577.536 466.788 l 29
 579.584 497.509 l 29
 235.52 497.664 l 29
EndSplineSet
Fore
SplineSet
723 643 m 0
 723 735 632 823 530 823 c 0
 493 823 457 807 428 782 c 0
 354 721 321 594 311 477 c 1
 543 477 l 2
 647 477 721 541 723 643 c 0
831 94 m 1
 860 45 l 1
 778 -4 731 -27 584 -29 c 0
 533 -29 436 -22 387 -8 c 0
 217 45 129 185 129 406 c 0
 129 625 215 779 381 834 c 0
 426 848 475 854 522 854 c 0
 585 854 643 843 700 825 c 0
 790 796 897 733 897 614 c 0
 897 462 723 446 571 446 c 2
 309 446 l 1
 309 430 309 415 309 401 c 0
 309 309 319 234 348 162 c 0
 373 99 480 41 586 39 c 0
 594 39 604 39 612 39 c 0
 727 39 786 53 831 94 c 1
EndSplineSet
Validated: 1
EndChar

StartChar: o
Encoding: 111 111 17
Width: 1028
VWidth: 0
Flags: W
HStem: -29 31<447.274 575.384> 823 31<450.174 579.608>
VStem: 109 184<174.742 641.233> 735 185<182.178 635.621>
LayerCount: 2
Fore
SplineSet
293 406 m 3
 293 94.9742775911 407 2 516 2 c 0
 627 2 735 129 735 410 c 0
 735 703 623 823 514 823 c 0
 400.908235596 823 293 703.529286444 293 406 c 3
512 854 m 0
 719 854 918 746 920 408 c 0
 920 406 920 405 920 403 c 0
 920 86 721 -29 516 -29 c 0
 311 -29 109 71 109 403 c 0
 109 745 303 854 512 854 c 0
EndSplineSet
Validated: 1
EndChar

StartChar: n
Encoding: 110 110 18
Width: 1036
VWidth: 0
Flags: W
HStem: 0 21G<179.5 398.5 711.5 930.5> 717 143<545.927 684.986>
VStem: 205 166<102.638 631.535> 737 166<102.638 660.785>
LayerCount: 2
Fore
SplineSet
903 451 m 2
 903 160 l 2
 903 105 997 94 997 53 c 0
 997 28 958 0 903 0 c 2
 739 0 l 2
 684 0 643 26 643 53 c 0
 643 94 737 105 737 160 c 2
 737 451 l 2
 737 557 713 717 602 717 c 0
 473 717 420 647 371 569 c 1
 371 160 l 2
 371 105 465 94 465 53 c 0
 465 28 426 0 371 0 c 2
 207 0 l 2
 152 0 111 26 111 53 c 0
 111 94 205 105 205 160 c 2
 205 602 l 2
 205 655 111 659 111 700 c 0
 111 755 344 860 362 860 c 0
 382 860 389 847 389 829 c 0
 389 798 371 753 371 733 c 2
 371 655 l 1
 410 716 473 785 592 840 c 0
 621 854 651 860 680 860 c 0
 729 860 774 842 809 811 c 0
 872 756 899 666 903 557 c 0
 903 534 903 476 903 451 c 2
EndSplineSet
Validated: 1
EndChar

StartChar: m
Encoding: 109 109 19
Width: 1640
VWidth: 0
Flags: W
HStem: 0 21G<179.5 398.5 711.5 930.5 1244.5 1463.5> 717 143<545.927 684.986> 733 127<1035.98 1214.9>
VStem: 205 166<102.638 631.535> 737 166<102.638 660.785> 1270 166<102.638 670.766>
LayerCount: 2
Fore
SplineSet
737 451 m 2xbc
 737 557 713 717 602 717 c 0xdc
 473 717 420 647 371 569 c 1
 371 160 l 2
 371 105 465 94 465 53 c 0
 465 28 426 0 371 0 c 2
 207 0 l 2
 152 0 111 26 111 53 c 0
 111 94 205 105 205 160 c 2
 205 602 l 2
 205 655 111 659 111 700 c 0
 111 755 344 860 362 860 c 0
 382 860 389 847 389 829 c 0
 389 798 371 753 371 733 c 2xbc
 371 655 l 1
 410 716 473 785 592 840 c 0
 621 854 651 860 680 860 c 0xdc
 729 860 774 842 809 811 c 0
 854 772 865 758 881 725 c 1
 934 764 1083 860 1212 860 c 0
 1261 860 1306 842 1341 811 c 0
 1404 756 1432 666 1436 557 c 0
 1436 534 1436 476 1436 451 c 2
 1436 160 l 2
 1436 105 1530 94 1530 53 c 0
 1530 28 1491 0 1436 0 c 2
 1272 0 l 2
 1217 0 1176 26 1176 53 c 0
 1176 94 1270 105 1270 160 c 2
 1270 451 l 2
 1270 557 1246 733 1135 733 c 0
 1041 733 967 713 897 664 c 1
 903 567 l 1
 903 160 l 2
 903 105 997 94 997 53 c 0
 997 28 958 0 903 0 c 2
 739 0 l 2
 684 0 643 26 643 53 c 0
 643 94 737 105 737 160 c 2
 737 451 l 2xbc
EndSplineSet
Validated: 1
EndChar

StartChar: x
Encoding: 120 120 20
Width: 954
VWidth: 0
Flags: W
HStem: 2 19G<147.5 263.5 607.5 821.5> 805 20G<133.5 346.5 659.5 766.5>
VStem: 74 207<12.8828 100> 539 323<22.168 139>
LayerCount: 2
Back
SplineSet
1869 66 m 1
 1979 45 l 1
 1979 0 l 1
 1553 0 l 1
 1553 45 l 1
 1678 68 l 1
 1461 401 l 1
 1207 66 l 1
 1336 45 l 1
 1336 0 l 1
 998 0 l 1
 998 45 l 1
 1107 61 l 1
 1416 469 l 1
 1144 870 l 1
 1033 895 l 1
 1033 940 l 1
 1459 940 l 1
 1459 895 l 1
 1334 868 l 1
 1515 598 l 1
 1723 870 l 1
 1594 895 l 1
 1594 940 l 1
 1932 940 l 1
 1932 895 l 1
 1824 874 l 1
 1560 532 l 1
 1869 66 l 1
256 115.872 m 2
 605.732 708.233 l 2
 638.003 763.436 521.493 753.289 545.017 794.249 c 0
 560.118 820.541 624 824.934 676.855 824.951 c 2
 719.872 824.965 l 2
 775.168 824.965 831.514 818.825 817.4 794.249 c 0
 793.877 753.289 689.203 763.436 656.933 708.233 c 2
 307.2 115.872 l 2
 274.522 60.5225 390.688 70.8164 368.16 29.8555 c 0
 353.824 3.23242 288.768 -0.864258 235.52 -0.864258 c 2
 192.512 -0.864258 l 2
 137.216 -0.864258 81.4404 5.28027 95.7764 29.8555 c 0
 118.304 70.8164 223.322 60.5225 256 115.872 c 2
2402.3 824.3 m 1
 2402.3 1158.02 l 2
 2402.3 1213.47 2287.62 1203.07 2287.62 1244.03 c 3
 2287.62 1268.61 2347.01 1274.75 2402.3 1274.75 c 2
 2445.31 1274.74 l 2
 2499.56 1274.72 2560 1270.33 2560 1244.03 c 3
 2560 1203.07 2445.31 1213.47 2445.31 1158.02 c 2
 2445.31 824.293 l 1
424.532 665.394 m 2
 721.156 161.518 l 2
 753.354 106.066 821.13 95.9824 844.911 55.0225 c 0
 860.372 28.3984 854.872 1.77441 799.576 1.77441 c 2
 635.695 1.77441 l 2
 580.399 1.77441 504.841 30.4463 490.568 55.0225 c 0
 466.785 95.9824 563.18 106.26 530.651 161.518 c 2
 234.027 665.394 l 2
 203.208 721.627 134.052 730.929 110.27 771.889 c 0
 94.8125 798.514 100.312 825.137 155.608 825.137 c 2
 319.488 825.137 l 2
 374.784 825.137 450.344 796.465 464.617 771.889 c 0
 488.398 730.929 392.331 720.847 424.532 665.394 c 2
EndSplineSet
Fore
SplineSet
424 346 m 1
 287 117 l 2
 283 111 281 102 281 98 c 0
 281 65 350 72 350 45 c 0
 350 6 289 0 238 0 c 2
 172 0 l 2
 123 0 74 5 74 23 c 0
 74 68 207 68 236 117 c 2
 399 389 l 1
 233 666 l 2
 202 719 74 727 74 780 c 0
 74 800 111 825 156 825 c 2
 319 825 l 2
 374 825 449 809 449 770 c 0
 449 747 416 721 416 692 c 0
 416 684 418 676 424 666 c 2
 516 518 l 1
 627 709 l 2
 631 717 633 723 633 729 c 0
 633 758 582 753 582 776 c 0
 582 815 633 825 686 825 c 2
 741 825 l 2
 792 825 860 821 860 801 c 0
 860 760 705 756 678 709 c 2
 541 475 l 1
 721 162 l 2
 752 109 862 94 862 39 c 0
 862 19 844 2 799 2 c 2
 635 2 l 2
 580 2 506 12 506 51 c 0
 506 74 539 106 539 135 c 0
 539 143 536 152 530 162 c 2
 424 346 l 1
EndSplineSet
Validated: 1
EndChar

StartChar: F
Encoding: 70 70 21
Width: 1107
VWidth: 0
Flags: W
HStem: 0 21G<179.5 459.5> 625 43<432 695.977> 803 20G<733.5 766.5> 1241 37<432 656.873>
VStem: 205 227<102.638 625 668 1175.36>
LayerCount: 2
Fore
SplineSet
205 1118 m 2
 205 1173 111 1184 111 1225 c 0
 111 1252 152 1278 207 1278 c 2
 889 1278 l 1
 946 1192 999 1056 999 999 c 0
 999 976 992 954 963 954 c 0
 918 954 893 1008 852 1061 c 0
 778 1157 688 1241 553 1241 c 2
 432 1241 l 1
 432 668 l 1
 668 668 l 2
 723 668 713 823 754 823 c 0
 779 823 784 723 784 668 c 2
 784 625 l 2
 784 572 781 469 754 469 c 0
 713 469 723 625 668 625 c 2
 432 625 l 1
 432 160 l 26
 432 105 526 94 526 53 c 0
 526 28 487 0 432 0 c 2
 207 0 l 2
 152 0 111 26 111 53 c 0
 111 94 205 105 205 160 c 26
 205 1118 l 2
EndSplineSet
Validated: 1
EndChar

StartChar: H
Encoding: 72 72 22
Width: 1353
VWidth: 0
Flags: W
HStem: 0 21G<179.5 459.5 875.5 1155.5> 680 43<432 901> 1256 20G<177.5 458.5 873.5 1154.5>
VStem: 205 227<102.638 680 723 1173.36> 901 227<104.038 680 723 1171.96>
LayerCount: 2
Fore
SplineSet
205 160 m 2
 205 1116 l 2
 205 1171 111 1182 111 1223 c 0
 111 1248 150 1276 205 1276 c 2
 432 1276 l 2
 485 1276 526 1250 526 1223 c 0
 526 1182 432 1171 432 1116 c 2
 432 723 l 1
 901 723 l 1
 901 1116 l 2
 901 1171 807 1182 807 1223 c 0
 807 1248 846 1276 901 1276 c 2
 1128 1276 l 2
 1181 1276 1223 1250 1223 1223 c 0
 1223 1182 1128 1171 1128 1116 c 2
 1128 160 l 2
 1128 105 1223 94 1223 53 c 0
 1223 28 1183 0 1128 0 c 2
 903 0 l 2
 848 0 807 26 807 53 c 0
 807 94 901 105 901 160 c 2
 901 680 l 1
 432 680 l 1
 432 160 l 2
 432 105 526 94 526 53 c 0
 526 28 487 0 432 0 c 2
 207 0 l 2
 152 0 111 26 111 53 c 0
 111 94 205 105 205 160 c 2
EndSplineSet
Validated: 1
EndChar

StartChar: S
Encoding: 83 83 23
Width: 1267
VWidth: 0
Flags: W
HStem: -29 29<578.877 757.406> 1270 34<491.147 713.546>
VStem: 134 168<205.765 361.226> 154 178<899.331 1093.87> 870 227<152.604 364.146> 910 168<920.485 1079.01>
LayerCount: 2
Back
SplineSet
860.844 -0.150391 m 7
 534.247 -0.150391 544.961 95.8018 448.707 296.506 c 4
 419.655 357.079 362.69 403.001 317.635 403.001 c 4
 288.267 403.001 280.771 380.649 280.771 357.945 c 4
 280.771 300.02 302.789 155.672 391.362 79.418 c 4
 483.521 0.0800781 685.183 -29.1377 880.64 -29.1377 c 28
687.637 1275.6 m 3
 1014.23 1275.6 1003.52 1179.65 1099.77 978.944 c 0
 1128.83 918.37 1185.79 872.448 1230.85 872.448 c 0
 1260.21 872.448 1267.71 894.8 1267.71 917.504 c 0
 1267.71 975.43 1245.69 1119.78 1157.12 1196.03 c 0
 1064.96 1275.37 863.298 1304.59 667.841 1304.59 c 24
  Spiro
    708.608 0 o
    494.154 91.6566 o
    392.237 326.394 o
    366.592 641.024 o
    403.266 950.583 o
    511.572 1183.91 o
    687.637 1275.6 o
    918.1 1243.36 o
    1022.8 1144.92 o
    1099.77 978.944 o
    1136.61 924.459 o
    1183.34 886.571 o
    1230.85 872.448 o
    1253.44 879.071 o
    1264.69 895.752 o
    1267.71 917.504 o
    1258.74 998.416 o
    1225.11 1102.91 o
    1157.12 1196.03 o
    1032.9 1259.39 o
    860.893 1294.1 o
    667.841 1304.59 o
    375.693 1207.66 o
    184.726 962.609 o
    116.736 641.024 o
    192.446 311.009 o
    400.239 65.1768 o
    708.608 -30.718 o
    883.352 -20.3484 o
    1038.32 14.2331 o
    1155.07 77.824 o
    1222.83 170.865 o
    1256.58 275.593 o
    1265.66 356.352 o
    1262.49 378.026 o
    1251.08 394.746 o
    1228.8 401.408 o
    1181.67 387.023 o
    1135.31 348.871 o
    1097.73 294.912 o
    1035.81 151.228 o
    937.658 42.7 o
    0 0 z
  EndSpiro
452.605 1036.29 m 2
  Spiro
    452.606 1036.29 {
    0 0 z
  EndSpiro
EndSplineSet
Fore
SplineSet
720 -29 m 0xd8
 539 -29 336 0 244 79 c 0
 155 155 134 300 134 358 c 0
 134 381 142 403 171 403 c 0
 216 403 277 359 302 297 c 0
 388 82 506 0 700 -0 c 19
 807 0 870 123 870 232 c 0xe8
 870 466 569 513 408 587 c 0
 283 644 154 756 154 932 c 0
 154 1170 393 1304 624 1304 c 0
 755 1304 885 1267 967 1196 c 0
 1056 1120 1078 976 1078 918 c 0
 1078 895 1080 872 1051 872 c 0
 1006 872 939 918 910 979 c 0xd4
 816 1176 828 1270 570 1270 c 0
 450 1270 332 1162 332 1033 c 0
 332 863 489 808 615 758 c 0
 808 680 1097 582 1097 311 c 0
 1097 110 908 -29 720 -29 c 0xd8
EndSplineSet
Validated: 1
EndChar

StartChar: D
Encoding: 68 68 24
Width: 1310
VWidth: 0
Flags: W
HStem: 2 31<432 707.243> 1245 31<432 707.076>
VStem: 205 227<102.638 1173.36> 956 250<400.968 870.214>
LayerCount: 2
Fore
SplineSet
598 33 m 19
 901 33 956 301 956 635 c 0
 956 969 915 1245 602 1245 c 9
 432 1245 l 17
 432 33 l 9
 498 33 532 33 598 33 c 19
598 2 m 18
 207 2 l 2
 152 2 111 26 111 53 c 3
 111 94 205 105 205 160 c 2
 205 1116 l 2
 205 1171 111 1182 111 1223 c 3
 111 1248 150 1276 205 1276 c 2
 604 1276 l 26
 946 1276 1206 987 1206 635 c 0
 1206 283 940 2 598 2 c 18
EndSplineSet
Validated: 1
EndChar

StartChar: G
Encoding: 71 71 25
Width: 1447
VWidth: 0
Flags: W
HStem: -6 31<618.159 1012.44> 1276 29<617.879 858.205>
VStem: 117 250<405.027 897.244> 979 227<61.7981 560.885> 1100 168<916.23 1073.38>
LayerCount: 2
Fore
SplineSet
709 25 m 3xe8
 830 25 889 34 934 61 c 0
 971 84 979 97 979 160 c 2
 979 504 l 2
 979 559 885 569 885 610 c 3
 885 635 924 664 979 664 c 2
 1206 664 l 2
 1259 664 1300 637 1300 610 c 3
 1300 569 1206 559 1206 504 c 2
 1206 70 l 2xf0
 1206 25 1180 0 1147 0 c 0
 1028 -2 861 -4 709 -6 c 1
 390 -4 117 289 117 641 c 0
 117 979 332 1305 668 1305 c 27
 863 1305 1065 1276 1157 1196 c 0
 1245 1120 1268 975 1268 918 c 0
 1268 895 1260 872 1231 872 c 0
 1186 872 1129 918 1100 979 c 0
 1004 1180 1014 1276 688 1276 c 3
 479 1276 367 969 367 641 c 0
 367 307 435 25 709 25 c 3xe8
EndSplineSet
Validated: 1
EndChar

StartChar: R
Encoding: 82 82 26
Width: 1183
VWidth: 0
Flags: W
HStem: -25 99<1025.18 1101.54> 0 21G<179.5 459.5> 502 30<432 524.682> 1245 31<525.629 677.312>
VStem: 205 227<102.638 502 532 1173.28> 796 224<79.3121 453.112> 807 250.026<767.125 1072.24> 1124 29<89.4841 102.313>
LayerCount: 2
Back
SplineSet
614.4 1245.18 m 27
 526.336 1245.18 432.128 1204.22 432.128 1116.16 c 2
 432.128 159.744 l 2
 432.128 104.448 526.336 94.208 526.336 53.248 c 3
 526.336 28.6719 487.424 0 432.128 0 c 2
 206.848 0 l 2
 151.552 0 110.592 26.624 110.592 53.248 c 3
 110.592 94.208 204.8 104.448 204.8 159.744 c 2
 204.8 1116.16 l 2
 204.8 1171.46 110.592 1181.7 110.592 1222.66 c 3
 110.592 1247.23 149.504 1275.9 204.8 1275.9 c 2
 643.072 1275.9 l 2
 903.168 1275.9 1118.21 1193.98 1118.21 845.824 c 1
 1118.21 493.568 753.664 419.84 491.52 419.84 c 3
 487.424 419.84 477.184 425.984 477.184 434.176 c 27
 477.184 442.368 483.328 450.56 491.52 450.56 c 27
 698.368 450.56 868.352 616.448 868.352 823.296 c 27
 868.352 1015.81 806.912 1245.18 614.4 1245.18 c 27
602.112 32.7676 m 19
 905.216 32.7676 960.512 301.056 960.512 634.88 c 0
 960.512 968.704 919.552 1245.18 606.208 1245.18 c 9
 436.224 1245.18 l 17
 436.224 32.7676 l 9
 501.76 32.7676 536.576 32.7676 602.112 32.7676 c 19
602.112 2.04785 m 18
 210.944 0 l 2
 155.648 0 114.688 26.624 114.688 53.248 c 3
 114.688 94.208 208.896 104.448 208.896 159.744 c 2
 208.896 1116.16 l 2
 208.896 1171.46 114.688 1181.7 114.688 1222.66 c 3
 114.688 1247.23 153.6 1275.9 208.896 1275.9 c 2
 608.256 1275.9 l 26
 950.272 1275.9 1210.37 987.136 1210.37 634.88 c 0
 1210.37 282.624 944.128 2.04785 602.112 2.04785 c 18
EndSplineSet
Fore
SplineSet
432 502 m 1xbd
 432 160 l 2
 432 105 526 94 526 53 c 0
 526 28 487 0 432 0 c 2
 207 0 l 2
 152 0 111 26 111 53 c 0
 111 94 205 105 205 160 c 2
 205 1116 l 2
 205 1171 111 1182 111 1223 c 0
 111 1248 150 1276 205 1276 c 2
 643 1276 l 2
 823 1276 1057 1118 1057 938 c 1
 1057.01729488 936.495345054 1057.02591549 934.995027246 1057.02591549 933.499040111 c 0x7b
 1057.02591549 761.997382761 943.728825993 647.411973929 798 580 c 1
 1001 579 1020 315 1020 180 c 0
 1020 127 1026 74 1071 74 c 0
 1100 74 1120 92 1124 119 c 1
 1153 86 l 1
 1141 23 1037 -24 971 -25 c 0
 970 -25 968 -25 967 -25 c 0
 818 -25 796 135 796 285 c 0
 796 406 769 543 708 543 c 0
 705 543 702 543 699 542 c 1
 610 515 515 502 432 502 c 1xbd
614 1245 m 0
 527 1245 432 1204 432 1116 c 2
 432 532 l 1
 636 533 807 706 807 915 c 0
 807 1066 765 1245 614 1245 c 0
EndSplineSet
Validated: 1
EndChar

StartChar: B
Encoding: 66 66 27
Width: 1015
VWidth: 0
Flags: W
HStem: 0 31<341 486.303> 1268 35<429.256 587.762>
VStem: 162 181.016<97.6885 692.7 740 1203.91> 695 198<878.6 1191.27> 733 234<172.185 531.38>
LayerCount: 2
Back
SplineSet
180 340 m 5
 268 340.163 540 274.956 540 182 c 5
 542 86 448 0 320 0 c 7
 318 0 253.51 0 211 0 c 31
 205.15 0 206.854 15 211 15 c 5
 298.938 9.74013 419.046 73.9277 418 171 c 5
 416 244 276.052 326 158 326 c 31
 147.83 326 180 383 180 340 c 5
300 608 m 7
 257.474 608 211 588 211 545 c 5
 211 78 l 5
 209.02 30.6336 210.495 20.5489 211 0 c 5
 101 0 l 6
 74 0 54 13 54 26 c 7
 54 46 100 51 100 78 c 6
 100 545 l 6
 100 572 54 577 54 597 c 7
 54 609 73 623 100 623 c 6
 314 623 l 6
 369 623 491 598 490 498 c 5
 492 346 339 324 211 324 c 7
 209 324 204 327.14 204 331 c 31
 204 335.146 206.854 339 211 339 c 7
 311.239 339 368 412.74 368 487 c 7
 368 529 363.198 608 300 608 c 7
EndSplineSet
Fore
SplineSet
514 1268 m 0xf0
 445 1268 342 1230 342 1140 c 2
 342 740 l 1
 504 740 695 803.615234375 695 1015 c 3
 695 1189.71191406 616 1268 514 1268 c 0xf0
461 716 m 3
 479.544480548 716 499.321322068 716.209351687 519.910148672 716.209351687 c 0
 709.154539315 716.209351687 967 698.522142811 967 338 c 3xe8
 967 75.669921875 755 0 548 0 c 0
 430 0 282 0 164 0 c 0
 120 0 87 27 87 54 c 0
 87 96 162 107 162 163 c 2
 162 1140 l 2
 162 1196 87 1207 87 1249 c 0
 87 1274 118 1303 162 1303 c 2
 574 1303 l 2
 720.015625 1303 893 1247.00976562 893 1038 c 3
 893 784.982421875 651.196289062 716 461 716 c 3
341 31 m 1
 342 31 l 1
 343.551448516 30.9904419923 345.10113346 30.9856574273 346.648997532 30.9856574273 c 0
 555.62910923 30.9856574273 731.417967722 118.199762641 733 320 c 1
 733 646.44140625 535.01550293 691.700012207 343.015625 692.700195312 c 1
 343.015625 163 l 1
 341.548000959 109.43172249 340.610443248 78.4796084109 340.610443248 54.7330746466 c 0
 340.610443248 46.1190949623 340.733812021 38.4532634206 341 31 c 1
EndSplineSet
Validated: 1
EndChar

StartChar: T
Encoding: 84 84 28
Width: 1316
VWidth: 0
Flags: W
HStem: 0 21G<518.5 798.5> 1241 37<349.033 546 771 966.967>
VStem: 544 227<102.638 1241>
LayerCount: 2
Back
SplineSet
311.27 0 m 1
 311.27 52.3721 l 1
 521.748 79.0518 l 1
 521.748 1240.14 l 1
 471.352 1240.14 l 2
 385.055 1240.14 312.588 1238.16 253.958 1234.21 c 128
 195.326 1230.26 153.824 1225.65 129.448 1220.38 c 1
 102.768 1013.85 l 1
 36.5615 1013.85 l 1
 36.5615 1325.12 l 1
 1202.59 1325.12 l 1
 1202.59 1013.85 l 1
 1135.4 1013.85 l 1
 1108.72 1220.38 l 1
 1096.86 1223.01 1079.24 1225.32 1055.85 1227.29 c 128
 1032.46 1229.27 1005.29 1231.08 974.326 1232.73 c 128
 943.364 1234.38 909.603 1235.69 873.04 1236.68 c 128
 836.479 1237.67 799.093 1238.16 760.883 1238.16 c 2
 712.465 1238.16 l 1
 712.465 79.0518 l 1
 922.941 52.3721 l 1
 922.941 0 l 1
 311.27 0 l 1
EndSplineSet
Fore
SplineSet
546 1241 m 9
 445 1241 l 2
 310 1241 261 1157 187 1061 c 0
 146 1008 122 954 77 954 c 0
 48 954 40 976 40 999 c 0
 40 1056 116 1192 173 1278 c 1
 1166 1278 l 1
 1223 1192 1277 1056 1277 999 c 0
 1277 976 1269 954 1240 954 c 0
 1195 954 1170 1008 1129 1061 c 0
 1055 1157 1006 1241 871 1241 c 2
 771 1241 l 1
 771 160 l 26
 771 105 865 94 865 53 c 0
 865 28 826 0 771 0 c 2
 546 0 l 2
 491 0 450 26 450 53 c 0
 450 94 544 105 544 160 c 26
 546 1241 l 9
EndSplineSet
Validated: 1
EndChar

StartChar: U
Encoding: 85 85 29
Width: 1224
VWidth: 0
Flags: W
HStem: -29 52<585.427 816.991> 1256 20G<186.5 448.5 1060.83 1082.2>
VStem: 205 227<161.764 1172.56> 1008 43<212.472 1183.67>
LayerCount: 2
Fore
SplineSet
1165 1243 m 0
 1165 1215 1127 1215 1108 1206 c 0
 1084 1194 1051 1194 1051 1159 c 2
 1051 369 l 2
 1051 314 1048 258 1032 205 c 0
 985 51 842 -29 645 -29 c 0
 641 -29 637 -29 633 -29 c 0
 501 -29 386 10 311 78 c 0
 231 150 205 249 205 393 c 2
 205 805 l 1
 205 1128 l 2
 205 1140 189 1155 180 1159 c 2
 135 1190 l 2
 124 1197 111 1206 111 1223 c 0
 111 1260 168 1276 205 1276 c 2
 430 1276 l 2
 467 1276 526 1261 526 1223 c 0
 526 1206 513 1197 502 1190 c 2
 457 1159 l 2
 449 1154 434 1142 434 1128 c 0
 434 1124 432 1120 432 1116 c 2
 432 399 l 2
 432 196 471 23 721 23 c 0
 754 23 786 27 817 37 c 0
 949 81 1008 196 1008 369 c 2
 1008 1159 l 2
 1008 1169 1003 1177 999 1184 c 0
 992 1197 964 1199 950 1206 c 0
 930 1216 893 1215 893 1245 c 0
 893 1249 895 1251 899 1255 c 0
 920 1276 969 1276 1008 1276 c 2
 1051 1276 l 2
 1054.58974359 1276 1058.64234057 1276.02103879 1063.02508471 1276.02103879 c 0
 1101.37409599 1276.02103879 1165 1274.41025641 1165 1243 c 0
EndSplineSet
Validated: 1
EndChar

StartChar: V
Encoding: 86 86 30
Width: 1234
VWidth: 0
Flags: W
HStem: 1256 20G<165.5 398.5>
VStem: 98 334<1124 1245.17> 1001 156<1160 1252.5>
LayerCount: 2
Fore
SplineSet
999 1153 m 2
 1000 1157 1001 1159 1001 1161 c 0
 1001 1204 885 1200 885 1239 c 0
 885 1264 944 1270 999 1270 c 2
 1042 1270 l 2
 1095 1270 1157 1266 1157 1239 c 0
 1157 1198 1058 1206 1042 1153 c 2
 729 57 l 2
 711 3 680 -33 670 -33 c 1
 670 -33 658 -31.2222222222 638.444444444 -31.2222222222 c 0
 628.666666667 -31.2222222222 617 -31.6666666667 604 -33 c 1
 553 -29 527 11 494 117 c 2
 193 1116 l 2
 173 1167 98 1182 98 1223 c 0
 98 1248 138 1276 193 1276 c 2
 371 1276 l 2
 426 1276 528 1250 528 1223 c 0
 528 1184 432 1171 432 1126 c 0
 432 1122 433 1120 434 1116 c 2
 719 176 l 1
 999 1153 l 2
EndSplineSet
Validated: 1
EndChar

StartChar: r
Encoding: 114 114 31
Width: 838
VWidth: 0
Flags: W
HStem: 0 21G<179.5 398.5> 762 94<511.961 690>
VStem: 205 166<102.638 640.211>
LayerCount: 2
Fore
SplineSet
371 569 m 1
 371 160 l 2
 371 105 465 94 465 53 c 0
 465 28 426 0 371 0 c 2
 207 0 l 2
 152 0 111 26 111 53 c 0
 111 94 205 105 205 160 c 2
 205 602 l 2
 205 655 111 659 111 700 c 0
 111 755 344 860 362 860 c 0
 382 860 389 847 389 829 c 0
 389 798 371 753 371 733 c 2
 371 655 l 1
 408 714 508 856 639 856 c 27
 741 856 827 793 827 676 c 3
 827 627 788 600 743 600 c 3
 642 600 673 762 565 762 c 0
 480 762 420 647 371 569 c 1
EndSplineSet
Validated: 1
EndChar

StartChar: one
Encoding: 49 49 32
Width: 718
VWidth: 0
Flags: W
HStem: 0 21G<199.5 480.5> 1278 20G<293.5 376.5>
VStem: 225 228<108.328 1141.07>
LayerCount: 2
Fore
SplineSet
225 160 m 2
 225 1053 l 2
 225 1053 230 1102 250 1143 c 1
 213 1139 157 1060 86 1028 c 24
 71 1021 53 1037 53 1053 c 3
 53 1088 229 1298 358 1298 c 3
 395 1298 453 1296 453 1296 c 1
 453 160 l 0
 453 105 567 94 567 53 c 3
 567 28 508 0 453 0 c 2
 227 0 l 2
 172 0 111 26 111 53 c 3
 111 94 225 105 225 160 c 2
EndSplineSet
Validated: 1
EndChar

StartChar: two
Encoding: 50 50 33
Width: 1347
VWidth: 0
Flags: W
HStem: 2 37<269.831 842.309> 1270.03 29.9719<565.608 749.686>
VStem: 867.956 261.099<801.155 1110.36>
LayerCount: 2
Fore
SplineSet
1074 2 m 1
 290 2 l 1
 213.600157209 2 187.978356858 18.5696770068 187.978356858 41.3534517525 c 0
 187.978356858 80.8971471678 265.159781533 139.159781533 288 162 c 0
 416 290 859 664 867 934 c 1
 867.630261088 941.95704624 867.956393693 950.764410892 867.956393693 960.237259335 c 0
 867.956393693 1070.25264644 823.96781763 1270.02810011 701.522151189 1270.02810011 c 0
 700.68510424 1270.02810011 699.844390848 1270.01876424 699 1270 c 1
 408 1270 407 1127 331 975 c 0
 300 916 245 868 200 868 c 0
 171 868 163 890 163 913 c 0
 163 970 185 1116 273 1192 c 0
 365 1272 528 1300 699 1300 c 19
 915.990953087 1300 1129.05495939 1186.11854316 1129.05495939 944.737402335 c 0
 1129.05495939 942.502534803 1129.03669492 940.256737628 1129 938 c 0
 1124 639 618 438 269 39 c 9
 738 39 l 26
 874 39 963 123 1037 219 c 0
 1078 272 1103 326 1148 326 c 0
 1177 326 1185 304 1185 281 c 3
 1185 224 1131 88 1074 2 c 1
EndSplineSet
Validated: 1
EndChar

StartChar: three
Encoding: 51 51 34
Width: 1347
VWidth: 0
Flags: W
HStem: -2 37<551.797 713.984> 1270 30<552.6 746.227>
VStem: 867 263<173.007 473.061 861.796 1153.15>
LayerCount: 2
Fore
SplineSet
569 680 m 1
 773 739 868 807 868 1008 c 3
 868 1111 814 1270 690 1270 c 0
 689 1270 688 1270 687 1270 c 1
 396 1270 407 1127 331 975 c 0
 300 916 245 868 200 868 c 0
 171 868 163 890 163 913 c 0
 163 970 185 1116 273 1192 c 0
 365 1272 520 1300 687 1300 c 19
 896 1300 1130 1239 1130 998 c 3
 1130 767 846 713 725 676 c 1
 837 634 1130 565 1130 334 c 3
 1130 93 898 -2 679 -2 c 11
 515 -2 365 26 273 106 c 0
 185 182 163 328 163 385 c 0
 163 408 171 430 200 430 c 0
 245 430 300 383 331 324 c 0
 370 247 455 35 637 35 c 0
 783 35 867 194 867 344 c 27
 867 519 766 619 569 680 c 1
EndSplineSet
Validated: 1
EndChar

StartChar: zero
Encoding: 48 48 35
Width: 1304
VWidth: 0
Flags: W
HStem: -31.0094 30.9874<557.749 741.117> 1276 31<552.4 738.976>
VStem: 118 249.999<372.982 921.42> 937 250<367.94 918.219>
LayerCount: 2
Fore
SplineSet
1187 635 m 0
 1187 284.108465965 983.289078038 -31.00944275 651.151509071 -31.00944275 c 0
 650.102286861 -31.00944275 649.051783046 -31.0062981021 648 -31 c 8
 314 -29 118 289 118 641 c 0
 118 991 298 1307 644 1307 c 0
 997 1307 1187 988 1187 635 c 0
648 0 m 16
 649.331932664 -0.0146904337948 650.657750744 -0.0220193880964 651.977482186 -0.0220193880964 c 0
 920.166083944 -0.0220193880964 937 302.635534962 937 635 c 0
 937 969 931 1276 644 1276 c 0
 370.873684211 1276 367.99867036 985.623601108 367.99867036 661.927304855 c 0
 367.99867036 654.966094183 368 647.989473684 368 641 c 0
 368 307 375 3 648 0 c 16
EndSplineSet
Validated: 1
EndChar

StartChar: y
Encoding: 121 121 36
Width: 954
VWidth: 0
Flags: W
HStem: 805 20G<100.794 314.5 751.5 845.675>
VStem: 733.131 188.986<721.753 812.184>
LayerCount: 2
Fore
SplineSet
465 -14 m 1
 182 666 l 1
 153 723 82 731 57 772 c 0
 53.9198317229 777.197783968 52.4332563148 782.358507636 52.4332563148 787.30380857 c 0
 52.4332563148 808.046979119 78.5880784524 825 123 825 c 2
 287 825 l 2
 342 825 398 797 412 772 c 0
 415.019077882 767.048712274 416.317275622 762.578687639 416.317275622 758.445509607 c 0
 416.317275622 733.056790422 367.333279933 720.378070689 367.333279933 686.936953356 c 0
 367.333279933 680.741534837 369.014536324 673.83349757 373 666 c 1
 518 299 l 2
 534 258 541 182 541 182 c 1
 729 709 l 1
 731.855807443 714.613138768 733.130914895 719.557146864 733.130914895 723.948531446 c 0
 733.130914895 760.595284684 644.330530418 758.756512191 644.330530418 786.142507129 c 0
 644.330530418 788.799339726 645.166299269 791.731229132 647 795 c 0
 661 822 725 825 778 825 c 2
 821 825 l 2
 870.350539057 825 922.11642592 820.974420322 922.11642592 802.087014032 c 0
 922.11642592 799.924856005 921.438044604 797.567936792 920 795 c 0
 897 754 809 766 780 709 c 1
 426 -264 l 2
 423.271855821 -271.235512822 422.091357715 -277.387673394 422.091357715 -282.680108203 c 0
 422.091357715 -316.713848389 470.908642285 -315.19524252 470.908642285 -337.59261907 c 0
 470.908642285 -341.075534983 469.728144179 -345.136786464 467 -350 c 0
 453 -377 407 -381 354 -381 c 2
 311 -381 l 2
 260.557055833 -381 193.291033212 -375.953076464 193.291033212 -355.830254034 c 0
 193.291033212 -354.012342196 193.840022152 -352.071389015 195 -350 c 0
 218 -309 352 -325 375 -264 c 2
 465 -14 l 1
EndSplineSet
Validated: 1
EndChar

StartChar: j
Encoding: 106 106 37
Width: 567
VWidth: 0
Flags: W
HStem: 1116 189<210.036 367.964>
VStem: 205.016 165.984<-76.8572 654.3 1125.43 1295.38>
LayerCount: 2
Fore
SplineSet
195 1210 m 0
 195 1261 238 1305 289 1305 c 0
 340 1305 383 1261 383 1210 c 0
 383 1159 340 1116 289 1116 c 0
 238 1116 195 1159 195 1210 c 0
90 -332 m 0
 201.503937008 -194.25984252 205.015872032 -55.6417012834 205.015872032 123.342952954 c 0
 205.015872032 135.375534751 205 147.590551181 205 160 c 2
 205 602 l 2
 205 655 111 659 111 700 c 0
 111 755 344 860 362 860 c 0
 382 860 389 847 389 829 c 0
 389 798 371 753 371 733 c 2
 371 160 l 2
 371 -65 242 -295 127 -365 c 0
 107 -377 87 -396 70 -381 c 0
 54 -367 76 -349 90 -332 c 0
EndSplineSet
Validated: 1
EndChar

StartChar: four
Encoding: 52 52 38
Width: 1028
VWidth: 0
Flags: W
HStem: 0 21G<555.5 795.5> 275 172<238 581 770 946> 1256 20G<583.77 772>
VStem: 581 188<104.038 273 447 1120.4>
LayerCount: 2
Fore
SplineSet
946 445 m 1
 946 273 l 1
 769 273 l 1
 769 160 l 2
 768.998760582 159.858575174 768.998142466 159.717441268 768.998142466 159.576597025 c 0
 768.998142466 104.944225541 862 93.8945723035 862 53 c 0
 862 28 823 0 768 0 c 2
 583 0 l 2
 528 0 486 26 486 53 c 0
 486 94 581 105 581 160 c 2
 581 275 l 1
 82 275 l 1
 594 1276 l 1
 772 1276 l 17
 770 1049 771 689 770 446 c 1
 946 445 l 1
238 447 m 1
 582 447 l 1
 582 1120.40039062 l 1
 238 447 l 1
EndSplineSet
Validated: 1
EndChar

StartChar: k
Encoding: 107 107 39
Width: 1021
VWidth: 0
Flags: W
HStem: 0 21G<158.5 377.5 690.5 909.5> 729.145 130.855<540.578 676.774> 1399 20G<332 351>
VStem: 184 166<102.638 493.988 532 1213.78> 683.307 232.693<564.447 724.902>
LayerCount: 2
Back
SplineSet
344 453 m 1
 729 868 l 1
 631 895 l 1
 631 940 l 1
 963 940 l 1
 963 895 l 1
 846 872 l 1
 578 598 l 1
 922 68 l 1
 1024 45 l 1
 1024 0 l 1
 639 0 l 1
 639 45 l 1
 725 70 l 1
 467 475 l 1
 344 340 l 1
 344 70 l 1
 444 45 l 1
 444 0 l 1
 59 0 l 1
 59 45 l 1
 178 70 l 1
 178 1352 l 1
 39 1376 l 1
 39 1421 l 1
 344 1421 l 1
 344 453 l 1
EndSplineSet
Fore
SplineSet
624 436 m 9
 872 140 l 2
 907.322 97.8418 976 94 976 53 c 0
 976 28 937 0 882 0 c 2
 718 0 l 2
 663 0 622 26 622 53 c 0
 622 87.7192 691.664 95.6926 691.664 123.005 c 0
 691.664 127.946 689.385 133.52 684 140 c 2
 448 424 l 1
 521.914 457.597 683.307 561.743 683.307 655.849 c 0
 683.307 688.519 657.326 729.145 622.999 729.145 c 0
 523.602 729.145 367.866 454.698 350 418 c 1
 350 160 l 2
 350 105 444 94 444 53 c 0
 444 28 405 0 350 0 c 2
 186 0 l 2
 131 0 90 26 90 53 c 0
 90 94 184 105 184 160 c 2
 184 1161 l 2
 184 1214 90 1219 90 1260 c 0
 90 1315 323 1419 341 1419 c 0
 361 1419 368 1407 368 1389 c 0
 368 1358 350 1312 350 1292 c 2
 350 532 l 1
 410.786 661.309 471.663 860 659 860 c 0
 779.341 860 916 789.581 916 644 c 0
 916 484 652 444 624 436 c 9
EndSplineSet
Validated: 1
EndChar

StartChar: s
Encoding: 115 115 40
Width: 801
VWidth: 0
Flags: W
HStem: -22 65.8359<306.297 482.006> 790 65.836<289.098 435.899>
VStem: 106.904 134.705<560.249 748.086> 553.25 140.847<100.3 283.159>
LayerCount: 2
Back
SplineSet
623 226.728 m 4
 623 188.928 617.15 154.278 605.45 122.778 c 132
 593.75 91.2783 575.3 64.2783 550.101 41.7783 c 132
 524.9 19.2783 492.351 1.87793 452.45 -10.4219 c 132
 412.55 -22.7217 364.4 -28.8721 308 -28.8721 c 4
 279.8 -28.8721 252.05 -27.2217 224.75 -23.9219 c 132
 197.45 -20.6221 172.101 -16.7217 148.7 -12.2217 c 132
 125.3 -7.72168 104.9 -3.07227 87.5 1.72754 c 132
 70.1006 6.52832 57.5 10.4277 49.7002 13.4277 c 5
 49.7002 221.328 l 5
 90.2002 221.328 l 5
 134.3 103.428 l 5
 152.9 86.6279 176.9 72.2275 206.3 60.2275 c 132
 235.7 48.2275 270.2 42.2275 309.8 42.2275 c 4
 365.601 42.2275 408.65 54.3779 438.95 78.6777 c 132
 469.25 102.978 484.4 140.628 484.4 191.628 c 4
 484.4 221.628 478.101 246.378 465.5 265.878 c 132
 452.9 285.378 436.4 301.728 416 314.928 c 132
 395.601 328.128 372.351 339.078 346.25 347.778 c 132
 307.101 360.828 307.101 360.828 266.15 374.328 c 132
 238.851 383.328 212.15 393.528 186.05 404.928 c 132
 159.95 416.328 136.7 431.028 116.3 449.028 c 132
 95.9004 467.028 79.4004 489.528 66.7998 516.528 c 132
 54.2002 543.528 47.9004 577.128 47.9004 617.328 c 4
 47.9004 655.728 54.7998 689.928 68.6006 719.928 c 132
 82.4004 749.928 101.75 775.128 126.65 795.528 c 132
 151.55 815.928 181.25 831.378 215.75 841.878 c 132
 250.25 852.378 288.2 857.628 329.601 857.628 c 4
 370.4 857.628 410.3 854.778 449.3 849.078 c 132
 488.3 843.378 525.8 836.928 561.8 829.728 c 5
 561.8 645.228 l 5
 519.5 645.228 l 5
 481.7 743.328 l 5
 466.101 757.128 444.8 767.628 417.8 774.828 c 132
 390.8 782.028 362 785.628 331.4 785.628 c 4
 282.8 785.628 245.75 773.628 220.25 749.628 c 132
 194.75 725.628 182 693.228 182 652.428 c 4
 182 624.828 188.3 602.178 200.9 584.478 c 132
 213.5 566.778 230.15 551.778 250.851 539.478 c 132
 271.55 527.178 295.101 516.528 321.5 507.528 c 132
 361.101 494.028 361.101 494.028 402.5 479.628 c 132
 430.101 470.028 457.101 459.078 483.5 446.778 c 132
 509.9 434.478 533.45 418.728 554.15 399.528 c 132
 574.851 380.328 591.5 356.928 604.101 329.328 c 132
 616.7 301.728 623 267.528 623 226.728 c 4
EndSplineSet
Fore
SplineSet
242.098 644 m 0
 250.098 560 342.527 508.272 438.098 488 c 0
 569.912 460.039 693.75 387.994 694.097 252.571 c 0
 694.097 52.6484 547.201 -22 316.098 -22 c 0
 215.664 -22 108.098 12.8359 108.098 129.836 c 0
 108.098 178.836 147.098 205.836 192.098 205.836 c 0
 293.098 205.836 262.098 43.8359 370.098 43.8359 c 0
 453.5285615 43.8359 553.250408264 95.5595904249 553.250408264 205.320957697 c 0
 553.250408264 205.787257501 553.248608475 206.254604773 553.245 206.723 c 1
 550.098 284 439.099 344.272 346.098 364 c 0
 201.587289781 395.415504468 106.904238687 492.168216003 106.904238687 607.71061796 c 0
 106.904238687 655.871007997 119.297176419 707.529958758 146.098 740 c 1
 183.098 799 307.922 855.836 426.098 855.836 c 0
 526.531 855.836 634.098 821 634.098 704 c 0
 634.098 655 595.098 628 550.098 628 c 0
 449.098 628 480.098 790 372.098 790 c 0
 291.668002864 790 241.60955191 716.433544987 241.60955191 654.43969914 c 0
 241.60955191 650.917231614 241.771164148 647.432125916 242.098 644 c 0
EndSplineSet
Validated: 1
EndChar

StartChar: v
Encoding: 118 118 41
Width: 954
VWidth: 0
Flags: W
HStem: -28.9648 21G<467.621 518.788> 805 20G<100.794 314.5 751.5 845.675>
VStem: 733.131 188.986<721.753 812.184>
LayerCount: 2
Fore
SplineSet
511.512 -28.9648 m 1
 467.621 -28.9424 l 1
 182 666 l 1
 153 723 82 731 57 772 c 0
 53.9198317229 777.197783968 52.4332563148 782.358507636 52.4332563148 787.30380857 c 0
 52.4332563148 808.046979119 78.5880784524 825 123 825 c 2
 287 825 l 2
 342 825 398 797 412 772 c 0
 415.019077882 767.048712274 416.317275622 762.578687639 416.317275622 758.445509607 c 0
 416.317275622 733.056790422 367.333279933 720.378070689 367.333279933 686.936953356 c 0
 367.333279933 680.741534837 369.014536324 673.83349757 373 666 c 1
 518 299 l 2
 534 258 541 182 541 182 c 1
 729 709 l 1
 731.855807443 714.613138768 733.130914895 719.557146864 733.130914895 723.948531446 c 0
 733.130914895 760.595284684 644.330530418 758.756512191 644.330530418 786.142507129 c 0
 644.330530418 788.799339726 645.166299269 791.731229132 647 795 c 0
 661 822 725 825 778 825 c 2
 821 825 l 2
 870.350539057 825 922.11642592 820.974420322 922.11642592 802.087014032 c 0
 922.11642592 799.924856005 921.438044604 797.567936792 920 795 c 0
 897 754 809 766 780 709 c 1
 511.512 -28.9648 l 1
EndSplineSet
Validated: 1
EndChar

StartChar: u
Encoding: 117 117 42
Width: 1097
VWidth: 0
Flags: W
HStem: -29 53<456.17 641.975> -25 99<905.74 1009.83> 804 20G<177.5 397.5 709.5 929.5>
VStem: 205 166<85.8633 721.362> 737 166<89.6252 721.362> 1015 29<89.4841 102.313>
LayerCount: 2
Back
SplineSet
903 451 m 6
 903 160 l 6
 903 105 997 94 997 53 c 4
 997 28 958 0 903 0 c 6
 739 0 l 6
 684 0 643 26 643 53 c 4
 643 94 737 105 737 160 c 6
 737 451 l 6
 737 557 713 717 602 717 c 4
 473 717 420 647 371 569 c 5
 371 160 l 6
 371 105 465 94 465 53 c 4
 465 28 426 0 371 0 c 6
 207 0 l 6
 152 0 111 26 111 53 c 4
 111 94 205 105 205 160 c 6
 205 602 l 6
 205 655 111 659 111 700 c 4
 111 755 344 860 362 860 c 4
 382 860 389 847 389 829 c 4
 389 798 371 753 371 733 c 6
 371 655 l 5
 410 716 473 785 592 840 c 4
 621 854 651 860 680 860 c 4
 729 860 774 842 809 811 c 4
 872 756 899 666 903 557 c 4
 903 534 903 476 903 451 c 6
EndSplineSet
Fore
SplineSet
205 664 m 6xbc
 205 719 111 730 111 771 c 4
 111 796 150 824 205 824 c 6
 371 824 l 6
 424 824 465 798 465 771 c 4
 465 730 371 719 371 664 c 6
 371 250 l 2
 371 128 428 24 520 24 c 0xbc
 635 24 737 64.93359375 737 253 c 2
 737 664 l 6
 737 719 643 730 643 771 c 4
 643 796 682 824 737 824 c 6
 903 824 l 6
 956 824 997 798 997 771 c 4
 997 730 903 719 903 664 c 6
 903 256 l 2
 903 231 899 200 899 170 c 0
 899 119 909 74 962 74 c 0
 991 74 1011 92 1015 119 c 1
 1044 86 l 1
 1032 23 975 -25 909 -25 c 0x7c
 856 -25 810 9 784 43 c 1
 672.321458868 -28.7933478708 523.8550054 -29.0000034343 522.012263744 -29.0000034343 c 0
 522 -29 l 0
 270.93 -28.8389 205 52 205 250 c 2
 205 664 l 6xbc
EndSplineSet
Validated: 1
EndChar

StartChar: w
Encoding: 119 119 43
Width: 1477
VWidth: 0
Flags: W
HStem: -28.9648 21G<459.401 518.788 969.401 1028.79> 805 20G<100.794 314.349 631.794 845.5 1261.5 1355.67>
VStem: 1243.13 188.99<721.753 812.184>
LayerCount: 2
Fore
SplineSet
1021.51 -28.9648 m 1
 977.621 -28.9648 l 1
 730.38 572.615 l 1
 511.512 -28.9648 l 1
 467.621 -28.9648 l 1
 182 666 l 1
 153 723 82 731 57 772 c 0
 53.9198 777.198 52.4333 782.359 52.4333 787.304 c 0
 52.4333 808.047 78.5881 825 123 825 c 2
 287 825 l 2
 341.698 825 416.317 795.99 416.317 758.445 c 0
 416.317 734.843090452 366.432729401 721.221492008 366.432729401 693.486506903 c 0
 366.432729401 691.387643166 366.718407035 689.207954774 367.333 686.937 c 1
 411.914 558.892 518 299 518 299 c 2
 534 258 541 182 541 182 c 1
 703.595 637.786 l 1
 692 666 l 1
 663 723 613 731 588 772 c 0
 584.92 777.198 583.433 782.359 583.433 787.304 c 0
 583.433 808.047 609.588 825 654 825 c 2
 818 825 l 2
 873 825 943 824.951 943 772 c 19
 943 731.152 877.19 724.322 877.19 686.968 c 0
 877.19 680.882 878.937 673.986 883 666 c 1
 1028 299 l 2
 1044 258 1051 182 1051 182 c 1
 1239 709 l 1
 1241.86 714.613 1243.13 719.557 1243.13 723.949 c 0
 1243.13 760.595 1154.33 758.757 1154.33 786.143 c 0
 1154.33 788.799 1155.17 791.731 1157 795 c 0
 1171 822 1235 825 1288 825 c 2
 1331 825 l 2
 1380.35 825 1432.12 820.974 1432.12 802.087 c 0
 1432.12 799.925 1431.44 797.568 1430 795 c 0
 1407 754 1319 766 1290 709 c 1
 1021.51 -28.9648 l 1
EndSplineSet
Validated: 1
EndChar

StartChar: W
Encoding: 87 87 44
Width: 1767
VWidth: 0
Flags: W
HStem: 1256 20G<165.5 398.5 775.5 1008.5>
VStem: 98 334<1124 1245.17> 1561 156<1160 1252.5>
LayerCount: 2
Fore
SplineSet
1559 1153 m 2
 1560 1157 1561 1159 1561 1161 c 0
 1561 1204 1445 1200 1445 1239 c 0
 1445 1264 1504 1270 1559 1270 c 2
 1602 1270 l 2
 1655 1270 1717 1266 1717 1239 c 0
 1717 1198 1618 1206 1602 1153 c 2
 1289 57 l 1
 1271 3 1240 -33 1230 -33 c 2
 1230 -33 1218 -31.2222222222 1198.44444444 -31.2222222222 c 0
 1188.66666667 -31.2222222222 1177 -31.6666666667 1164 -33 c 1
 1113 -29 1087 11 1054 117 c 1
 897.534 636.299 l 1
 729 57 l 2
 713.1 2.34572 680 -33 670 -33 c 2
 670 -33 658 -31.2222222222 638.444444444 -31.2222222222 c 0
 628.666666667 -31.2222222222 617 -31.6666666667 604 -33 c 1
 553 -29 527 11 494 117 c 1
 193 1116 l 1
 173 1167 98 1182 98 1223 c 0
 98 1248 138 1276 193 1276 c 2
 371 1276 l 2
 426 1276 528 1250 528 1223 c 0
 528 1184 432 1171 432 1126 c 0
 432 1122 433 1120 434 1116 c 2
 719 176 l 1
 873.643 715.594 l 1
 803 1116 l 1
 783 1167 708 1182 708 1223 c 0
 708 1248 748 1276 803 1276 c 2
 981 1276 l 2
 1036 1276 1138 1250 1138 1223 c 0
 1138 1190.87 1059.95 1169.27 1037 1140 c 1
 1042.64 1110.07 1055.2 912.89 1056 885 c 1
 1279 176 l 1
 1559 1153 l 2
EndSplineSet
Validated: 1
EndChar

StartChar: d
Encoding: 100 100 45
Width: 1026
VWidth: 0
Flags: W
HStem: -29 68<448.242 724.849> 823 31<466.386 610.182> 1399 20G<873 892>
VStem: 129 180<176.357 639.337> 725.955 165.045<102.638 754.031 816.315 1212.54>
LayerCount: 2
Fore
SplineSet
309 401 m 0
 309 309 319.185 234.074 348 162 c 0
 373.161 99.0646 480 41 586 39 c 0
 599.631 39 696 40 726 56 c 1
 726 83.3332666667 725.954666667 95.9999555556 725.954666667 117.703681481 c 0
 725.954666667 128.555544444 725.966 141.666666667 726 160 c 2
 726 704 l 1
 667.207 778.519 620.07 823 530 823 c 0
 493 823 457 807 428 782 c 0
 338.848 708.51 309 555.06 309 401 c 0
773.952 0 m 1
 727.596 -18.490700253 674.929 -27.7629 584 -29 c 0
 533 -29 436 -22 387 -8 c 1
 217 45 129 185 129 406 c 0
 129 625 215 779 381 834 c 0
 426 848 475 854 522 854 c 0
 585 854 643 843 700 825 c 0
 708.492 822.264 716.842 819.385 725 816.315 c 1
 725 1161 l 2
 725 1214 631 1219 631 1260 c 0
 631 1315 864 1419 882 1419 c 0
 902 1419 909 1407 909 1389 c 0
 909 1358 891 1312 891 1292 c 2
 891 160 l 2
 891 105 985 94 985 53 c 0
 985 28 946 0 891 0 c 2
 773.952 0 l 1
EndSplineSet
Validated: 1
EndChar

StartChar: c
Encoding: 99 99 46
Width: 1026
VWidth: 0
Flags: W
HStem: -29 68<448.242 723.587> 823 31<466.386 578.899>
VStem: 129 180<176.357 639.337>
LayerCount: 2
Fore
SplineSet
309 401 m 0
 309 309 319.185 234.074 348 162 c 0
 373.161 99.0646 480 41 586 39 c 1
 708.533 39 864 138 887 209 c 1
 916 160 l 1
 874 78 731 -27 584 -29 c 0
 533 -29 436 -22 387 -8 c 1
 217 45 129 185 129 406 c 0
 129 625 215 779 381 834 c 0
 426 848 475 854 522 854 c 0
 585 854 643 843 700 825 c 0
 735.321 813.619 768.177 799.774 795.063 779.958 c 1
 841.634222023 751.523613591 886.380182603 708.799315797 886.380182603 651.237467261 c 0
 886.380182603 648.19966328 886.255557978 645.120534358 886 642 c 1
 886 593 847 566 802 566 c 0
 695.28 566 654.839 823 530 823 c 0
 493 823 457 807 428 782 c 0
 338.848 708.51 309 555.06 309 401 c 0
EndSplineSet
Validated: 1
EndChar

StartChar: f
Encoding: 102 102 47
Width: 702
VWidth: 0
Flags: W
HStem: 0 21G<178.5 398.5> 825 31<64 204 373 572> 1382 31<355.304 482.94>
VStem: 184.729 122.769<1069.76 1356.41> 204 169<102.638 825 856 1153.86>
LayerCount: 2
Fore
SplineSet
204 941 m 2xe8
 204 1048.48466258 184.729421506 1146.09315368 184.729421506 1224.13107185 c 0
 184.729421506 1305.09541195 205.472392638 1364.99386503 290 1393 c 0
 335 1407 384 1413 431 1413 c 0
 494 1413 519 1398 572 1371 c 0
 605 1354 635 1335 658 1311 c 1
 694.584662397 1278.66936811 728.2738407 1236.2045419 728.2738407 1186.68489077 c 0
 728.2738407 1178.00132615 727.237908466 1169.10082776 725 1160 c 1
 718.108747069 1118.65248242 684.504725226 1097.33954152 647.198490352 1097.33954152 c 0
 641.196217762 1097.33954152 635.098108881 1097.89125293 629 1099 c 0
 524 1117 564 1382 439 1382 c 0
 402 1382 369 1381 340 1356 c 0
 316.213213213 1336.48948949 307.498534571 1308.40716392 307.498534571 1274.7885527 c 0xf0
 307.498534571 1182.62067473 373 1048.84084084 373 936 c 2
 373 856 l 1
 572 856 l 1
 572 825 l 1
 373 825 l 1
 373 160 l 2
 373 105 465 94 465 53 c 0
 465 28 426 0 371 0 c 2
 205 0 l 2
 152 0 111 26 111 53 c 0
 111 94 204 105 204 160 c 2
 204 825 l 1
 64 825 l 1
 64 856 l 1
 204 856 l 1
 204 941 l 2xe8
EndSplineSet
Validated: 1
EndChar

StartChar: t
Encoding: 116 116 48
Width: 663
VWidth: 0
Flags: W
HStem: -28.9307 88.9307<409.473 577.267> 825.022 30.616<114 163.265 371 570>
VStem: 202 168.892<92.5521 825.022> 607 29<102 112.313>
LayerCount: 2
Fore
SplineSet
370.892 825.022 m 1
 370.892 189 l 1
 370.892 189 394.164 60 480 60 c 0
 509 60 603 102 607 129 c 1
 636 96 l 1
 624.004837274 33.0253956878 542.066098035 -28.930730231 434.130593717 -28.930730231 c 0
 434.087066705 -28.930730231 434.043535465 -28.9307201553 434 -28.9307 c 0
 326 -28.8806 261 28 236 65 c 1
 207 118 202.552 198.002 202 274 c 2
 202 825.191 l 1
 172.667 825.205 143.333 825.219 114 825.233 c 1
 116 825.23 116 855.95 114 855.847 c 1
 202 855.911 344.106 1028.25 362 1029 c 0
 382 1029 389 1017 389 999 c 0
 389 968 371.028 922 371 902 c 2
 371 855.638 l 1
 570 855.638 l 1
 570 825.022 l 1
 370.892 825.022 l 1
EndSplineSet
Validated: 1
EndChar

StartChar: p
Encoding: 112 112 49
Width: 1116
VWidth: 0
Flags: W
HStem: -27.7998 31<523.123 672.799> 824.204 30.9987<538.767 667.604>
VStem: 111 260<657.215 752.332> 205 166<-307.362 70.6292 118.412 652.919> 823 185<182.731 642.375>
LayerCount: 2
Fore
SplineSet
205 -250 m 2xd8
 205 602 l 2xd8
 205 655 111 660 111 701 c 0
 111 756 344 860 362 860 c 0
 382 860 389 848 389 830 c 0
 389 799 371 753 371 733 c 2
 371 673.685546875 l 1xe8
 416.427782742 746.618550387 468.719035147 855.202548389 608.868743362 855.202548389 c 0
 609.245194491 855.202548389 609.622279514 855.201764962 610 855.200195312 c 0
 816.998046875 854.33984375 1006 747.200195312 1008 409.200195312 c 0
 1008 407.200195312 1008 406.200195312 1008 404.200195312 c 0
 1008 87.2001953125 819 -27.7998046875 614 -27.7998046875 c 0
 518.911132812 -27.7998046875 444.772612814 7.1366595137 371 70.629215983 c 1
 371 -250 l 2
 371 -305 465 -316 465 -357 c 0
 465 -382 426 -410 371 -410 c 2
 205 -410 l 2xd8
 152 -410 111 -384 111 -357 c 0xe8
 111 -316 205 -305 205 -250 c 2xd8
371 594 m 1
 371 324.536261748 l 1
 384.854234014 43.1497565493 508.9375 3.2001953125 614 3.2001953125 c 0
 725 3.2001953125 823 130.200195312 823 411.200195312 c 0
 823 704.200195312 720.997070312 823.46875 612 824.200195312 c 1
 611.573704011 824.202662529 611.148279362 824.203893522 610.723723444 824.203893522 c 0
 460.764606155 824.203893522 419.188428621 670.625002055 371 594 c 1
EndSplineSet
Validated: 1
EndChar

StartChar: question
Encoding: 63 63 50
Width: 1064
VWidth: 0
Flags: W
HStem: 1276 31<348.742 549.497>
VStem: 702 250.013<809.613 1137.8>
LayerCount: 2
Back
SplineSet
440 350 m 5xec
 360 350 l 5
 334 684 l 5
 477 713 l 6
 501 717.666666667 523 725.833333333 543 737.5 c 4
 563 749.166666667 580.333333333 766.166666667 595 788.5 c 4
 609.666666667 810.833333333 621 839.5 629 874.5 c 4
 637 909.5 641 952.666666667 641 1004 c 4
 641 1052.66666667 636.833333333 1094 628.5 1128 c 4
 620.166666667 1162 606.666666667 1189.66666667 588 1211 c 4
 569.333333333 1232.33333333 544.666666667 1247.83333333 514 1257.5 c 4
 483.333333333 1267.16666667 445.666666667 1272 401 1272 c 4
 361 1272 324.5 1267.33333333 291.5 1258 c 4
 258.5 1248.66666667 230.333333333 1237 207 1223 c 5
 172 1059 l 5
 106 1059 l 5
 106 1313 l 5
 152.666666667 1325.66666667 199.5 1336 246.5 1344 c 4
 293.5 1352 345 1356 401 1356 c 4
 542.333333333 1356 648.333333333 1327.33333333 719 1270 c 4
 789.666666667 1212.66666667 825 1128 825 1016 c 4
 825 969.333333333 819.5 924.833333333 808.5 882.5 c 4
 797.5 840.166666667 779.5 801.833333333 754.5 767.5 c 4
 729.5 733.166666667 697 703.5 657 678.5 c 4
 617 653.5 568 635 510 623 c 5
 453 610 l 5
 440 350 l 5xec
530 92 m 260xf4
 530 75.3333333333 526.833333333 59.6666666667 520.5 45 c 4
 514.166666667 30.3333333333 505.666666667 17.5 495 6.5 c 4
 484.333333333 -4.5 471.666666667 -13.1666666667 457 -19.5 c 4
 442.333333333 -25.8333333333 426.666666667 -29 410 -29 c 4
 392.666666667 -29 376.666666667 -25.8333333333 362 -19.5 c 4
 347.333333333 -13.1666666667 334.666666667 -4.5 324 6.5 c 4
 313.333333333 17.5 304.833333333 30.3333333333 298.5 45 c 4
 292.166666667 59.6666666667 289 75.3333333333 289 92 c 260
 289 108.666666667 292.166666667 124.5 298.5 139.5 c 4
 304.833333333 154.5 313.333333333 167.333333333 324 178 c 4
 334.666666667 188.666666667 347.333333333 197.166666667 362 203.5 c 4
 376.666666667 209.833333333 392.666666667 213 410 213 c 4
 426.666666667 213 442.333333333 209.833333333 457 203.5 c 4
 471.666666667 197.166666667 484.333333333 188.666666667 495 178 c 4
 505.666666667 167.333333333 514.166666667 154.5 520.5 139.5 c 4
 526.833333333 124.5 530 108.666666667 530 92 c 260xf4
440 350 m 1xec
 360 350 l 1
 334 684 l 1
 477 713 l 2
 501 717.666666667 523 725.833333333 543 737.5 c 0
 563 749.166666667 580.333333333 766.166666667 595 788.5 c 0
 609.666666667 810.833333333 621 839.5 629 874.5 c 0
 637 909.5 641 952.666666667 641 1004 c 0
 641 1052.66666667 636.833333333 1094 628.5 1128 c 0
 620.166666667 1162 606.666666667 1189.66666667 588 1211 c 0
 569.333333333 1232.33333333 544.666666667 1247.83333333 514 1257.5 c 0
 483.333333333 1267.16666667 445.666666667 1272 401 1272 c 0
 361 1272 324.5 1267.33333333 291.5 1258 c 0
 258.5 1248.66666667 230.333333333 1237 207 1223 c 1
 172 1059 l 1
 106 1059 l 1
 106 1313 l 1
 152.666666667 1325.66666667 199.5 1336 246.5 1344 c 0
 293.5 1352 345 1356 401 1356 c 0
 542.333333333 1356 648.333333333 1327.33333333 719 1270 c 0
 789.666666667 1212.66666667 825 1128 825 1016 c 0
 825 969.333333333 819.5 924.833333333 808.5 882.5 c 0
 797.5 840.166666667 779.5 801.833333333 754.5 767.5 c 0
 729.5 733.166666667 697 703.5 657 678.5 c 0
 617 653.5 568 635 510 623 c 1
 453 610 l 1
 440 350 l 1xec
530 92 m 256xf4
 530 75.3333333333 526.833333333 59.6666666667 520.5 45 c 0
 514.166666667 30.3333333333 505.666666667 17.5 495 6.5 c 0
 484.333333333 -4.5 471.666666667 -13.1666666667 457 -19.5 c 0
 442.333333333 -25.8333333333 426.666666667 -29 410 -29 c 0
 392.666666667 -29 376.666666667 -25.8333333333 362 -19.5 c 0
 347.333333333 -13.1666666667 334.666666667 -4.5 324 6.5 c 0
 313.333333333 17.5 304.833333333 30.3333333333 298.5 45 c 0
 292.166666667 59.6666666667 289 75.3333333333 289 92 c 256
 289 108.666666667 292.166666667 124.5 298.5 139.5 c 0
 304.833333333 154.5 313.333333333 167.333333333 324 178 c 0
 334.666666667 188.666666667 347.333333333 197.166666667 362 203.5 c 0
 376.666666667 209.833333333 392.666666667 213 410 213 c 0
 426.666666667 213 442.333333333 209.833333333 457 203.5 c 0
 471.666666667 197.166666667 484.333333333 188.666666667 495 178 c 0
 505.666666667 167.333333333 514.166666667 154.5 520.5 139.5 c 0
 526.833333333 124.5 530 108.666666667 530 92 c 256xf4
EndSplineSet
Fore
SplineSet
480 1276 m 0
 154 1276 306 1133 230 981 c 1
 199 922 145 875 100 875 c 0
 71 875 62 897 62 920 c 0
 62 977 86 1122 174 1198 c 0
 266 1278 353 1307 480 1307 c 0
 716.997908089 1307 952.012622603 1248.49578953 952.012622603 961.65083638 c 0
 952.012622603 634.675107656 602.418857382 796.005257716 527 615 c 1
 507 515 478 367 468 314 c 1
 444 314 l 1
 431 386 380 509 381 631 c 1
 381 847 702 630 702 958 c 0
 702 1112 636 1276 480 1276 c 0
314 94 m 1
 460 238 l 1
 614 84 l 1
 468 -60 l 1
 314 94 l 1
EndSplineSet
EndChar

StartChar: exclam
Encoding: 33 33 51
Width: 682
Flags: W
VStem: 220 229<877.415 1423.21>
LayerCount: 2
Fore
SplineSet
192.5 91.7001953125 m 1
 337.5 236.700195312 l 1
 491.5 82.7001953125 l 1
 346.5 -62.2998046875 l 1
 192.5 91.7001953125 l 1
220 1298 m 0
 220 1364.62718359 260.893554688 1462.95019531 341 1464 c 16
 341.379545614 1464.00497221 341.757988633 1464.00744993 342.135330629 1464.00744993 c 0
 417.5662581 1464.00744993 449 1364.99713722 449 1301 c 0
 449 1206 362.5 451.999023438 350.5 388.999023438 c 1
 326.5 388.999023438 l 1
 314.5 454.999023438 220 1218 220 1298 c 0
EndSplineSet
Validated: 1
EndChar

StartChar: period
Encoding: 46 46 52
Width: 512
Flags: W
HStem: -60 299
VStem: 109 299
LayerCount: 2
Fore
SplineSet
109 94 m 5
 254 239 l 5
 408 85 l 5
 263 -60 l 5
 109 94 l 5
EndSplineSet
Validated: 1
EndChar

StartChar: q
Encoding: 113 113 53
Width: 1002
VWidth: 0
Flags: W
HStem: -404.922 88.9307<890.287 1024.38> -29 68<428.242 704.574> 811 20G<837.119 871> 823 31<446.386 590.182>
VStem: 109 180<176.357 639.337> 706 165<-305.944 -14.8561 52.4866 754.031> 1038 29<-272.064 -263.678>
LayerCount: 2
Fore
SplineSet
706.891890798 -14.8561446833 m 1xee
 670.315554847 -23.5661360714 626.073163922 -28.1553447102 564 -29 c 0
 513 -29 416 -22 367 -8 c 1
 197 45 109 185 109 406 c 0
 109 625 195 779 361 834 c 0
 406 848 455 854 502 854 c 0xde
 565 854 623 843 680 825 c 0
 688.4921875 822.263671875 696.841796875 819.384765625 705 816.315429688 c 2
 790 783.185546875 l 1
 871 831 l 1
 871 -186.991210938 l 1
 871 -186.991210938 870.916379442 -188.839594676 870.916379442 -192.093851887 c 0
 870.916379442 -216.025929516 875.438791338 -315.991210938 951 -315.991210938 c 0
 980 -315.991210938 1034 -273.991210938 1038 -246.991210938 c 1
 1067 -279.991210938 l 1
 1055.00481841 -342.965914297 1013.03372402 -404.921904995 905.130065087 -404.921904995 c 0
 905 -404.921875 l 0
 797 -404.872070312 762 -347.991210938 737 -310.991210938 c 1
 708 -257.991210938 707.91239861 -177.982421875 706.891890798 -101.991210938 c 2
 706.891890798 -14.8561446833 l 1xee
706 62.8517261784 m 1
 706 704 l 1
 647.20703125 778.518554688 600.0703125 823 510 823 c 0
 473 823 437 807 408 782 c 0
 318.84765625 708.509765625 289 555.059570312 289 401 c 0
 289 309 299.184570312 234.07421875 328 162 c 0
 353.161132812 99.064453125 460 41 566 39 c 0
 577.795608728 39 663.484649473 49.6228322843 706 62.8517261784 c 1
EndSplineSet
Validated: 1
EndChar

StartChar: g
Encoding: 103 103 54
Width: 1028
VWidth: 0
Flags: W
HStem: -391.65 32.709<467.521 614.329> -339.787 125.806<191.18 244.995> 16.4795 42.8623<369.566 567.708> 172.5 32.8574<524.701 592.793> 822.595 31.8574<434.662 585.731>
VStem: 109 184<337.825 690.188> 705 185<330.627 690.699> 731.383 179.045<-286.849 -76.1385>
LayerCount: 2
Back
SplineSet
295 531 m 0
 295 472.126953125 319.18519824 404.074469794 348 332 c 0
 361.969363048 297.058429226 401.115293102 263.618337639 451.316298442 240.440708932 c 1
 454.698242188 241.395507812 l 2
 454.400847019 240.702428128 454.102806682 240.005423094 453.804106983 239.304595875 c 0
 493.479691673 221.383943853 539.819456192 209.871331015 586 209 c 0
 708.533203125 209 878.704101562 311.613967896 858.704101562 519.614257812 c 1
 887.704101562 470.614257812 l 1
 941.704101562 308.613967896 731 143 584 141 c 0
 542.5310849 141 470.648920164 145.628103205 418.887700125 154.884309616 c 1
 403.781032959 119.869684485 386.664254091 84.5749182875 366.517426527 56.413988076 c 1
 386.047293066 58.5064621458 406.047885044 59.551784763 426.2890625 59.341796875 c 0
 476.901367188 58.3798828125 573.743164062 52.134765625 623.525390625 42.3779296875 c 0
 796.607421875 5.734375 892.231445312 -59.3232421875 910.427734375 -198.440429688 c 0
 918.353515625 -259.03515625 845.134765625 -350.124023438 684.93359375 -381.692382812 c 0
 641.430664062 -389.674804688 593.298828125 -392.537109375 546.65625 -391.650390625 c 0
 484.133789062 -390.461914062 425.666992188 -382.427734375 367.615234375 -369.997070312 c 0
 331.623046875 -362.150390625 297.874023438 -352.795898438 269.557617188 -339.787109375 c 1
 218.4296875 -319.9765625 168.004882812 -290.212890625 167.926757812 -251.036132812 c 1
 163.8828125 -220.123046875 201.046875 -227.536132812 245.704101562 -228.385742188 c 0
 351.614257812 -230.397460938 412.267578125 -356.586914062 536.158203125 -358.94140625 c 0
 572.876953125 -359.639648438 607.283203125 -350.224609375 634 -334.999023438 c 0
 716.41015625 -290.31640625 738.12890625 -243.461914062 731.3828125 -191.890625 c 0
 726.525390625 -154.749023438 710.801757812 -111.623046875 676.2578125 -65.6083984375 c 0
 646.094726562 -25.4296875 535.275390625 13.21875 429.916992188 16.4794921875 c 1
 308.313476562 18.7900390625 162.198242188 -40.734375 145.231445312 -85.09375 c 1
 112.408203125 -53.6337890625 l 1
 131.840657011 -25.2813866219 181.735395486 6.97625075349 247.287566429 29.7482969319 c 1
 303.66172814 57.9699170374 340.027898897 119.350774825 361.719341811 170.420055269 c 1
 206.938211647 225.477410903 115 326.647721958 115 536 c 0
 115 632.046875 215 779 381 834 c 0
 426 848 475 854 522 854 c 0
 585 854 643 843 700 825 c 0
 735.321 813.619 768.177 799.774 795.063 779.958 c 1
 844.092 750.023 891.098 704.25 886 642 c 1
 886 593 847 566 802 566 c 0
 695.280273438 566 654.839 823 530 823 c 0
 493 823 457 807 428 782 c 0
 338.848 708.51 295 612.743164062 295 531 c 0
EndSplineSet
Fore
SplineSet
536.708007812 205.357421875 m 0xfe
 635.103790283 214.952545166 705 296.4921875 705 512.75 c 3xfe
 705 738.243164062 623 822.594726562 514 822.594726562 c 3
 408 822.594726562 293 747.477539062 293 521.985351562 c 3
 293 326.471905813 346.314186388 248.314137658 422.883903325 221.875401576 c 1
 434.707885742 214.5 450.707885742 204.5 439.970444519 185.791448084 c 1
 424.046898787 150.008340396 386.136047165 83.8365999226 366.517426527 56.413988076 c 1
 386.047293066 58.5064621458 406.046795835 59.341796875 426.2890625 59.341796875 c 3
 657.128426094 59.341796875 910.427734375 -4.60020751948 910.427734375 -198.440429688 c 3
 910.427734375 -298.50928881 748.187812544 -391.650390625 546.65625 -391.650390625 c 3
 448.895388891 -391.650390625 341.346603172 -372.767557792 269.557617188 -339.787109375 c 1
 218.4296875 -319.9765625 168.004882812 -290.212890625 167.926757812 -251.036132812 c 1
 167.721214452 -249.464900003 167.620577441 -247.955639191 167.620577441 -246.506221348 c 0
 167.620577441 -220.917459597 198.987294329 -213.980657678 238.228319044 -213.980657678 c 0
 240.49528134 -213.980657678 242.788523329 -214.003808542 245.103515625 -214.047851562 c 0
 351.013671875 -216.059570312 412.24520705 -358.94140625 536.158203125 -358.94140625 c 3
 656.534395091 -358.94140625 731.3828125 -263.060493233 731.3828125 -191.890625 c 3xfd
 731.3828125 -58.906763388 598.298630419 16.4794921875 429.916992188 16.4794921875 c 3
 308.291527587 16.4794921875 162.198242188 -40.734375 145.231445312 -85.09375 c 1
 112.408203125 -53.6337890625 l 1
 131.840657011 -25.2813866219 181.735395486 6.97625075349 247.287566429 29.7482969319 c 1
 294.69457306 53.4808455121 343.737086068 124.515077505 371.039066329 176.88291315 c 1
 254.811229739 189.924003437 108.999585639 323.409698877 108.999585639 506.826725417 c 0
 108.999585639 770.422549467 302.641180296 854.452148438 512 854.452148438 c 3
 631.499431136 854.452148438 718.333007812 826.751953125 796.137695312 753.288085938 c 1
 822.559570312 791.27734375 853.23046875 844.157226562 858.208007812 890.614257812 c 1
 884.262117251 847.088164623 912.822496113 809.155927267 978.208007812 776.614257812 c 1
 963.11713834 779.421774264 949.586375314 780.710265517 937.375579856 780.710265517 c 0
 879.59795545 780.710265517 851.372863997 751.862450505 827.260742188 718.588867188 c 1
 865.944335938 667.409179688 889.321289062 599.5078125 890 511.2109375 c 3
 890 509.671875 890 508.90234375 890 507.362304688 c 3
 890 263.26836654 707.103790283 181.952545166 536.708007812 172.5 c 1
 528.013506298 172.5 524.523713922 179.002001951 524.523713922 186.224736332 c 0
 524.523713922 194.921244638 529.582963847 204.662618972 536.708007812 205.357421875 c 0xfe
EndSplineSet
Validated: 1
EndChar

StartChar: z
Encoding: 122 122 55
Width: 934
VWidth: 0
Flags: W
HStem: 0 43<246.5 751.35> 794.014 30.6309<188.807 605.5>
VStem: 767.5 70.0734<46.0245 210.706>
LayerCount: 2
Fore
SplineSet
55 0 m 1
 55 45 l 1
 238.033760136 305.470797155 605.5 794.013671875 605.5 794.013671875 c 29
 220.5 794.013671875 l 22
 198.5 794.0234375 188.598632812 776.734375 181.5 772.912109375 c 4
 181.5 772.912109375 166.5 737.912109375 159.5 723.912109375 c 4
 149.5 703.912109375 150.5 666.912109375 120.5 666.912109375 c 4
 116.5 666.912109375 114.5 668.912109375 110.5 672.912109375 c 4
 89.5 693.912109375 89.5 742.912109375 89.5 781.912109375 c 6
 89.5 824.64453125 l 6
 786.5 824.64453125 l 4
 786.5 773 l 5
 246.5 43 l 9
 720.5 43 l 18
 720.523563896 42.9999500319 720.547115554 42.999925061 720.570654981 42.999925061 c 0
 755.510770254 42.999925061 763.502693017 98.0161581003 767.5 122 c 0
 770.956290779 142.737744671 776.5 211 804.5 211 c 0
 835.142038435 211 837.573376054 109.059286401 837.573376054 60.186282143 c 0
 837.573376054 53.2354823595 837.524197387 47.3580831599 837.5 43 c 2
 837.5 0 l 25
 55 0 l 1
EndSplineSet
Validated: 1
EndChar

StartChar: J
Encoding: 74 74 56
Width: 628
VWidth: 0
Flags: W
HStem: 1256 20G<177.5 458.5>
VStem: 205 227<-45.5568 1173.36>
LayerCount: 2
Fore
SplineSet
432 160 m 2
 432 14 317 -345 17 -412 c 1
 9 -378 l 1
 155 -228 205 -18 205 160 c 2
 205 1116 l 2
 205 1171 111 1182 111 1223 c 3
 111 1248 150 1276 205 1276 c 2
 432 1276 l 2
 485 1276 526 1250 526 1223 c 3
 526 1182 432 1171 432 1116 c 2
 432 160 l 2
EndSplineSet
Validated: 1
EndChar

StartChar: K
Encoding: 75 75 57
Width: 1459
VWidth: 0
Flags: W
HStem: 0 21G<179.5 459.5 1039.5 1319.5> 1256 20G<177.5 458.5>
VStem: 205 227<102.638 541.678 589.197 1173.36> 1085.75 171.247<1156 1252.5>
LayerCount: 2
Fore
SplineSet
205 160 m 2
 205 1116 l 2
 205 1171 111 1182 111 1223 c 0
 111 1248 150 1276 205 1276 c 2
 432 1276 l 2
 485 1276 526 1250 526 1223 c 0
 526 1182 432 1171 432 1116 c 2
 432 589.197080292 l 1
 1082 1150 l 2
 1084.5854541 1152.23064925 1085.75256633 1154.68727094 1085.75256633 1157.32246234 c 0
 1085.75256633 1181.80654933 985 1221.70591281 985 1239 c 0
 985 1264 1044 1270 1099 1270 c 2
 1142 1270 l 2
 1195 1270 1257 1266 1257 1239 c 0
 1257 1198 1166.60546875 1186.52148438 1125 1150 c 2
 742.478174326 814.218903025 l 1
 1212 160 l 2
 1244.07226562 115.3125 1386 94 1386 53 c 0
 1386 28 1347 0 1292 0 c 2
 1067 0 l 2
 1012 0 971 26 971 53 c 0
 971 83.323076336 996.88957893 103.386364724 996.88957893 129.481149126 c 0
 996.88957893 138.669267706 993.679832355 148.605161047 985 160 c 2
 589.172343765 679.645666929 l 1
 432 541.678370787 l 1
 432 160 l 2
 432 105 526 94 526 53 c 0
 526 28 487 0 432 0 c 2
 207 0 l 2
 152 0 111 26 111 53 c 0
 111 94 205 105 205 160 c 2
EndSplineSet
Validated: 1
EndChar

StartChar: X
Encoding: 88 88 58
Width: 1139
Flags: W
HStem: -0 21G<169.5 266.5 737.5 970.5> 1256 20G<184.5 417.5 856.5 953.5>
VStem: 81 156<18.5 111> 117 334<1124 1245.17> 704 334<30.8333 152> 886 156<1166 1258.5>
LayerCount: 2
Fore
SplineSet
653.115342776 725.570882257 m 1xd4
 943 160 l 2
 968 111 1038 94 1038 53 c 0
 1038 28 998 0 943 -0 c 2
 765 -0 l 2
 710 0 608 26 608 53 c 0
 608 92 704 105 704 150 c 0
 704 154 704 156 702 160 c 2
 487.302810601 578.878598093 l 1
 239 118 l 2
 237 114 237 112 237 110 c 0
 237 67 353 71 353 32 c 0
 353 7 294 1 239 1 c 2
 196 1 l 2
 143 1 81 5 81 32 c 0xe8
 81 73 170 69 196 118 c 2
 466.335269454 619.78669878 l 1
 212 1116 l 1
 192 1167 117 1182 117 1223 c 0
 117 1248 157 1276 212 1276 c 2
 390 1276 l 2
 445 1276 547 1250 547 1223 c 0
 547 1184 451 1171 451 1126 c 0
 451 1122 451 1120 453 1116 c 2
 635.137173845 760.646656744 l 1
 884 1159 l 2
 886 1162 886 1165 886 1167 c 0
 886 1210 770 1206 770 1245 c 0
 770 1270 829 1276 884 1276 c 2
 927 1276 l 2
 980 1276 1042 1272 1042 1245 c 0
 1042 1204 952 1208 927 1159 c 1
 653.115342776 725.570882257 l 1xd4
EndSplineSet
Validated: 1
EndChar

StartChar: Y
Encoding: 89 89 59
Width: 1286
VWidth: 0
Flags: W
HStem: 0 21G<521.5 801.5> 1256 20G<132.5 365.5>
VStem: 65 334<1124 1245.17> 545.278 227.722<104.04 435.557> 1069 156<1162.9 1255.4>
LayerCount: 2
Fore
SplineSet
1067 1155.90039062 m 1
 1067.97265625 1159.91015625 1069 1161.90039062 1069 1163.90039062 c 0
 1069 1206.90039062 953 1202.90039062 953 1241.90039062 c 0
 953 1266.90039062 1012 1272.90039062 1067 1272.90039062 c 2
 1110 1272.90039062 l 2
 1163 1272.90039062 1225 1268.90039062 1225 1241.90039062 c 0
 1225 1200.90039062 1123.33984375 1209.63476562 1110 1155.90039062 c 1
 773 479.900390625 l 9
 773 160 l 2
 773.171875 105.002929688 868 94 868 53 c 0
 868 28 829 0 774 0 c 2
 549 0 l 2
 494 0 453 26 453 53 c 0
 453 93.924058093 545.278298222 104.963039553 545.278298222 159.694854151 c 0
 545.278298222 159.796418819 545.277980458 159.898133945 545.27734375 160 c 2
 545.27734375 435.556640625 l 1
 160 1116 l 1
 128.794921875 1161.01953125 65 1182 65 1223 c 0
 65 1248 105 1276 160 1276 c 2
 338 1276 l 2
 393 1276 495 1250 495 1223 c 0
 495 1184 399 1171 399 1126 c 0
 399 1122 398.720703125 1119.43457031 401 1116 c 2
 751 528.400390625 l 1
 1067 1155.90039062 l 1
EndSplineSet
Validated: 1
EndChar

StartChar: Z
Encoding: 90 90 60
Width: 1283
VWidth: 0
Flags: W
HStem: 0 37<338.5 914.467> 1238.3 37.7012<349.031 839.25>
LayerCount: 2
Back
SplineSet
98 94 m 1
 850 1255 l 1
 600 1255 l 2
 512.666666667 1255 440.333333333 1253 383 1249 c 128
 325.666666667 1245 284.666666667 1240.33333333 260 1235 c 1
 229 1024 l 1
 160 1024 l 1
 160 1341 l 1
 1073 1341 l 1
 1073 1255 l 1
 316 84 l 1
 606 84 l 2
 649.333333333 84 692.5 85.1666666667 735.5 87.5 c 128
 778.5 89.8333333333 818.333333333 92.8333333333 855 96.5 c 128
 891.666666667 100.166666667 923.666666667 103.833333333 951 107.5 c 128
 978.333333333 111.166666667 998 114.333333333 1010 117 c 1
 1069 373 l 1
 1139 373 l 1
 1112 0 l 1
 98 0 l 1
 98 94 l 1
EndSplineSet
Fore
SplineSet
1091.25 1276.34765625 m 5
 338.5 37 l 1
 818.5 37 l 2
 953.5 37 1002.5 121 1076.5 217 c 0
 1117.5 270 1142.5 324 1187.5 324 c 0
 1216.5 324 1224.5 302 1224.5 279 c 0
 1224.5 222 1170.5 86 1113.5 0 c 1
 63.25 0 l 1
 839.25 1238.29882812 l 1
 445 1238.29882812 l 1
 444.997567636 1238.29882813 l 0
 309.999411425 1238.29882813 260.999555566 1156.99942344 187 1061 c 0
 146 1008 122 954 77 954 c 0
 48 954 40 976 40 999 c 0
 40 1056 116 1190 173 1276 c 1
 1091.25 1276.34765625 l 5
EndSplineSet
Validated: 1
EndChar

StartChar: five
Encoding: 53 53 61
Width: 1097
Flags: W
HStem: -18 37<448.422 602.173> 1148 193<256 916>
VStem: 206 50<881 1148> 720 262<145.868 471.824>
LayerCount: 2
Fore
SplineSet
206 856 m 17
 206 1341 l 1
 916 1341 l 1
 916 1148 l 1
 256 1148 l 1
 256 881 l 17
 567 761.099609375 l 2
 762.446289062 685.749023438 982 518.778562324 982 318 c 3
 982 77 791 -18 572 -18 c 11
 430.638671875 -18 318 10 226 90 c 0
 138 166 116 312 116 369 c 0
 116 392 123 414 152 414 c 0
 197 414 253 367 284 308 c 0
 323 231 348 19 530 19 c 0
 676 19 720 186.53125 720 328 c 27
 720 522.234375 653.784179688 678.178710938 462 754 c 2
 206 856 l 17
EndSplineSet
Validated: 1
EndChar

StartChar: six
Encoding: 54 54 62
Width: 1316
VWidth: 0
Flags: W
HStem: -29.0791 27<495.388 633.417> 768 57.0059<432.496 666.216> 1276 31.1362<546.609 680.731>
VStem: 87 248.758<347.156 739.937 772.499 892.719> 820.5 215<179.047 551.153>
LayerCount: 2
Back
SplineSet
679.5 719.920898438 m 0
 806.501953125 719.920898438 890.5 604.874023438 890.5 358.920898438 c 0
 890.5 110.920898438 792.5 -2.0791015625 681.5 -2.0791015625 c 8
 396.978515625 -2.0791015625 337 307 337 641 c 0
 337 973 396 1276 675 1276 c 0
 677 1276 l 8
814.059570312 734.828125 m 1
 970.717773438 698.001953125 1103.94238281 589.047851562 1105.5 356.920898438 c 0
 1105.5 354.920898438 1105.5 353.920898438 1105.5 351.920898438 c 0
 1105.5 71.9208984375 886.5 -29.0791015625 681.5 -29.0791015625 c 8
 332.142578125 -29.0791015625 87 289 87 641 c 0
 87 991 329 1307 675 1307 c 0
 679 1307 l 8
963 416 m 4xf8
 963 346.666666667 954.166666667 285 936.5 231 c 4
 918.833333333 177 892.666666667 131.333333333 858 94 c 4
 823.333333333 56.6666666667 780.5 28.3333333333 729.5 9 c 4
 678.5 -10.3333333333 619.666666667 -20 553 -20 c 4
 479.666666667 -20 414.166666667 -5.66666666667 356.5 23 c 4
 298.833333333 51.6666666667 250.166666667 94.5 210.5 151.5 c 4
 170.833333333 208.5 140.5 279.5 119.5 364.5 c 4
 98.5 449.5 88 548.666666667 88 662 c 4
 88 783.333333333 101.833333333 887.666666667 129.5 975 c 4
 157.166666667 1062.33333333 194.166666667 1134.33333333 240.5 1191 c 4
 286.833333333 1247.66666667 340.333333333 1289.33333333 401 1316 c 4
 461.666666667 1342.66666667 524.666666667 1356 590 1356 c 4
 640 1356 690.666666667 1352.66666667 742 1346 c 4
 793.333333333 1339.33333333 839.666666667 1331 881 1321 c 5
 881 1090 l 5
 815 1090 l 5xf4
 780 1227 l 5
 768 1233.66666667 754.166666667 1239.66666667 738.5 1245 c 4
 722.833333333 1250.33333333 706.5 1255 689.5 1259 c 4
 672.5 1263 655.5 1266.16666667 638.5 1268.5 c 4
 621.5 1270.83333333 605.333333333 1272 590 1272 c 4
 542.666666667 1272 500.166666667 1260.66666667 462.5 1238 c 4
 424.833333333 1215.33333333 392.333333333 1181 365 1135 c 4
 337.666666667 1089 316.166666667 1031.33333333 300.5 962 c 4
 284.833333333 892.666666667 275.666666667 811 273 717 c 5
 321 742.333333333 373.5 763 430.5 779 c 4
 487.5 795 544 803 600 803 c 260
 656 803 706.5 795.166666667 751.5 779.5 c 4
 796.5 763.833333333 834.666666667 740 866 708 c 4
 897.333333333 676 921.333333333 635.666666667 938 587 c 4
 954.666666667 538.333333333 963 481.333333333 963 416 c 4xf8
549 59 m 4
 591.666666667 59 627.666666667 66 657 80 c 4
 686.333333333 94 710 115.166666667 728 143.5 c 4
 746 171.833333333 758.833333333 207.166666667 766.5 249.5 c 4
 774.166666667 291.833333333 778 341 778 397 c 4xf8
 778 506.333333333 760.833333333 585.333333333 726.5 634 c 4
 692.166666667 682.666666667 637.666666667 707 563 707 c 4
 517.666666667 707 470.166666667 702.666666667 420.5 694 c 4
 370.833333333 685.333333333 321.333333333 673 272 657 c 5
 272 561 277.166666667 476 287.5 402 c 4
 297.833333333 328 314.333333333 265.5 337 214.5 c 4
 359.666666667 163.5 388.333333333 124.833333333 423 98.5 c 4
 457.666666667 72.1666666667 499.666666667 59 549 59 c 4
EndSplineSet
Fore
SplineSet
922 1235.99902344 m 0
 1010.88183594 1159.75195312 1033 1014 1033 957 c 0
 1033 934 1025 912 996 912 c 0
 951 912 926 966 885 1019 c 0
 789.331227057 1143.11105161 728.568355948 1276.00012195 625.171580582 1276.00012195 c 0
 625 1276 l 0
 420.258236576 1275.70900239 354.167253205 1048.83435336 340.10924987 772.499133844 c 1
 418.570819926 794.593007535 539.764277266 825.005885642 612.383161774 825.005885642 c 0
 612.5 825.005859375 l 0
 848.5 824.89869947 1033.94238281 589.047851562 1035.5 356.920898438 c 1
 1035.5 73.1107492035 780.02688519 -29.0791015625 571.5 -29.0791015625 c 0
 249.012695312 -29.0791015625 87 289 87 641 c 0
 87 991 332.411399236 1307 625 1307 c 0
 639.380909554 1307 653.915231942 1307.13629863 668.530907848 1307.13629863 c 0
 755.164611223 1307.13629863 844.65664406 1302.34749054 922 1235.99902344 c 0
338.228152577 725.849836094 m 1
 337.381061075 697.899457424 337 669.558261326 337 641 c 0
 337 575.672300856 335.758392148 511.297980504 335.758392148 450.003281886 c 0
 335.758392148 197.917445036 356.759176452 -2.0791015625 571.5 -2.0791015625 c 0
 682.5 -2.0791015625 820.5 110.920898438 820.5 358.920898438 c 0
 820.5 604.874023438 707.501953125 768 580.5 768 c 0
 478.13882659 768 415.97961805 753.311556128 338.228152577 725.849836094 c 1
EndSplineSet
Validated: 1
EndChar

StartChar: seven
Encoding: 55 55 63
Width: 1136
Flags: W
HStem: 0 21G<142.25 403.858> 633.9 43.9922<240 499.053 761.044 966> 1240.3 35.7012<353.238 839.25>
LayerCount: 2
Fore
SplineSet
1024 1276.39550781 m 1
 1024 1162.22460938 l 1
 761.044363668 677.892578125 l 1
 966 677.892578125 l 1
 966 633.900390625 l 1
 737.159935401 633.900390625 l 1
 393 0 l 1
 309.416992188 0 225.833007812 0 142.25 0 c 1
 499.052867153 633.900390625 l 1
 240 633.900390625 l 1
 240 677.892578125 l 1
 523.814704919 677.892578125 l 1
 839.25 1240.29882812 l 1
 445 1240.29882812 l 2
 444.419513803 1240.29934498 l 0
 309.859356813 1240.29934498 260.893838895 1156.86227748 187 1061 c 0
 146 1008 122 954 77 954 c 0
 48 954 40 976 40 999 c 0
 40 1056 116 1190 173 1276 c 1
 1024 1276.39550781 l 1
EndSplineSet
Validated: 1
EndChar

StartChar: eight
Encoding: 56 56 64
Width: 1028
VWidth: 0
Flags: W
HStem: -29 27<447.33 575.17> 720 30<443.013 585.725> 1281 20<459.386 562.666>
VStem: 89 214<159.715 552.148> 132 206<855.117 1159.34> 686 208<858.045 1157.61> 725 215<165.379 551.713>
LayerCount: 2
Back
SplineSet
905 1014 m 0xec
 905 940.666666667 887.166666667 878.5 851.5 827.5 c 0
 815.833333333 776.5 767.666666667 737.666666667 707 711 c 1
 743 697.666666667 775.666666667 680.333333333 805 659 c 0
 834.333333333 637.666666667 859.5 612.5 880.5 583.5 c 0
 901.5 554.5 917.666666667 521.5 929 484.5 c 0
 940.333333333 447.5 946 406.666666667 946 362 c 0
 946 235.333333333 910.333333333 140 839 76 c 0
 767.666666667 12 656.666666667 -20 506 -20 c 0
 363.333333333 -20 256.333333333 11.5 185 74.5 c 0
 113.666666667 137.5 78 233.333333333 78 362 c 0xf2
 78 450.666666667 99.3333333333 524.166666667 142 582.5 c 0
 184.666666667 640.833333333 242.333333333 683.666666667 315 711 c 1
 257 737.666666667 209.833333333 776.333333333 173.5 827 c 0
 137.166666667 877.666666667 119 940 119 1014 c 0
 119 1066.66666667 127.166666667 1114.5 143.5 1157.5 c 0
 159.833333333 1200.5 184.333333333 1237.16666667 217 1267.5 c 0
 249.666666667 1297.83333333 290.666666667 1321.16666667 340 1337.5 c 0
 389.333333333 1353.83333333 447.333333333 1362 514 1362 c 0
 578 1362 634.333333333 1354 683 1338 c 0
 731.666666667 1322 772.5 1299 805.5 1269 c 0
 838.5 1239 863.333333333 1202.5 880 1159.5 c 0
 896.666666667 1116.5 905 1068 905 1014 c 0xec
766 362 m 0
 766 410.666666667 761.666666667 453.833333333 753 491.5 c 0
 744.333333333 529.166666667 729.833333333 561 709.5 587 c 0
 689.166666667 613 662.333333333 632.666666667 629 646 c 0
 595.666666667 659.333333333 554.666666667 666 506 666 c 0
 456.666666667 666 416 659.333333333 384 646 c 0
 352 632.666666667 326.666666667 613 308 587 c 0
 289.333333333 561 276.333333333 529.166666667 269 491.5 c 0
 261.666666667 453.833333333 258 410.666666667 258 362 c 0
 258 312.666666667 261.666666667 269.166666667 269 231.5 c 0
 276.333333333 193.833333333 289.333333333 162.333333333 308 137 c 0
 326.666666667 111.666666667 352 92.3333333333 384 79 c 0
 416 65.6666666667 456.666666667 59 506 59 c 0
 554.666666667 59 595.666666667 65.6666666667 629 79 c 0
 662.333333333 92.3333333333 689.166666667 111.666666667 709.5 137 c 0
 729.833333333 162.333333333 744.333333333 193.833333333 753 231.5 c 0
 761.666666667 269.166666667 766 312.666666667 766 362 c 0
725 1014 m 0xec
 725 1053.33333333 721.5 1089.33333333 714.5 1122 c 0
 707.5 1154.66666667 695.666666667 1182.83333333 679 1206.5 c 0
 662.333333333 1230.16666667 640 1248.66666667 612 1262 c 0
 584 1275.33333333 549.333333333 1282 508 1282 c 256
 466.666666667 1282 432.5 1275.33333333 405.5 1262 c 0
 378.5 1248.66666667 357.166666667 1230.16666667 341.5 1206.5 c 0
 325.833333333 1182.83333333 314.833333333 1154.66666667 308.5 1122 c 0
 302.166666667 1089.33333333 299 1053.33333333 299 1014 c 0
 299 974 302.166666667 938 308.5 906 c 0
 314.833333333 874 325.833333333 846.666666667 341.5 824 c 0
 357.166666667 801.333333333 378.5 784 405.5 772 c 0
 432.5 760 466.666666667 754 508 754 c 256
 549.333333333 754 584 760 612 772 c 0
 640 784 662.333333333 801.333333333 679 824 c 0
 695.666666667 846.666666667 707.5 874 714.5 906 c 0
 721.5 938 725 974 725 1014 c 0xec
EndSplineSet
Fore
SplineSet
303 355 m 0xf2
 303 80 407 -2 516 -2 c 0
 627 -2 725 111 725 359 c 0
 725 604.952481956 641.002219201 720.00000546 514 720 c 0
 383.155794616 720 303 605.129670499 303 355 c 0xf2
511 1301 m 0
 691 1301 892 1230 894 1007 c 0
 894 1006 894 1005 894 1004 c 0xec
 894 847.119012738 780.748460955 765.739051506 648.559552583 734.907040015 c 1
 805.217685726 698.080407785 938.44210631 589.126160017 940 357 c 0
 940 355 940 354 940 352 c 0
 940 72 721 -29 516 -29 c 0
 311 -29 89 59 89 352 c 0xf2
 89 586.877478384 218.444212845 697.149779917 374.306502258 734.565192152 c 1
 243.620241658 763.891222719 131.999999979 841.606899042 132 1004 c 0xe8
 132 1229 329 1301 511 1301 c 0
686 1009 m 0
 686 1202 607 1281 512 1281 c 0
 413 1281 338 1202 338 1006 c 0
 338 821.254840155 393.034397545 750.000001811 512 750 c 0
 633.182104146 750 686 837.816987345 686 1009 c 0
EndSplineSet
Validated: 1
EndChar

StartChar: nine
Encoding: 57 57 65
Width: 1316
VWidth: 0
Flags: W
HStem: -29.2154 31.1362<441.768 575.891> 452.915 57.0059<456.284 690.004> 1280 27<489.49 627.112>
VStem: 87 215<728.077 1104.21> 786.742 248.758<385.202 505.422 537.984 930.765>
LayerCount: 2
Back
SplineSet
66 932 m 0xf4
 66 1000.66666667 76 1061.5 96 1114.5 c 0
 116 1167.5 144.666666667 1211.83333333 182 1247.5 c 0
 219.333333333 1283.16666667 264.666666667 1310.16666667 318 1328.5 c 0
 371.333333333 1346.83333333 431.333333333 1356 498 1356 c 0
 574 1356 639.666666667 1342.66666667 695 1316 c 0
 750.333333333 1289.33333333 796.166666667 1248.16666667 832.5 1192.5 c 0
 868.833333333 1136.83333333 895.833333333 1066 913.5 980 c 0
 931.166666667 894 940 792 940 674 c 0
 940 588 933.5 511.166666667 920.5 443.5 c 0
 907.5 375.833333333 889.333333333 316.333333333 866 265 c 0
 842.666666667 213.666666667 814.833333333 169.833333333 782.5 133.5 c 0
 750.166666667 97.1666666667 714.666666667 67.6666666667 676 45 c 0
 637.333333333 22.3333333333 596.166666667 5.83333333333 552.5 -4.5 c 0
 508.833333333 -14.8333333333 464 -20 418 -20 c 0
 359.333333333 -20 306.166666667 -17.1666666667 258.5 -11.5 c 0
 210.833333333 -5.83333333333 164.333333333 2.66666666667 119 14 c 1
 119 246 l 1
 184 246 l 1xec
 219 102 l 1
 231.666666667 96 245.833333333 90.6666666667 261.5 86 c 0
 277.166666667 81.3333333333 293.5 77.1666666667 310.5 73.5 c 0
 327.5 69.8333333333 344.833333333 67.1666666667 362.5 65.5 c 0
 380.166666667 63.8333333333 397.333333333 63 414 63 c 0
 460.666666667 63 504.166666667 72.8333333333 544.5 92.5 c 0
 584.833333333 112.166666667 620 144 650 188 c 0
 680 232 704.166666667 289.166666667 722.5 359.5 c 0
 740.833333333 429.833333333 751.666666667 515.666666667 755 617 c 1
 711 592.333333333 663.333333333 572 612 556 c 0
 560.666666667 540 505.333333333 532 446 532 c 0
 390 532 338.666666667 540.5 292 557.5 c 0
 245.333333333 574.5 205.166666667 599.833333333 171.5 633.5 c 0
 137.833333333 667.166666667 111.833333333 709 93.5 759 c 0
 75.1666666667 809 66 866.666666667 66 932 c 0xf4
500 1276 m 0
 414 1276 350.833333333 1246.16666667 310.5 1186.5 c 0
 270.166666667 1126.83333333 250 1040.66666667 250 928 c 0xf4
 250 873.333333333 255.5 827 266.5 789 c 0
 277.5 751 293.5 720.166666667 314.5 696.5 c 0
 335.5 672.833333333 361.166666667 655.666666667 391.5 645 c 0
 421.833333333 634.333333333 456.666666667 629 496 629 c 0
 540 629 584 633.666666667 628 643 c 0
 672 652.333333333 714.666666667 665.333333333 756 682 c 1
 756 780 751.333333333 866.166666667 742 940.5 c 0
 732.666666667 1014.83333333 718 1076.83333333 698 1126.5 c 0
 678 1176.16666667 651.666666667 1213.5 619 1238.5 c 0
 586.333333333 1263.5 546.666666667 1276 500 1276 c 0
EndSplineSet
Fore
SplineSet
200.5 41.921875 m 0
 111.618164062 118.168945312 89.5 263.920898438 89.5 320.920898438 c 0
 89.5 343.920898438 97.5 365.920898438 126.5 365.920898438 c 0
 171.5 365.920898438 196.5 311.920898438 237.5 258.920898438 c 0
 333.168645268 134.810012463 393.931665561 1.92077589888 497.328005759 1.92077589888 c 0
 497.385324067 1.92077589888 497.442655476 1.92081673704 497.5 1.9208984375 c 0
 702.241735773 2.21172476672 768.332728943 229.086437803 782.390744434 505.421643368 c 1
 703.929563571 483.3277795 582.736923812 452.915012307 510.117919335 452.915012307 c 0
 510 452.915039062 l 0
 272.281265208 453.023243267 87 690.619049702 87 926 c 0
 87 1206 346 1307 551 1307 c 0
 873.487304688 1307 1035.5 988.920898438 1035.5 636.920898438 c 0
 1035.5 286.920898438 790.088867188 -29.0791015625 497.5 -29.0791015625 c 0
 483.118914687 -29.0791015625 468.584410967 -29.2154056475 453.968551586 -29.2154056475 c 0
 367.334998111 -29.2154056475 277.843121573 -24.4265426086 200.5 41.921875 c 0
784.271847546 552.071062387 m 1
 785.118938962 580.021442292 785.5 608.362638493 785.5 636.920898438 c 0
 785.5 702.248597581 786.741607852 766.622917933 786.741607852 827.917616552 c 0
 786.741607852 1080.0034534 765.740823548 1280 551 1280 c 0
 440 1280 302 1167 302 919 c 0
 302 673.046875 414.998046875 509.920898438 542 509.920898438 c 0
 644.361173464 509.920898438 706.520382016 524.609342325 784.271847546 552.071062387 c 1
EndSplineSet
Validated: 1
EndChar

StartChar: colon
Encoding: 58 58 66
Width: 569
Flags: W
VStem: 139 299
LayerCount: 2
Fore
SplineSet
139 834 m 1
 284 979 l 1
 438 825 l 1
 293 680 l 1
 139 834 l 1
139 94 m 1
 284 239 l 1
 438 85 l 1
 293 -60 l 1
 139 94 l 1
EndSplineSet
Validated: 1
EndChar

StartChar: semicolon
Encoding: 59 59 67
Width: 569
Flags: W
HStem: -306.6 34<112.5 145.767>
VStem: 284.5 150<-104.977 33.8047>
LayerCount: 2
Fore
SplineSet
139 834 m 1
 284 979 l 1
 438 825 l 1
 293 680 l 1
 139 834 l 1
151.5 121.80078125 m 2
 284.5 247.400390625 l 1
 382.5 145.80078125 l 2
 416.3046875 110.75390625 434.5 62.80859375 434.5 4.80078125 c 3
 434.5 -66.263671875 344.28515625 -182.5 249.5 -244.599609375 c 0
 210.833007812 -269.93359375 163.833007812 -290.599609375 108.5 -306.599609375 c 1
 112.5 -272.599609375 l 1
 189.59375 -248.032226562 284.5 -139.385742188 284.5 -61.599609375 c 0
 284.5 18.0810546875 146.068359375 12.7548828125 146.068359375 105.874023438 c 0
 146.068359375 112.299804688 147.57421875 117.9765625 151.5 121.80078125 c 2
EndSplineSet
Validated: 1
EndChar

StartChar: less
Encoding: 60 60 68
Width: 1155
Flags: W
LayerCount: 2
Fore
SplineSet
102 655 m 1
 102 705 l 1
 1055 1174 l 1
 1055 1071 l 1
 246 680 l 1
 1055 289 l 1
 1055 186 l 1
 102 655 l 1
EndSplineSet
Validated: 1
EndChar

StartChar: equal
Encoding: 61 61 69
Width: 1155
Flags: W
HStem: 424 102<102 1055> 834 102<102 1055>
LayerCount: 2
Fore
SplineSet
1055 526 m 1
 1055 424 l 1
 102 424 l 1
 102 526 l 1
 1055 526 l 1
1055 936 m 1
 1055 834 l 1
 102 834 l 1
 102 936 l 1
 1055 936 l 1
EndSplineSet
Validated: 1
EndChar

StartChar: greater
Encoding: 62 62 70
Width: 1155
Flags: W
LayerCount: 2
Fore
SplineSet
104 186 m 1
 104 289 l 1
 913 680 l 1
 104 1071 l 1
 104 1174 l 1
 1057 705 l 1
 1057 655 l 1
 104 186 l 1
EndSplineSet
Validated: 1
EndChar

StartChar: at
Encoding: 64 64 71
Width: 1802
VWidth: 0
Flags: W
HStem: -393.3 123<572.989 1036.07> 69.7002 64<717 931.196> 71.7002 99<1164.33 1268.33> 567.7 45<834.884 995.5> 1048.7 99<543.122 859.313>
VStem: 121.5 129<152.667 695.094> 534.5 166<206.607 456.028> 995.5 166<174.328 565.7 604.7 887.68> 1273.5 29<186.184 199.014> 1579.5 84<236.079 773.937>
LayerCount: 2
Back
SplineSet
1458 -184 m 1xbf
 1422 -212 1383.83333333 -238.333333333 1343.5 -263 c 0
 1303.16666667 -287.666666667 1258.83333333 -309.333333333 1210.5 -328 c 0
 1162.16666667 -346.666666667 1109.5 -361.5 1052.5 -372.5 c 0
 995.5 -383.5 932.666666667 -389 864 -389 c 0
 743.333333333 -389 636.166666667 -369.5 542.5 -330.5 c 0
 448.833333333 -291.5 369.833333333 -238 305.5 -170 c 0
 241.166666667 -102 192.333333333 -22.3333333333 159 69 c 0
 125.666666667 160.333333333 109 258 109 362 c 0
 109 457.333333333 119.833333333 548.333333333 141.5 635 c 0
 163.166666667 721.666666667 194.166666667 802 234.5 876 c 0
 274.833333333 950 323.833333333 1017.16666667 381.5 1077.5 c 0
 439.166666667 1137.83333333 503.666666667 1189.16666667 575 1231.5 c 0
 646.333333333 1273.83333333 723.833333333 1306.5 807.5 1329.5 c 0
 891.166666667 1352.5 979.666666667 1364 1073 1364 c 0
 1189.66666667 1364 1292 1349.5 1380 1320.5 c 0
 1468 1291.5 1541.5 1250.33333333 1600.5 1197 c 0
 1659.5 1143.66666667 1703.83333333 1079.33333333 1733.5 1004 c 0
 1763.16666667 928.666666667 1778 844.666666667 1778 752 c 0
 1778 683.333333333 1768.66666667 617.666666667 1750 555 c 0
 1731.33333333 492.333333333 1705.66666667 434.166666667 1673 380.5 c 0
 1640.33333333 326.833333333 1601.66666667 278 1557 234 c 0
 1512.33333333 190 1464 152.5 1412 121.5 c 0
 1360 90.5 1305.33333333 66.6666666667 1248 50 c 0
 1190.66666667 33.3333333333 1133 25 1075 25 c 0
 1067 25 1059.16666667 25.6666666667 1051.5 27 c 0
 1043.83333333 28.3333333333 1037 31 1031 35 c 0
 1025 39 1020 44.3333333333 1016 51 c 0
 1012 57.6666666667 1010 66 1010 76 c 0
 1010 94.6666666667 1010.83333333 115.5 1012.5 138.5 c 0
 1014.16666667 161.5 1016 182.333333333 1018 201 c 1
 1000 183 978.833333333 163.666666667 954.5 143 c 0xbf
 930.166666667 122.333333333 904 103.333333333 876 86 c 0
 848 68.6666666667 818.666666667 54.1666666667 788 42.5 c 0
 757.333333333 30.8333333333 726.666666667 25 696 25 c 0xdf
 648 25 610.833333333 43.1666666667 584.5 79.5 c 0
 558.166666667 115.833333333 545 164.333333333 545 225 c 0
 545 280.333333333 550 335.166666667 560 389.5 c 0
 570 443.833333333 584.666666667 495.666666667 604 545 c 0
 623.333333333 594.333333333 647.666666667 640 677 682 c 0
 706.333333333 724 740 760.333333333 778 791 c 0
 810 816.333333333 840.666666667 837.166666667 870 853.5 c 0
 899.333333333 869.833333333 929.5 882.5 960.5 891.5 c 0
 991.5 900.5 1024.33333333 906.666666667 1059 910 c 0
 1093.66666667 913.333333333 1132 915 1174 915 c 0
 1194 915 1194 915 1209.5 915 c 0
 1219.83333333 915 1229.66666667 914.833333333 1239 914.5 c 0
 1248.33333333 914.166666667 1257.5 913.5 1266.5 912.5 c 0
 1275.5 911.5 1285.33333333 910.333333333 1296 909 c 1
 1182 379 l 2
 1178.66666667 365 1175.66666667 349.666666667 1173 333 c 0
 1170.33333333 316.333333333 1168 300.166666667 1166 284.5 c 0
 1164 268.833333333 1162.33333333 254 1161 240 c 0
 1159.66666667 226 1159 214.333333333 1159 205 c 0
 1159 197 1159.66666667 189.166666667 1161 181.5 c 0
 1162.33333333 173.833333333 1165.5 167.166666667 1170.5 161.5 c 0
 1175.5 155.833333333 1182.83333333 151.333333333 1192.5 148 c 0
 1202.16666667 144.666666667 1215.66666667 143 1233 143 c 0
 1276.33333333 143 1317 151.333333333 1355 168 c 0
 1393 184.666666667 1427.5 207.5 1458.5 236.5 c 0
 1489.5 265.5 1517.16666667 299.666666667 1541.5 339 c 0
 1565.83333333 378.333333333 1586.16666667 420.5 1602.5 465.5 c 0
 1618.83333333 510.5 1631.33333333 557.166666667 1640 605.5 c 0
 1648.66666667 653.833333333 1653 702 1653 750 c 0
 1653 836 1639.33333333 912 1612 978 c 0
 1584.66666667 1044 1545.5 1099.5 1494.5 1144.5 c 0
 1443.5 1189.5 1381.83333333 1223.66666667 1309.5 1247 c 0
 1237.16666667 1270.33333333 1156.33333333 1282 1067 1282 c 0
 981.666666667 1282 902.166666667 1270.83333333 828.5 1248.5 c 0
 754.833333333 1226.16666667 687.5 1195 626.5 1155 c 0
 565.5 1115 511.5 1066.83333333 464.5 1010.5 c 0
 417.5 954.166666667 377.833333333 892.166666667 345.5 824.5 c 0
 313.166666667 756.833333333 288.5 684.166666667 271.5 606.5 c 0
 254.5 528.833333333 246 448.333333333 246 365 c 0
 246 277 259 192.666666667 285 112 c 0
 311 31.3333333333 350.833333333 -39.8333333333 404.5 -101.5 c 0
 458.166666667 -163.166666667 525.666666667 -212.5 607 -249.5 c 0
 688.333333333 -286.5 784.333333333 -305 895 -305 c 0
 958.333333333 -305 1015.5 -300.333333333 1066.5 -291 c 0
 1117.5 -281.666666667 1164 -269.166666667 1206 -253.5 c 0
 1248 -237.833333333 1286.83333333 -219.666666667 1322.5 -199 c 0
 1358.16666667 -178.333333333 1392.33333333 -156.333333333 1425 -133 c 1
 1458 -184 l 1xbf
1139 807 m 1
 1132.33333333 807.666666667 1126 808.333333333 1120 809 c 0
 1114.66666667 809.666666667 1109.33333333 810.166666667 1104 810.5 c 0
 1098.66666667 810.833333333 1094 811 1090 811 c 0
 1070.66666667 811 1049.5 810 1026.5 808 c 0
 1003.5 806 980.166666667 802.166666667 956.5 796.5 c 0
 932.833333333 790.833333333 909.333333333 783 886 773 c 0
 862.666666667 763 841.666666667 749.666666667 823 733 c 0
 803.666666667 715.666666667 785.333333333 692.5 768 663.5 c 0
 750.666666667 634.5 735.5 601.333333333 722.5 564 c 0
 709.5 526.666666667 699.166666667 486.333333333 691.5 443 c 0
 683.833333333 399.666666667 680 355 680 309 c 0
 680 261.666666667 686.666666667 225 700 199 c 0
 713.333333333 173 733.333333333 160 760 160 c 0xdf
 784 160 808.5 163.666666667 833.5 171 c 0
 858.5 178.333333333 882.833333333 187.5 906.5 198.5 c 0
 930.166666667 209.5 952.166666667 221.833333333 972.5 235.5 c 0
 992.833333333 249.166666667 1010 262 1024 274 c 1
 1139 807 l 1
EndSplineSet
Fore
SplineSet
1161.44238281 719.700195312 m 19xdfc0
 1161.44238281 716.073242188 1161.546875 712.40625 1161.5 708.700195312 c 2
 1161.5 440.700195312 l 2
 1161.5 385.700195312 1152.5 331.700195312 1152.5 276.700195312 c 0
 1152.5 223.700195312 1175.5 170.700195312 1220.5 170.700195312 c 0
 1249.5 170.700195312 1269.5 188.700195312 1273.5 215.700195312 c 1
 1302.5 182.700195312 l 1
 1290.5 119.700195312 1233.5 71.7001953125 1167.5 71.7001953125 c 0xbfc0
 1110.5 71.7001953125 1061.5 110.700195312 1036.5 147.700195312 c 1
 962.5 116.700195312 884.5 69.7001953125 786.5 69.7001953125 c 3
 647.5 69.7001953125 534.5 166.700195312 534.5 307.700195312 c 3
 534.5 500.700195312 722.5 612.700195312 915.5 612.700195312 c 3
 944.5 612.700195312 972.5 610.700195312 995.5 604.700195312 c 1
 995.5 712.700195312 l 0
 988.5 869.700195312 896.6328125 1048.70019531 729.5 1048.70019531 c 27
 434.927734375 1048.70019531 250.5 759.272460938 250.5 464.700195312 c 27
 250.5 115.802734375 411.602539063 -270.299804688 760.5 -270.299804688 c 27
 1188.89453125 -270.299804688 1579.5 33.3056640625 1579.5 461.700195312 c 27
 1579.5 721.232421875 1504.46972656 860.640625 1456.5 1115.70019531 c 25
 1456.5 1115.70019531 1516.5 1152 1555.5 1164 c 1
 1555.46 1160.68 1555.44026667 1157.37491215 1555.44026667 1154.08428859 c 0
 1555.44026667 910.578145312 1663.5 746.278450521 1663.5 479.700195312 c 11
 1663.5 -12.669921875 1243.87011719 -393.299804688 751.5 -393.299804688 c 27
 346.665039062 -393.299804688 121.5 26.865234375 121.5 431.700195312 c 27
 121.5 795.772460938 356.427734375 1147.70019531 720.5 1147.70019531 c 27
 960.15625 1147.70019531 1161.44238281 959.356445312 1161.44238281 719.700195312 c 19xdfc0
995.5 565.700195312 m 1
 985.5 565.700195312 972.5 567.700195312 962.5 567.700195312 c 3
 808.5 567.700195312 700.5 496.700195312 700.5 346.700195312 c 3
 700.5 229.700195312 773.5 133.700195312 894.5 133.700195312 c 3xdfc0
 943.5 133.700195312 988.5 148.700195312 1025.5 166.700195312 c 1
 996.5 219.700195312 995.5 299.700195312 995.5 375.700195312 c 2
 995.5 565.700195312 l 1
EndSplineSet
Validated: 1
EndChar

StartChar: quotedbl
Encoding: 34 34 72
Width: 836
Flags: W
HStem: 856 508
VStem: 110 229<1035.29 1277.75> 490 229<1035.29 1277.75>
LayerCount: 2
Fore
SplineSet
504 1244 m 2
 611 1364 l 1
 705 1247 l 1
 714 1237 719 1221 719 1201 c 0
 719 1106 632 919 620 856 c 1
 596 856 l 1
 584 922 490 1118 490 1198 c 0
 490 1211 499 1239 504 1244 c 2
124 1244 m 2
 231 1364 l 1
 325 1247 l 1
 334 1237 339 1221 339 1201 c 0
 339 1106 252 919 240 856 c 1
 216 856 l 1
 204 922 110 1118 110 1198 c 0
 110 1211 119 1239 124 1244 c 2
EndSplineSet
Validated: 1
EndChar

StartChar: numbersign
Encoding: 35 35 73
Width: 1024
Flags: W
HStem: 0 21G<131 239.649 545 652.697> 422 102<37 209 334 623 748 987> 831 103<37 287 410 700 823 987>
LayerCount: 2
Fore
SplineSet
987 524 m 1
 987 422 l 1
 727 422 l 1
 649 0 l 1
 545 0 l 1
 623 422 l 1
 313 422 l 1
 236 0 l 1
 131 0 l 1
 209 422 l 1
 37 422 l 1
 37 524 l 1
 229 524 l 1
 287 831 l 1
 37 831 l 1
 37 934 l 1
 305 934 l 1
 381 1341 l 1
 485 1341 l 1
 410 934 l 1
 719 934 l 1
 795 1341 l 1
 899 1341 l 1
 823 934 l 1
 987 934 l 1
 987 831 l 1
 805 831 l 1
 748 524 l 1
 987 524 l 1
334 524 m 1
 643 524 l 1
 700 831 l 1
 391 831 l 1
 334 524 l 1
EndSplineSet
Validated: 1
EndChar

StartChar: dollar
Encoding: 36 36 74
Width: 1024
Flags: W
HStem: -23.9004 29<358.192 481 563 661.215> 1275.1 32.0035<401.302 481 563 612.96>
VStem: 40 168<211.371 366.325> 60 178<905.397 1102.09> 481 82<-156 -22.7222 19.4113 495.182 778.943 1270.41 1308.32 1483> 776 227<157.704 372.558> 816 168<925.585 1085.13>
LayerCount: 2
Fore
SplineSet
481 1483 m 1xd8
 563 1483 l 1
 563 1308.31641292 l 1
 682.525137777 1302.63616651 797.895754941 1266.12889473 873 1201.09960938 c 0
 962 1125.09960938 984 981.099609375 984 923.099609375 c 0
 984 900.099609375 986 877.099609375 957 877.099609375 c 0
 912 877.099609375 845 923.099609375 816 984.099609375 c 0xda
 734.098001466 1155.74528715 732.66695818 1249.19748955 563 1270.40930654 c 1
 563 746.297040948 l 1
 753.211035221 670.463409047 1003 568.045334309 1003 316.099609375 c 0
 1003 115.099609375 814 -23.900390625 626 -23.900390625 c 0
 605.222834805 -23.900390625 584.15577635 -23.5182586018 563 -22.7222300242 c 1
 563 -156 l 1
 481 -156 l 1
 481 -17.4965385873 l 1
 345.871129612 -5.18099717965 217.796422707 25.8831159632 150 84.099609375 c 0
 61 160.099609375 40 305.099609375 40 363.099609375 c 0
 40 386.099609375 48 408.099609375 77 408.099609375 c 0
 122 408.099609375 183 364.099609375 208 302.099609375 c 0xec
 273.745347934 137.73623954 358.192483969 51.1021765021 481 19.4113251112 c 1
 481 528.431437774 l 1
 420.704450351 550.942489887 361.308279015 570.355431443 314 592.099609375 c 0
 189 649.099609375 60 761.099609375 60 937.099609375 c 0
 60 1158.28255274 266.417851314 1289.64350222 481 1307.10307881 c 1
 481 1483 l 1xd8
481 1275.08767742 m 1
 479.344686208 1275.09563288 477.678054026 1275.09960938 476 1275.09960938 c 0
 356 1275.09960938 238 1167.09960938 238 1038.09960938 c 0
 238 885.733370329 364.118647605 825.747032394 481 778.942969456 c 1
 481 1275.08767742 l 1
563 6.5474789954 m 1
 576.905910879 5.57473466926 591.232775425 5.099609375 606 5.099609375 c 0
 713 5.099609375 776 128.099609375 776 237.099609375 c 0xcc
 776 370.981008769 677.468460804 443.648461885 563 495.181896533 c 1
 563 6.5474789954 l 1
EndSplineSet
Validated: 1
EndChar

StartChar: percent
Encoding: 37 37 75
Width: 1681
Flags: W
HStem: -6 29<1185.16 1312.2> 649 35<1183.36 1316.84> 667 29<336.78 461.354> 1323 34<333.859 467.266>
VStem: 60 156<812.968 1203.85> 588 156<820.146 1199.04> 910 155<161.02 530.321> 1438 156<121.981 525.256>
LayerCount: 2
Back
SplineSet
440 -20 m 1x9f
 330 -20 l 1
 1278 1362 l 1
 1389 1362 l 1
 440 -20 l 1x9f
721 995 m 4
 721 875.666666667 694.166666667 783.833333333 640.5 719.5 c 4
 586.833333333 655.166666667 503.666666667 623 391 623 c 4xdf
 283.666666667 623 203.333333333 654.666666667 150 718 c 4
 96.6666666667 781.333333333 70 873.666666667 70 995 c 4
 70 1113.66666667 96.8333333333 1204.5 150.5 1267.5 c 4
 204.166666667 1330.5 286.333333333 1362 397 1362 c 4
 503 1362 583.5 1331.33333333 638.5 1270 c 4
 693.5 1208.66666667 721 1117 721 995 c 4
565 995 m 4
 565 1041.66666667 562 1083.16666667 556 1119.5 c 4
 550 1155.83333333 540.333333333 1186.5 527 1211.5 c 4
 513.666666667 1236.5 495.833333333 1255.5 473.5 1268.5 c 4
 451.166666667 1281.5 423.666666667 1288 391 1288 c 260
 358.333333333 1288 331.333333333 1281.5 310 1268.5 c 4
 288.666666667 1255.5 271.666666667 1236.5 259 1211.5 c 4
 246.333333333 1186.5 237.5 1155.83333333 232.5 1119.5 c 4
 227.5 1083.16666667 225 1041.66666667 225 995 c 4
 225 947.666666667 227.5 905.5 232.5 868.5 c 4
 237.5 831.5 246.333333333 800.333333333 259 775 c 4
 271.666666667 749.666666667 288.666666667 730.166666667 310 716.5 c 4
 331.333333333 702.833333333 358.333333333 696 391 696 c 260
 423.666666667 696 451.166666667 702.833333333 473.5 716.5 c 4
 495.833333333 730.166666667 513.666666667 749.666666667 527 775 c 4
 540.333333333 800.333333333 550 831.5 556 868.5 c 4
 562 905.5 565 947.666666667 565 995 c 4
1636 346 m 0
 1636 226 1609.33333333 133.833333333 1556 69.5 c 0
 1502.66666667 5.16666666667 1419.66666667 -27 1307 -27 c 0
 1199.66666667 -27 1119.16666667 4.66666666667 1065.5 68 c 0
 1011.83333333 131.333333333 985 224 985 346 c 0
 985 464.666666667 1012 555.5 1066 618.5 c 0
 1120 681.5 1202.33333333 713 1313 713 c 0xbf
 1419 713 1499.33333333 682.333333333 1554 621 c 0
 1608.66666667 559.666666667 1636 468 1636 346 c 0
1481 346 m 0
 1481 392.666666667 1478 434.166666667 1472 470.5 c 0
 1466 506.833333333 1456.33333333 537.5 1443 562.5 c 0
 1429.66666667 587.5 1411.83333333 606.5 1389.5 619.5 c 0
 1367.16666667 632.5 1339.66666667 639 1307 639 c 256
 1274.33333333 639 1247.33333333 632.5 1226 619.5 c 0
 1204.66666667 606.5 1187.66666667 587.5 1175 562.5 c 0
 1162.33333333 537.5 1153.5 506.833333333 1148.5 470.5 c 0
 1143.5 434.166666667 1141 392.666666667 1141 346 c 0
 1141 298.666666667 1143.5 256.5 1148.5 219.5 c 0
 1153.5 182.5 1162.33333333 151.333333333 1175 126 c 0
 1187.66666667 100.666666667 1204.66666667 81.1666666667 1226 67.5 c 0
 1247.33333333 53.8333333333 1274.33333333 47 1307 47 c 256
 1339.66666667 47 1367.16666667 53.8333333333 1389.5 67.5 c 0
 1411.83333333 81.1666666667 1429.66666667 100.666666667 1443 126 c 0
 1456.33333333 151.333333333 1466 182.5 1472 219.5 c 0
 1478 256.5 1481 298.666666667 1481 346 c 0
EndSplineSet
Fore
SplineSet
216 1007 m 3xbf
 216 764 311 696 403 696 c 0
 497 696 588 790 588 1010 c 0
 588 1239 494 1323 402 1323 c 0
 307 1323 216 1239 216 1007 c 3xbf
400 1357 m 0
 574 1357 742 1273 744 1009 c 0
 744 1007 744 1007 744 1005 c 0
 744 757 576 667 403 667 c 0
 230 667 60 746 60 1005 c 0
 60 1272 224 1357 400 1357 c 0
1065 334 m 3
 1065 91 1161 23 1253 23 c 0
 1347 23 1438 117 1438 337 c 0
 1438 566 1343 649 1251 649 c 0xdf
 1156 649 1065 566 1065 334 c 3
1250 684 m 0
 1424 684 1592 599 1594 335 c 0
 1594 333 1594 333 1594 331 c 0
 1594 83 1476 -6 1303 -6 c 0
 1130 -6 910 72 910 331 c 0
 910 598 1074 684 1250 684 c 0
390 -20 m 1
 330 -20 l 1
 1278 1362 l 1
 1339 1362 l 1
 390 -20 l 1
EndSplineSet
Validated: 1
EndChar

StartChar: ampersand
Encoding: 38 38 76
Width: 1458
VWidth: 0
Flags: W
HStem: -319 68<579.215 855.954> 353 31<597.386 741.143> 423 64<298.5 512.696> 921 45<416.384 577> 1167 143<917.927 1056.99> 1269 37<408.186 526.316>
VStem: 116 166<559.907 809.328> 259.992 180.008<-135.272 196.195> 577 166<552.456 919 958 1081.53> 805 197<750.383 888.116> 857 145<-187.362 284.234 346 800.328> 1109 166<552.638 1110.79>
LayerCount: 2
Back
SplineSet
989 1083 m 0xb6
 989 1033.66666667 979.5 991.666666667 960.5 957 c 0
 941.5 922.333333333 916.5 892.166666667 885.5 866.5 c 0
 854.5 840.833333333 819 818.666666667 779 800 c 0
 739 781.333333333 698.333333333 764 657 748 c 1
 1079 364 l 1
 1109.66666667 426.666666667 1134 488.833333333 1152 550.5 c 0
 1170 612.166666667 1180 671 1182 727 c 1
 1040 754 l 1
 1040 807 l 1
 1497 807 l 1
 1497 754 l 1
 1358 727 l 1
 1350 699 1340.16666667 667.833333333 1328.5 633.5 c 0
 1316.83333333 599.166666667 1303.16666667 562.833333333 1287.5 524.5 c 0
 1271.83333333 486.166666667 1253.83333333 446.666666667 1233.5 406 c 0
 1213.16666667 365.333333333 1189.66666667 325.333333333 1163 286 c 1
 1391 78 l 1
 1556 53 l 1
 1556 0 l 1
 1212 0 l 1x76
 1041 155 l 1
 1015 131.666666667 986.5 109.333333333 955.5 88 c 0
 924.5 66.6666666667 890 48 852 32 c 0
 814 16 772.166666667 3.33333333333 726.5 -6 c 0
 680.833333333 -15.3333333333 630.333333333 -20 575 -20 c 0
 409.666666667 -20 285.5 12.1666666667 202.5 76.5 c 0
 119.5 140.833333333 78 234 78 356 c 0xba
 78 418 88.3333333333 470.5 109 513.5 c 0
 129.666666667 556.5 156 592.666666667 188 622 c 0
 220 651.333333333 255.5 675.333333333 294.5 694 c 0
 333.5 712.666666667 371.333333333 729 408 743 c 1
 389.333333333 761 371 781.166666667 353 803.5 c 0
 335 825.833333333 318.833333333 850.5 304.5 877.5 c 0
 290.166666667 904.5 278.666666667 934 270 966 c 0
 261.333333333 998 257 1032.66666667 257 1070 c 0
 257 1112 263.833333333 1150.83333333 277.5 1186.5 c 0
 291.166666667 1222.16666667 313 1253 343 1279 c 0
 373 1305 411.666666667 1325.33333333 459 1340 c 0
 506.333333333 1354.66666667 563.666666667 1362 631 1362 c 0
 696.333333333 1362 751.833333333 1354.83333333 797.5 1340.5 c 0
 843.166666667 1326.16666667 880.166666667 1306.5 908.5 1281.5 c 0
 936.833333333 1256.5 957.333333333 1227 970 1193 c 0
 982.666666667 1159 989 1122.33333333 989 1083 c 0xb6
602 66 m 0xba
 644.666666667 66 684.166666667 70 720.5 78 c 0
 756.833333333 86 790 97 820 111 c 0
 850 125 877.5 141.166666667 902.5 159.5 c 0
 927.5 177.833333333 950.666666667 197.666666667 972 219 c 1
 473 676 l 1
 448.333333333 665.333333333 424.166666667 652.166666667 400.5 636.5 c 0
 376.833333333 620.833333333 355.666666667 601 337 577 c 0
 318.333333333 553 303.166666667 524 291.5 490 c 0
 279.833333333 456 274 415 274 367 c 0
 274 316.333333333 281.666666667 272.166666667 297 234.5 c 0
 312.333333333 196.833333333 334.166666667 165.5 362.5 140.5 c 0
 390.833333333 115.5 425.166666667 96.8333333333 465.5 84.5 c 0
 505.833333333 72.1666666667 551.333333333 66 602 66 c 0xba
434 1090 m 0x36
 434 1054 439 1021.5 449 992.5 c 0
 459 963.5 471.5 937.666666667 486.5 915 c 0
 501.5 892.333333333 518.166666667 872.333333333 536.5 855 c 0
 554.833333333 837.666666667 572 823 588 811 c 1
 622 823.666666667 653 837.166666667 681 851.5 c 0
 709 865.833333333 732.666666667 883.333333333 752 904 c 0
 771.333333333 924.666666667 786.333333333 949.833333333 797 979.5 c 0
 807.666666667 1009.16666667 813 1046 813 1090 c 0
 813 1218 752.333333333 1282 631 1282 c 0
 561 1282 510.666666667 1266 480 1234 c 0
 449.333333333 1202 434 1154 434 1090 c 0x36
EndSplineSet
Fore
SplineSet
577 919 m 1xf290
 567 919 554 921 544 921 c 0
 390 921 282 850 282 700 c 0
 282 583 355 487 476 487 c 0
 525 487 570 502 607 520 c 1
 578 573 577 653 577 729 c 2
 577 919 l 1xf290
1275 901 m 2
 1275 610 l 2
 1275 555 1369 544 1369 503 c 0
 1369 478 1330 450 1275 450 c 2
 1111 450 l 2
 1056 450 1035 476 1035 503 c 0
 1035 544 1109 555 1109 610 c 2
 1109 901 l 2
 1109 1007 1085 1167 974 1167 c 0xfa90
 845 1167 792 1097 743 1019 c 1
 743 610 l 2
 743 555 820 552 820 511 c 0
 820 489 808 458 765 452 c 0
 761 451 754 450 743 450 c 2
 682 450 l 2
 660 450 648 461 642 476 c 1
 633 483 625 491 618 501 c 1
 544 470 466 423 368 423 c 0
 229 423 116 520 116 661 c 0
 116 854 304 966 497 966 c 0
 526 966 554 964 577 958 c 1
 577 1053 l 1
 575 1078 575 1098 576 1114 c 1
 571 1195 551 1269 474 1269 c 0
 316 1269 339 1040 237 1040 c 0
 192 1040 155 1067 155 1116 c 0
 155 1233 343 1306 474 1306 c 0xf690
 611 1306 722 1236 740 1106 c 1
 743 1105 l 1
 782 1166 845 1235 964 1290 c 0
 993 1304 1023 1310 1052 1310 c 0xfa90
 1101 1310 1146 1292 1181 1261 c 0
 1244 1206 1271 1116 1275 1007 c 0
 1275 984 1275 926 1275 901 c 2
905 -290 m 1
 859 -308 806 -318 715 -319 c 0
 664 -319 567 -312 518 -298 c 1
 348.944706936 -245.29452628 259.991665123 -175.777468964 259.991665123 42.3296092082 c 0
 259.991665123 43.5484250513 259.9944429 44.7718809832 260 46 c 0
 260 166 346 309 512 364 c 0
 557 378 606 384 653 384 c 0
 716 384 774 373 831 355 c 0
 839 352 848 349 856 346 c 1
 856 721 l 2
 856 774 805 784 805 825 c 0
 805 880 975 979 993 979 c 0
 1013 979 1020 967 1020 949 c 0
 1020 918 1002 872 1002 852 c 2xf1d0
 1002 -130 l 2
 1002 -185 1096 -196 1096 -237 c 0
 1096 -262 1057 -290 1002 -290 c 2xf0b0
 905 -290 l 1
440 41 m 0
 443 -51 450 -56 479 -128 c 0
 504 -191 611 -249 717 -251 c 0
 731 -251 827 -250 857 -234 c 1
 857 -207 857 -194 857 -172 c 0
 857 -161 857 -148 857 -130 c 2
 857 234 l 1xf1b0
 798 309 751 353 661 353 c 0
 624 353 588 337 559 312 c 0
 474.630325468 242.797907406 439.686646256 150.230798842 439.686646256 56.4480989467 c 0
 439.686646256 51.3011735123 439.791895485 46.1505867561 440 41 c 0
EndSplineSet
Validated: 1
EndChar

StartChar: quotesingle
Encoding: 39 39 77
Width: 369
Flags: W
HStem: 856 508
VStem: 70 229<1035.29 1277.75>
LayerCount: 2
Fore
SplineSet
84 1244 m 6
 191 1364 l 5
 285 1247 l 5
 294 1237 299 1221 299 1201 c 4
 299 1106 212 919 200 856 c 5
 176 856 l 5
 164 922 70 1118 70 1198 c 4
 70 1211 79 1239 84 1244 c 6
EndSplineSet
Validated: 1
EndChar

StartChar: parenleft
Encoding: 40 40 78
Width: 682
Flags: W
VStem: 90 243<139.079 866.235>
LayerCount: 2
Fore
SplineSet
616 1402 m 1
 616 1348 l 1
 355.725585938 1198.77636719 333 910.49609375 333 502 c 0
 333 95.509765625 354.268554688 -190.446289062 616 -341 c 1
 616 -395 l 1
 282.991210938 -217.228515625 90 -8.5302734375 90 502 c 256
 90 1012.83886719 282.758789062 1224.10449219 616 1402 c 1
EndSplineSet
Validated: 1
EndChar

StartChar: parenright
Encoding: 41 41 79
Width: 682
Flags: W
VStem: 349 243<99.7647 826.921>
LayerCount: 2
Fore
SplineSet
66 -436 m 1
 66 -382 l 1
 326.274414062 -232.776367188 349 55.50390625 349 464 c 0
 349 870.490234375 327.731445312 1156.44628906 66 1307 c 1
 66 1361 l 1
 399.008789062 1183.22851562 592 974.530273438 592 464 c 256
 592 -46.8388671875 399.241455495 -258.104185414 66 -436 c 1
EndSplineSet
Validated: 1
EndChar

StartChar: asterisk
Encoding: 42 42 80
Width: 1024
Flags: W
LayerCount: 2
Fore
SplineSet
390.341796875 976.48046875 m 1
 100 1065 l 1
 164 1208 l 1
 437.852539062 1039.34179688 l 1
 411.020514656 1024.49789997 393.004288682 1001.99766494 390.341796875 976.48046875 c 1
444.848632812 896.858398438 m 1
 164 723 l 1
 100 866 l 1
 391.98828125 954.130859375 l 1
 398.061249212 930.340002959 417.625675426 909.869178174 444.848632812 896.858398438 c 1
549.263671875 885.514648438 m 1
 592 590 l 1
 436 590 l 1
 474.854492188 886.381835938 l 1
 487.161448699 883.474016151 500.323289824 881.900024414 514 881.900024414 c 0
 526.249185712 881.900024414 538.085373434 883.162588986 549.263671875 885.514648438 c 1
635.666015625 952.827148438 m 1
 926 868 l 1
 862 727 l 1
 578.881835938 894.90625 l 1
 607.808619475 907.543409454 628.881161201 928.372631185 635.666015625 952.827148438 c 1
588.645507812 1040.16113281 m 1
 862 1204 l 1
 926 1063 l 1
 637.500976562 977.840820312 l 1
 634.292083686 1003.26749173 615.822487055 1025.59067472 588.645507812 1040.16113281 c 1
473.84765625 1053.17773438 m 1
 436 1341 l 1
 592 1341 l 1
 550.744140625 1053.96777344 l 1
 539.132301581 1056.52322457 526.791333557 1057.90002441 514 1057.90002441 c 0
 499.949670928 1057.90002441 486.442725411 1056.23886179 473.84765625 1053.17773438 c 1
EndSplineSet
Validated: 1
EndChar

StartChar: plus
Encoding: 43 43 81
Width: 1155
Flags: W
HStem: 629 102<102 526 629 1055>
VStem: 526 103<203 629 731 1157>
LayerCount: 2
Fore
SplineSet
629 629 m 1
 629 203 l 1
 526 203 l 1
 526 629 l 1
 102 629 l 1
 102 731 l 1
 526 731 l 1
 526 1157 l 1
 629 1157 l 1
 629 731 l 1
 1055 731 l 1
 1055 629 l 1
 629 629 l 1
EndSplineSet
Validated: 1
EndChar

StartChar: comma
Encoding: 44 44 82
Width: 512
Flags: W
HStem: -315 34<82 115.267>
VStem: 254 150<-113.377 25.4045>
LayerCount: 2
Fore
SplineSet
121 113.400390625 m 2
 254 239 l 1
 352 137.400390625 l 2
 385.805044457 102.353662954 404 54.4086140045 404 -3.599609375 c 3
 404 -74.6633577676 313.784822087 -190.899599322 219 -253 c 0
 180.333333333 -278.333333333 133.333333333 -299 78 -315 c 1
 82 -281 l 1
 159.094220114 -256.432057763 254 -147.786115055 254 -70 c 0
 254 9.68117139324 115.568315953 4.35498801525 115.568315953 97.473665362 c 0
 115.568315953 103.899431032 117.074319339 109.57705172 121 113.400390625 c 2
EndSplineSet
Validated: 1
EndChar

StartChar: hyphen
Encoding: 45 45 83
Width: 682
Flags: W
HStem: 406 153<76 608>
VStem: 76 532<406 559>
LayerCount: 2
Fore
SplineSet
76 406 m 1
 76 559 l 1
 608 559 l 1
 608 406 l 1
 76 406 l 1
EndSplineSet
Validated: 1
EndChar

StartChar: slash
Encoding: 47 47 84
Width: 569
Flags: W
HStem: -20 21G<0 106.847>
VStem: 0 569
LayerCount: 2
Fore
SplineSet
100 -20 m 1
 0 -20 l 1
 471 1350 l 1
 569 1350 l 1
 100 -20 l 1
EndSplineSet
Validated: 1
EndChar

StartChar: dieresis
Encoding: 168 168 85
Width: 682
Flags: W
HStem: 1093 201<80.5 233.122 449.909 589.122>
VStem: 63 199<1123.42 1264.09> 420 198<1123.42 1264.09>
LayerCount: 2
Fore
SplineSet
618 1194 m 256
 618 1166 608.666666667 1142.16666667 590 1122.5 c 0
 571.333333333 1102.83333333 548 1093 520 1093 c 0
 506 1093 493 1095.66666667 481 1101 c 0
 469 1106.33333333 458.5 1113.66666667 449.5 1123 c 0
 440.5 1132.33333333 433.333333333 1143 428 1155 c 0
 422.666666667 1167 420 1180 420 1194 c 0
 420 1222 429.666666667 1245.66666667 449 1265 c 0
 468.333333333 1284.33333333 492 1294 520 1294 c 256
 548 1294 571.333333333 1284.33333333 590 1265 c 0
 608.666666667 1245.66666667 618 1222 618 1194 c 256
262 1194 m 256
 262 1166 252.666666667 1142.16666667 234 1122.5 c 0
 215.333333333 1102.83333333 192 1093 164 1093 c 0
 150 1093 137 1095.66666667 125 1101 c 0
 113 1106.33333333 102.333333333 1113.66666667 93 1123 c 0
 83.6666666667 1132.33333333 76.3333333333 1143 71 1155 c 0
 65.6666666667 1167 63 1180 63 1194 c 256
 63 1208 65.6666666667 1221 71 1233 c 0
 76.3333333333 1245 83.6666666667 1255.5 93 1264.5 c 0
 102.333333333 1273.5 113 1280.66666667 125 1286 c 0
 137 1291.33333333 150 1294 164 1294 c 0
 192 1294 215.333333333 1284.33333333 234 1265 c 0
 252.666666667 1245.66666667 262 1222 262 1194 c 256
EndSplineSet
Validated: 1
EndChar

StartChar: acute
Encoding: 180 180 86
Width: 682
Flags: W
HStem: 1119 305
VStem: 156 409
LayerCount: 2
Fore
SplineSet
156 1119 m 1
 156 1152 l 1
 352 1424 l 1
 565 1424 l 1
 565 1387 l 1
 211 1119 l 1
 156 1119 l 1
EndSplineSet
Validated: 1
EndChar

StartChar: cedilla
Encoding: 184 184 87
Width: 682
Flags: W
HStem: -436 80<143.97 349.148> -135 153<266 333.985>
VStem: 377 151<-332.863 -169.231>
LayerCount: 2
Fore
SplineSet
528 -234 m 0
 528 -264.666666667 522 -292.333333333 510 -317 c 0
 498 -341.666666667 481 -362.833333333 459 -380.5 c 0
 437 -398.166666667 410.833333333 -411.833333333 380.5 -421.5 c 0
 350.166666667 -431.166666667 317 -436 281 -436 c 0
 259.666666667 -436 236.5 -434.166666667 211.5 -430.5 c 0
 186.5 -426.833333333 163.666666667 -421.333333333 143 -414 c 1
 143 -340 l 1
 149 -342 156.833333333 -344 166.5 -346 c 0
 176.166666667 -348 186.5 -349.666666667 197.5 -351 c 0
 208.5 -352.333333333 219.833333333 -353.5 231.5 -354.5 c 0
 243.166666667 -355.5 253.666666667 -356 263 -356 c 0
 303 -356 332 -346.166666667 350 -326.5 c 0
 368 -306.833333333 377 -282 377 -252 c 0
 377 -230.666666667 372 -212.833333333 362 -198.5 c 0
 352 -184.166666667 339.5 -172.5 324.5 -163.5 c 0
 309.5 -154.5 293.166666667 -147.833333333 275.5 -143.5 c 0
 257.833333333 -139.166666667 241 -136.333333333 225 -135 c 1
 266 18 l 1
 352 18 l 1
 334 -64 l 1
 394.666666667 -70 442.166666667 -87.6666666667 476.5 -117 c 0
 510.833333333 -146.333333333 528 -185.333333333 528 -234 c 0
EndSplineSet
Validated: 1
EndChar

StartChar: bracketleft
Encoding: 91 91 88
Width: 682
Flags: W
HStem: -274 47<526.53 608> 1374 47<526.53 608>
VStem: 152 223<-186 1333>
LayerCount: 2
Fore
SplineSet
152 -274 m 1
 152 1421 l 1
 608 1421 l 1
 608 1374 l 1
 375 1333 l 1
 375 -186 l 1
 608 -227 l 1
 608 -274 l 1
 152 -274 l 1
EndSplineSet
Validated: 1
EndChar

StartChar: backslash
Encoding: 92 92 89
Width: 569
Flags: W
HStem: -20 21G<462.153 569>
VStem: 0 569
LayerCount: 2
Fore
SplineSet
0 1350 m 1
 98 1350 l 1
 569 -20 l 1
 469 -20 l 1
 0 1350 l 1
EndSplineSet
Validated: 1
EndChar

StartChar: bracketright
Encoding: 93 93 90
Width: 682
Flags: W
HStem: -274 47<74 161.415> 1374 47<74 161.415>
VStem: 324 206<-186 1333>
LayerCount: 2
Fore
SplineSet
74 -274 m 1
 74 -227 l 1
 324 -186 l 1
 322.877235741 3.42802036299 322.497986073 191.368878082 322.497986073 378.551152342 c 0
 322.497986073 697.702273884 323.600511261 1014.64810049 324 1333 c 1
 74 1374 l 1
 74 1421 l 1
 530 1421 l 1
 530 -274 l 1
 74 -274 l 1
EndSplineSet
Validated: 1
EndChar

StartChar: asciicircum
Encoding: 94 94 91
Width: 961
Flags: W
LayerCount: 2
Fore
SplineSet
457 1341 m 1
 506 1341 l 1
 934 389 l 1
 831 389 l 1
 481 1198 l 1
 131 389 l 1
 29 389 l 1
 457 1341 l 1
EndSplineSet
Validated: 1
EndChar

StartChar: underscore
Encoding: 95 95 92
Width: 1024
Flags: W
HStem: -264 102<-16 1040>
LayerCount: 2
Fore
SplineSet
-16 -264 m 1
 -16 -162 l 1
 1040 -162 l 1
 1040 -264 l 1
 -16 -264 l 1
EndSplineSet
Validated: 1
EndChar

StartChar: grave
Encoding: 96 96 93
Width: 682
Flags: W
HStem: 1119 305
VStem: 119 409
LayerCount: 2
Fore
SplineSet
473 1119 m 1
 119 1387 l 1
 119 1424 l 1
 332 1424 l 1
 528 1152 l 1
 528 1119 l 1
 473 1119 l 1
EndSplineSet
Validated: 1
EndChar

StartChar: dotlessi
Encoding: 305 305 139
Width: 567
VWidth: 0
Flags: W
HStem: 0 21G<178.5 398.5>
VStem: 205 166<102.638 654.3>
LayerCount: 2
Fore
SplineSet
205 160 m 2
 205 602 l 2
 205 655 111 659 111 700 c 0
 111 755 344 860 362 860 c 0
 382 860 389 847 389 829 c 0
 389 798 371 753 371 733 c 2
 371 160 l 2
 371 105 465 94 465 53 c 0
 465 28 426 0 371 0 c 2
 205 0 l 2
 152 0 111 26 111 53 c 0
 111 94 205 105 205 160 c 2
EndSplineSet
Validated: 1
EndChar

StartChar: circumflex
Encoding: 710 710 140
Width: 682
Flags: W
HStem: 1119 306
VStem: 18 648
LayerCount: 2
Fore
SplineSet
18 1119 m 1
 18 1152 l 1
 236 1425 l 1
 449 1425 l 1
 666 1152 l 1
 666 1119 l 1
 610 1119 l 1
 342 1302 l 1
 74 1119 l 1
 18 1119 l 1
EndSplineSet
Validated: 1
EndChar

StartChar: caron
Encoding: 711 711 141
Width: 682
Flags: W
HStem: 1119 306
VStem: 18 648
LayerCount: 2
Fore
SplineSet
74 1425 m 1
 342 1242 l 1
 610 1425 l 1
 666 1425 l 1
 666 1392 l 1
 449 1119 l 1
 236 1119 l 1
 18 1392 l 1
 18 1425 l 1
 74 1425 l 1
EndSplineSet
Validated: 1
EndChar

StartChar: uni02C9
Encoding: 713 713 142
Width: 682
Flags: W
HStem: 1141 109<27 655>
VStem: 27 628<1141 1250>
LayerCount: 2
Fore
SplineSet
27 1141 m 1
 27 1250 l 1
 655 1250 l 1
 655 1141 l 1
 27 1141 l 1
EndSplineSet
Validated: 1
EndChar

StartChar: breve
Encoding: 728 728 143
Width: 682
Flags: W
HStem: 1119 141<187.712 492.288>
VStem: 53 74<1326.77 1399> 553 74<1326.77 1399>
LayerCount: 2
Fore
SplineSet
340 1119 m 256
 291.333333333 1119 249.166666667 1126.33333333 213.5 1141 c 0
 177.833333333 1155.66666667 148.333333333 1175.83333333 125 1201.5 c 0
 101.666666667 1227.16666667 84 1257 72 1291 c 0
 60 1325 53.6666666667 1361 53 1399 c 1
 127 1399 l 1
 133 1374.33333333 142.666666667 1353.33333333 156 1336 c 0
 169.333333333 1318.66666667 185.5 1304.33333333 204.5 1293 c 0
 223.5 1281.66666667 244.5 1273.33333333 267.5 1268 c 0
 290.5 1262.66666667 314.666666667 1260 340 1260 c 0
 364.666666667 1260 388.666666667 1262.66666667 412 1268 c 0
 435.333333333 1273.33333333 456.5 1281.66666667 475.5 1293 c 0
 494.5 1304.33333333 510.666666667 1318.66666667 524 1336 c 0
 537.333333333 1353.33333333 547 1374.33333333 553 1399 c 1
 627 1399 l 1
 625.666666667 1361 619.166666667 1325 607.5 1291 c 0
 595.833333333 1257 578.333333333 1227.16666667 555 1201.5 c 0
 531.666666667 1175.83333333 502.166666667 1155.66666667 466.5 1141 c 0
 430.833333333 1126.33333333 388.666666667 1119 340 1119 c 256
EndSplineSet
Validated: 1
EndChar

StartChar: dotaccent
Encoding: 729 729 144
Width: 682
Flags: W
HStem: 1139 217<255.885 431.115>
VStem: 235 217<1159.89 1335.11>
LayerCount: 2
Fore
SplineSet
452 1247 m 256
 452 1232.33333333 449.166666667 1218.5 443.5 1205.5 c 0
 437.833333333 1192.5 430 1181 420 1171 c 0
 410 1161 398.333333333 1153.16666667 385 1147.5 c 0
 371.666666667 1141.83333333 357.666666667 1139 343 1139 c 256
 328.333333333 1139 314.5 1141.83333333 301.5 1147.5 c 0
 288.5 1153.16666667 277 1161 267 1171 c 0
 257 1181 249.166666667 1192.5 243.5 1205.5 c 0
 237.833333333 1218.5 235 1232.33333333 235 1247 c 256
 235 1261.66666667 237.833333333 1275.66666667 243.5 1289 c 0
 249.166666667 1302.33333333 257 1314 267 1324 c 0
 277 1334 288.5 1341.83333333 301.5 1347.5 c 0
 314.5 1353.16666667 328.333333333 1356 343 1356 c 256
 357.666666667 1356 371.666666667 1353.16666667 385 1347.5 c 0
 398.333333333 1341.83333333 410 1334 420 1324 c 0
 430 1314 437.833333333 1302.33333333 443.5 1289 c 0
 449.166666667 1275.66666667 452 1261.66666667 452 1247 c 256
EndSplineSet
Validated: 1
EndChar

StartChar: ring
Encoding: 730 730 145
Width: 682
Flags: W
HStem: 1077 80<249.774 430.226> 1403 80<249.52 430.48>
VStem: 137 80<1190.37 1370.48> 463 80<1190.37 1370.48>
LayerCount: 2
Fore
SplineSet
543 1280 m 256
 543 1252 537.666666667 1225.66666667 527 1201 c 0
 516.333333333 1176.33333333 501.833333333 1154.83333333 483.5 1136.5 c 0
 465.166666667 1118.16666667 443.666666667 1103.66666667 419 1093 c 0
 394.333333333 1082.33333333 368 1077 340 1077 c 256
 312 1077 285.666666667 1082.33333333 261 1093 c 0
 236.333333333 1103.66666667 214.833333333 1118.16666667 196.5 1136.5 c 0
 178.166666667 1154.83333333 163.666666667 1176.33333333 153 1201 c 0
 142.333333333 1225.66666667 137 1252 137 1280 c 256
 137 1308 142.333333333 1334.33333333 153 1359 c 0
 163.666666667 1383.66666667 178.166666667 1405.16666667 196.5 1423.5 c 0
 214.833333333 1441.83333333 236.333333333 1456.33333333 261 1467 c 0
 285.666666667 1477.66666667 312 1483 340 1483 c 256
 368 1483 394.333333333 1477.66666667 419 1467 c 0
 443.666666667 1456.33333333 465.166666667 1441.83333333 483.5 1423.5 c 0
 501.833333333 1405.16666667 516.333333333 1383.66666667 527 1359 c 0
 537.666666667 1334.33333333 543 1308 543 1280 c 256
463 1280 m 256
 463 1296.66666667 459.833333333 1312.5 453.5 1327.5 c 0
 447.166666667 1342.5 438.333333333 1355.66666667 427 1367 c 0
 415.666666667 1378.33333333 402.5 1387.16666667 387.5 1393.5 c 0
 372.5 1399.83333333 356.666666667 1403 340 1403 c 0
 322.666666667 1403 306.666666667 1399.83333333 292 1393.5 c 0
 277.333333333 1387.16666667 264.333333333 1378.33333333 253 1367 c 0
 241.666666667 1355.66666667 232.833333333 1342.5 226.5 1327.5 c 0
 220.166666667 1312.5 217 1296.66666667 217 1280 c 256
 217 1263.33333333 220.166666667 1247.5 226.5 1232.5 c 0
 232.833333333 1217.5 241.666666667 1204.5 253 1193.5 c 0
 264.333333333 1182.5 277.333333333 1173.66666667 292 1167 c 0
 306.666666667 1160.33333333 322.666666667 1157 340 1157 c 0
 356.666666667 1157 372.5 1160.33333333 387.5 1167 c 0
 402.5 1173.66666667 415.666666667 1182.5 427 1193.5 c 0
 438.333333333 1204.5 447.166666667 1217.5 453.5 1232.5 c 0
 459.833333333 1247.5 463 1263.33333333 463 1280 c 256
EndSplineSet
Validated: 1
EndChar

StartChar: ogonek
Encoding: 731 731 146
Width: 682
Flags: W
HStem: -403 88<304.712 520.402>
VStem: 125 145<-274.257 -40.6763>
LayerCount: 2
Fore
SplineSet
356 -403 m 0
 314 -403 278.333333333 -397.166666667 249 -385.5 c 0
 219.666666667 -373.833333333 195.833333333 -358 177.5 -338 c 0
 159.166666667 -318 145.833333333 -294.833333333 137.5 -268.5 c 0
 129.166666667 -242.166666667 125 -214.666666667 125 -186 c 0
 125 -163.333333333 127.833333333 -142 133.5 -122 c 0
 139.166666667 -102 146.333333333 -83.5 155 -66.5 c 0
 163.666666667 -49.5 173.333333333 -34 184 -20 c 0
 194.666666667 -6 205 6 215 16 c 1
 324 16 l 1
 319.333333333 9.33333333333 313.833333333 -0.166666666667 307.5 -12.5 c 0
 301.166666667 -24.8333333333 295.333333333 -39 290 -55 c 0
 284.666666667 -71 280 -88.1666666667 276 -106.5 c 0
 272 -124.833333333 270 -143.333333333 270 -162 c 0
 270 -211.333333333 281.833333333 -249.166666667 305.5 -275.5 c 0
 329.166666667 -301.833333333 363.333333333 -315 408 -315 c 0
 430 -315 451 -312.833333333 471 -308.5 c 0
 491 -304.166666667 508.666666667 -299 524 -293 c 1
 524 -357 l 1
 505.333333333 -369.666666667 481.666666667 -380.5 453 -389.5 c 0
 424.333333333 -398.5 392 -403 356 -403 c 0
EndSplineSet
Validated: 1
EndChar

StartChar: tilde
Encoding: 732 732 147
Width: 682
Flags: W
HStem: 1118 123<413.543 593.935> 1257 123<89.2661 271.567>
VStem: 31.5 46<1138 1229.23> 606 46.5<1268.54 1359>
LayerCount: 2
Fore
SplineSet
471 1118 m 0
 439 1118 409.5 1125.16666667 382.5 1139.5 c 0
 355.5 1153.83333333 330 1169.83333333 306 1187.5 c 0
 282 1205.16666667 258.833333333 1221.16666667 236.5 1235.5 c 0
 214.166666667 1249.83333333 192 1257 170 1257 c 0
 149.333333333 1257 133 1253.5 121 1246.5 c 0
 109 1239.5 99.5 1230.16666667 92.5 1218.5 c 0
 85.5 1206.83333333 80.5 1194 77.5 1180 c 0
 74.5 1166 72 1152 70 1138 c 1
 18 1138 l 1
 20 1169.33333333 24.5 1199.5 31.5 1228.5 c 0
 38.5 1257.5 49.5 1283.33333333 64.5 1306 c 0
 79.5 1328.66666667 99 1346.66666667 123 1360 c 0
 147 1373.33333333 177 1380 213 1380 c 0
 245 1380 274.5 1372.83333333 301.5 1358.5 c 0
 328.5 1344.16666667 354.166666667 1328.16666667 378.5 1310.5 c 0
 402.833333333 1292.83333333 426.166666667 1276.83333333 448.5 1262.5 c 0
 470.833333333 1248.16666667 492.666666667 1241 514 1241 c 0
 534 1241 550 1244.5 562 1251.5 c 0
 574 1258.5 583.5 1267.66666667 590.5 1279 c 0
 597.5 1290.33333333 602.666666667 1303 606 1317 c 0
 609.333333333 1331 612 1345 614 1359 c 1
 666 1359 l 1
 664 1327.66666667 659.5 1297.66666667 652.5 1269 c 0
 645.5 1240.33333333 634.5 1214.66666667 619.5 1192 c 0
 604.5 1169.33333333 585 1151.33333333 561 1138 c 0
 537 1124.66666667 507 1118 471 1118 c 0
EndSplineSet
Validated: 1
EndChar

StartChar: hungarumlaut
Encoding: 733 733 148
Width: 682
Flags: W
HStem: 1119 305
LayerCount: 2
Fore
SplineSet
-8 1119 m 1
 -8 1152 l 1
 148 1424 l 1
 340 1424 l 1
 340 1387 l 1
 47 1119 l 1
 -8 1119 l 1
342 1119 m 1
 342 1152 l 1
 498 1424 l 1
 690 1424 l 1
 690 1387 l 1
 398 1119 l 1
 342 1119 l 1
EndSplineSet
Validated: 1
EndChar

StartChar: braceleft
Encoding: 123 123 157
Width: 983
Flags: W
HStem: -274 47<638.188 797> 553 45<186 292.734> 1374 47<641.934 797>
VStem: 401 166<-165.486 476.979 676.095 1316.04>
LayerCount: 2
Fore
SplineSet
662 -274 m 2
 618.666666667 -274 580.666666667 -267.166666667 548 -253.5 c 0
 515.333333333 -239.833333333 488.166666667 -220.166666667 466.5 -194.5 c 0
 444.833333333 -168.833333333 428.5 -138 417.5 -102 c 0
 406.5 -66 401 -25.3333333333 401 20 c 2
 401 315 l 2
 401 357 396.166666667 392.666666667 386.5 422 c 0
 376.833333333 451.333333333 362.833333333 475.5 344.5 494.5 c 0
 326.166666667 513.5 303.666666667 527.666666667 277 537 c 0
 250.333333333 546.333333333 220 551.666666667 186 553 c 1
 186 598 l 1
 220 598.666666667 250.333333333 603.666666667 277 613 c 0
 303.666666667 622.333333333 326.166666667 636.5 344.5 655.5 c 0
 362.833333333 674.5 376.833333333 698.666666667 386.5 728 c 0
 396.166666667 757.333333333 401 792.666666667 401 834 c 2
 401 1128 l 2
 401 1222 422.666666667 1294.33333333 466 1345 c 0
 509.333333333 1395.66666667 574.666666667 1421 662 1421 c 2
 797 1421 l 1
 797 1374 l 1
 735 1374 l 2
 674.333333333 1374 631.166666667 1355.83333333 605.5 1319.5 c 0
 579.833333333 1283.16666667 567 1229.66666667 567 1159 c 2
 567 829 l 2
 567 795.666666667 562.166666667 765 552.5 737 c 0
 542.833333333 709 529.5 684.166666667 512.5 662.5 c 0
 495.5 640.833333333 475.166666667 622.833333333 451.5 608.5 c 0
 427.833333333 594.166666667 402.333333333 584 375 578 c 1
 375 575 l 1
 403.666666667 568.333333333 429.666666667 557.833333333 453 543.5 c 0
 476.333333333 529.166666667 496.5 511.166666667 513.5 489.5 c 0
 530.5 467.833333333 543.666666667 443 553 415 c 0
 562.333333333 387 567 356 567 322 c 2
 567 -12 l 2
 567 -82.6666666667 579.833333333 -136.166666667 605.5 -172.5 c 0
 631.166666667 -208.833333333 674.333333333 -227 735 -227 c 2
 797 -227 l 1
 797 -274 l 1
 662 -274 l 2
EndSplineSet
Validated: 1
EndChar

StartChar: bar
Encoding: 124 124 158
Width: 410
Flags: W
HStem: 1401 20G<154 256>
VStem: 154 102<-442 1421>
LayerCount: 2
Fore
SplineSet
154 -442 m 1
 154 1421 l 1
 256 1421 l 1
 256 -442 l 1
 154 -442 l 1
EndSplineSet
Validated: 1
EndChar

StartChar: braceright
Encoding: 125 125 159
Width: 983
Flags: W
HStem: -274 47<186 343.557> 553 45<690.928 797> 1374 47<186 341.916>
VStem: 416 166<-165.486 476.979 676.095 1316.04>
LayerCount: 2
Fore
SplineSet
186 -274 m 1
 186 -227 l 1
 248 -227 l 2
 308.666666667 -227 351.833333333 -208.833333333 377.5 -172.5 c 0
 403.166666667 -136.166666667 416 -82.6666666667 416 -12 c 2
 416 322 l 2
 416 356 420.666666667 387 430 415 c 0
 439.333333333 443 452.5 467.833333333 469.5 489.5 c 0
 486.5 511.166666667 506.666666667 529.166666667 530 543.5 c 0
 553.333333333 557.833333333 579.333333333 568.333333333 608 575 c 1
 608 578 l 1
 580.666666667 584 555.166666667 594.166666667 531.5 608.5 c 0
 507.833333333 622.833333333 487.5 640.833333333 470.5 662.5 c 0
 453.5 684.166666667 440.166666667 709 430.5 737 c 0
 420.833333333 765 416 795.666666667 416 829 c 2
 416 1159 l 2
 416 1229.66666667 403.166666667 1283.16666667 377.5 1319.5 c 0
 351.833333333 1355.83333333 308.666666667 1374 248 1374 c 2
 186 1374 l 1
 186 1421 l 1
 322 1421 l 2
 408.666666667 1421 473.666666667 1395.66666667 517 1345 c 0
 560.333333333 1294.33333333 582 1222 582 1128 c 2
 582 834 l 2
 582 792.666666667 586.833333333 757.333333333 596.5 728 c 0
 606.166666667 698.666666667 620.333333333 674.5 639 655.5 c 0
 657.666666667 636.5 680.166666667 622.333333333 706.5 613 c 0
 732.833333333 603.666666667 763 598.666666667 797 598 c 1
 797 553 l 1
 763 551.666666667 732.833333333 546.333333333 706.5 537 c 0
 680.166666667 527.666666667 657.666666667 513.5 639 494.5 c 0
 620.333333333 475.5 606.166666667 451.333333333 596.5 422 c 0
 586.833333333 392.666666667 582 357 582 315 c 2
 582 20 l 2
 582 -25.3333333333 576.5 -66 565.5 -102 c 0
 554.5 -138 538.166666667 -168.833333333 516.5 -194.5 c 0
 494.833333333 -220.166666667 467.666666667 -239.833333333 435 -253.5 c 0
 402.333333333 -267.166666667 364.666666667 -274 322 -274 c 2
 186 -274 l 1
EndSplineSet
Validated: 1
EndChar

StartChar: uni02CB
Encoding: 715 715 160
Width: 682
Flags: W
HStem: 1119 305
VStem: 119 409
LayerCount: 2
Fore
SplineSet
473 1119 m 1
 119 1387 l 1
 119 1424 l 1
 332 1424 l 1
 528 1152 l 1
 528 1119 l 1
 473 1119 l 1
EndSplineSet
Validated: 1
EndChar

StartChar: uni02CA
Encoding: 714 714 161
Width: 682
Flags: W
HStem: 1119 305
VStem: 156 409
LayerCount: 2
Fore
SplineSet
156 1119 m 1
 156 1152 l 1
 352 1424 l 1
 565 1424 l 1
 565 1387 l 1
 211 1119 l 1
 156 1119 l 1
EndSplineSet
Validated: 1
EndChar

StartChar: exclamdown
Encoding: 161 161 162
Width: 682
Flags: W
HStem: 831 21G<326 366.138>
VStem: 235 229<-355.043 190.584>
LayerCount: 2
Fore
SplineSet
492 976 m 1
 346 831 l 1
 192 985 l 1
 338 1130 l 1
 492 976 l 1
464 -230 m 0
 464 -296 423 -395 343 -396 c 16
 342.622490599 -396.004967229 342.246066825 -396.007442448 341.870727209 -396.007442448 c 0
 266.682886894 -396.007442448 235 -296.682097346 235 -233 c 0
 235 -138 322 616 334 679 c 1
 358 679 l 1
 370 613 464 -150 464 -230 c 0
EndSplineSet
Validated: 1
EndChar

StartChar: uni00B5
Encoding: 181 181 163
Width: 1097
VWidth: 0
Flags: W
HStem: -29 53<448.141 642.547> -25 99<905.74 1009.83> 836 20G<177.5 397.5 709.5 929.5>
VStem: 206 165<-379.8 -14.2989 83.697 751.962> 737 166<89.6252 753.362> 1015 29<89.4841 102.313>
LayerCount: 2
Fore
SplineSet
205 696 m 2xbc
 205 751 111 762 111 803 c 0
 111 828 150 856 205 856 c 2
 371 856 l 2
 424 856 465 830 465 803 c 0
 465 762 371 751 371 696 c 2
 371 552 l 1
 371 250 l 2
 371 128 428 24 520 24 c 0xbc
 635 24 737 65 737 253 c 2
 737 696 l 2
 737 751 643 762 643 803 c 0
 643 828 682 856 737 856 c 2
 903 856 l 2
 956 856 997 830 997 803 c 0
 997 762 903 751 903 696 c 2
 903 256 l 2
 903 231 899 200 899 170 c 0
 899 119 909 74 962 74 c 0
 991 74 1011 92 1015 119 c 1
 1044 86 l 1
 1032 23 975 -25 909 -25 c 0x7c
 856 -25 810 9 784 43 c 1
 672 -29 523 -29 522 -29 c 0
 461 -29 411.682651957 -24.2313041875 371 -14.2989331245 c 1
 371 -379.799804688 l 1
 206 -379.799804688 l 1
 206 210.316605942 l 2
 205.319902782 222.984140417 205 236.20782812 205 250 c 2
 205 696 l 2xbc
EndSplineSet
Validated: 1
EndChar
